<?xml version="1.0" standalone="no"?>
<!DOCTYPE svg PUBLIC "-//W3C//DTD SVG 1.1//EN" "http://www.w3.org/Graphics/SVG/1.1/DTD/svg11.dtd" >
<svg xmlns="http://www.w3.org/2000/svg" xmlns:xlink="http://www.w3.org/1999/xlink" version="1.1">
<metadata>
Created by FontForge 20170731 at Tue Sep  8 21:34:55 2015
 By Aleksey,,,
Copyright (c) 2015 by Kostas Bartsokas. All rights reserved.
</metadata>
<defs>
<font id="AvertaStd-SemiboldItalic" horiz-adv-x="647" >
  <font-face 
    font-family="Averta Std Semibold"
    font-weight="600"
    font-style="italic"
    font-stretch="normal"
    units-per-em="1000"
    panose-1="0 0 7 0 0 0 0 0 0 0"
    ascent="772"
    descent="-228"
    x-height="488"
    cap-height="710"
    bbox="-167 -389 1388 982"
    underline-thickness="49"
    underline-position="-181"
    slope="-7"
    unicode-range="U+0020-2715"
  />
<missing-glyph horiz-adv-x="404" 
 />
    <glyph glyph-name=".notdef" horiz-adv-x="404" 
 />
    <glyph glyph-name=".null" horiz-adv-x="0" 
 />
    <glyph glyph-name="nonmarkingreturn" horiz-adv-x="333" 
 />
    <glyph glyph-name="space" unicode=" " horiz-adv-x="203" 
 />
    <glyph glyph-name="exclam" unicode="!" horiz-adv-x="274" 
d="M100 223l42 513h121l-83 -513h-80zM128 138q31 0 51.5 -20.5t20.5 -51.5q0 -32 -21.5 -53t-53.5 -21q-31 0 -51 20.5t-20 50.5q0 32 21 53.5t53 21.5z" />
    <glyph glyph-name="quotedbl" unicode="&#x22;" horiz-adv-x="377" 
d="M119 710h117l-89 -252h-87zM284 710h117l-89 -252h-87z" />
    <glyph glyph-name="numbersign" unicode="#" horiz-adv-x="591" 
d="M461 656h77l-48 -188h100l-10 -83h-114l-37 -148h110l-11 -82h-123l-50 -195h-77l51 195h-127l-50 -195h-78l51 195h-97l10 82h110l38 148h-107l9 83h121l48 188h77l-48 -188h127zM389 385h-126l-38 -148h128z" />
    <glyph glyph-name="dollar" unicode="$" horiz-adv-x="538" 
d="M307 396q14 -8 42.5 -24.5t43 -25t36 -25t32 -31.5t18.5 -37.5t8 -48.5q0 -92 -54 -146t-140 -63l-14 -117h-94l15 121q-111 24 -163 108l85 78q18 -41 53.5 -63t77.5 -22q49 0 81.5 25t32.5 63q0 13 -4.5 22.5t-16.5 19.5t-21 15.5t-32.5 18.5t-36.5 21q-3 2 -25 14.5
t-27 16t-23.5 15.5t-24.5 18.5t-20 18.5t-19 22.5t-12.5 24.5t-10 29t-2.5 32q0 80 53.5 132t136.5 60l15 123h94l-16 -131q79 -23 129 -90l-83 -72q-44 66 -120 66q-38 0 -63.5 -21.5t-24.5 -53.5q1 -18 14 -34t27 -25.5t53 -33.5z" />
    <glyph glyph-name="percent" unicode="%" horiz-adv-x="1008" 
d="M744 686l-370 -707l-87 40l369 708zM286 716q80 0 132 -50.5t52 -131.5q0 -94 -60 -154t-146 -60q-78 0 -130 52t-52 132q0 90 59 151t145 61zM283 630q-44 0 -75.5 -35.5t-31.5 -89.5q0 -44 25.5 -71.5t65.5 -27.5q46 0 77 34t31 91q0 44 -26 71.5t-66 27.5zM769 388
q80 0 132.5 -51t52.5 -131q0 -94 -60 -154t-147 -60q-79 0 -130.5 52t-51.5 132q0 90 59 151t145 61zM766 302q-44 0 -75.5 -35.5t-31.5 -89.5q0 -44 26 -71.5t65 -27.5q46 0 77.5 34t31.5 91q0 44 -26.5 71.5t-66.5 27.5z" />
    <glyph glyph-name="ampersand" unicode="&#x26;" horiz-adv-x="741" 
d="M738 442l-12 -98h-152q-20 -159 -106 -255.5t-233 -96.5q-83 0 -136 51.5t-53 135.5q0 70 37.5 130t106.5 91q-50 45 -50 108q0 93 62.5 151.5t149.5 58.5q150 0 189 -141l-100 -32q-14 74 -82 75q-49 0 -77 -28.5t-28 -79.5q0 -29 18 -49.5t54 -20.5h412zM252 97
q88 0 145 73.5t70 173.5h-144q-68 0 -112.5 -49t-44.5 -105q0 -43 23 -68t63 -25z" />
    <glyph glyph-name="quotesingle" unicode="'" horiz-adv-x="211" 
d="M119 710h117l-89 -252h-87z" />
    <glyph glyph-name="parenleft" unicode="(" horiz-adv-x="298" 
d="M159 175q0 -154 47 -289l-90 -42q-60 138 -60 316q0 159 45.5 313.5t128.5 269.5l77 -34q-71 -113 -109.5 -253.5t-38.5 -280.5z" />
    <glyph glyph-name="parenright" unicode=")" horiz-adv-x="298" 
d="M255 430q0 -331 -173 -582l-77 34q71 118 108.5 258t37.5 277q0 158 -47 288l88 42q63 -129 63 -317z" />
    <glyph glyph-name="asterisk" unicode="*" horiz-adv-x="387" 
d="M327 438l-70 58l-11 -109h-71l18 109l-84 -58l-29 61l87 49l-76 51l43 61l71 -58l10 108h71l-18 -108l84 57l29 -60l-87 -50l76 -50z" />
    <glyph glyph-name="plus" unicode="+" horiz-adv-x="537" 
d="M479 227h-163l-22 -185h-101l22 185h-162l12 100h163l22 186h102l-23 -186h163z" />
    <glyph glyph-name="comma" unicode="," horiz-adv-x="235" 
d="M42 120h116l-94 -252h-81z" />
    <glyph glyph-name="hyphen" unicode="-" horiz-adv-x="384" 
d="M330 255h-273l13 107h273z" />
    <glyph glyph-name="period" unicode="." horiz-adv-x="271" 
d="M115 138q31 0 51.5 -20.5t20.5 -51.5q0 -32 -21.5 -53t-53.5 -21q-31 0 -51 20.5t-20 50.5q0 32 21 53.5t53 21.5z" />
    <glyph glyph-name="slash" unicode="/" horiz-adv-x="380" 
d="M450 741l-447 -853l-76 41l448 853z" />
    <glyph glyph-name="zero" unicode="0" horiz-adv-x="592" 
d="M352 694q96 0 149 -67.5t53 -197.5q0 -115 -32 -213t-98 -161t-155 -63q-97 0 -152 68.5t-55 197.5q0 114 31.5 211t99.5 161t159 64zM344 589q-56 0 -95 -54.5t-55.5 -128.5t-16.5 -154q0 -76 24 -115t69 -39q56 0 96 53.5t56.5 127t16.5 156.5q0 154 -95 154z" />
    <glyph glyph-name="one" unicode="1" horiz-adv-x="385" 
d="M260 687h90l-85 -687h-114l67 534l-109 -80l-54 88z" />
    <glyph glyph-name="two" unicode="2" horiz-adv-x="500" 
d="M193 106v-2h239l-14 -104h-403l7 76l220 234q36 39 56.5 63.5t40 63.5t19.5 73t-18 56t-50 22q-35 0 -70.5 -21.5t-57.5 -62.5l-83 61q31 57 91.5 93t128.5 36q75 0 125 -47.5t50 -127.5q0 -122 -136 -263z" />
    <glyph glyph-name="three" unicode="3" horiz-adv-x="515" 
d="M374 356q81 -40 81 -143q0 -98 -66.5 -159.5t-167.5 -61.5q-82 0 -134.5 41.5t-68.5 110.5l111 40q14 -86 88 -86q56 0 89 35.5t33 92.5q0 80 -92 80h-50l12 96h42q52 0 82 37.5t30 80.5q0 31 -19 50t-51 19q-68 0 -109 -66l-94 53q29 53 85.5 85.5t124.5 32.5
q78 0 127.5 -40.5t49.5 -114.5q0 -61 -27 -108t-76 -74v-1z" />
    <glyph glyph-name="four" unicode="4" horiz-adv-x="535" 
d="M405 217h90l-13 -101h-90l-14 -116h-113l14 116h-262l9 78l344 493h92zM163 214h135l32 252z" />
    <glyph glyph-name="five" unicode="5" horiz-adv-x="527" 
d="M484 583h-235l-26 -156q50 13 84 13q77 0 121.5 -48.5t44.5 -133.5q0 -116 -71 -191t-180 -75q-136 0 -200 118l95 62q34 -75 103 -75q60 0 99 43.5t39 108.5q0 94 -91 94q-53 0 -105 -38l-66 23l64 359h338z" />
    <glyph glyph-name="six" unicode="6" horiz-adv-x="552" 
d="M348 438q61 0 106 -47t45 -132q0 -116 -68 -191.5t-181 -75.5q-86 0 -141.5 57.5t-55.5 158.5q0 175 105 316t277 186l22 -98q-201 -72 -263 -227l1 -1q67 54 153 54zM254 98q55 0 92.5 43.5t37.5 111.5q0 39 -22 60.5t-63 21.5q-33 0 -71 -21t-62 -53q-1 -13 -1 -40
q0 -57 24.5 -90t64.5 -33z" />
    <glyph glyph-name="seven" unicode="7" horiz-adv-x="457" 
d="M79 687h384l-8 -76l-291 -625l-117 22l274 575h-255z" />
    <glyph glyph-name="eight" unicode="8" horiz-adv-x="535" 
d="M398 373q41 -13 66 -50.5t25 -93.5q0 -109 -72 -172.5t-188 -63.5q-88 0 -140.5 44t-52.5 119q0 71 36 129t100 85v1q-27 14 -45.5 44t-18.5 72q0 90 63 148.5t157 58.5q71 0 119.5 -39t48.5 -109q0 -121 -98 -171v-2zM312 594q-41 0 -68.5 -28.5t-27.5 -72.5
q0 -32 20.5 -52.5t53.5 -20.5q41 0 69 29t28 75q0 32 -19.5 51t-55.5 19zM246 94q53 0 89.5 36t36.5 93q0 44 -25 68.5t-69 24.5q-54 0 -89.5 -38.5t-35.5 -89.5q0 -43 25 -68.5t68 -25.5z" />
    <glyph glyph-name="nine" unicode="9" horiz-adv-x="545" 
d="M325 694q87 0 140 -58.5t53 -158.5q0 -183 -108 -324t-277 -176l-20 94q187 56 258 221l-1 1q-64 -45 -139 -45q-71 0 -115.5 45.5t-44.5 128.5q0 119 72.5 195.5t181.5 76.5zM186 442q0 -91 84 -91q36 0 71.5 21t60.5 53q2 28 2 41q0 58 -23.5 90.5t-68.5 32.5
q-55 0 -90.5 -41t-35.5 -106z" />
    <glyph glyph-name="colon" unicode=":" horiz-adv-x="276" 
d="M165 495q31 0 51.5 -20.5t20.5 -51.5q0 -32 -21.5 -53t-53.5 -21q-31 0 -51 20.5t-20 50.5q0 32 21 53.5t53 21.5zM119 138q31 0 51.5 -20.5t20.5 -51.5q0 -32 -21.5 -53t-53.5 -21q-31 0 -51 20.5t-20 50.5q0 32 21 53.5t53 21.5z" />
    <glyph glyph-name="semicolon" unicode=";" horiz-adv-x="251" 
d="M148 495q31 0 51.5 -20.5t20.5 -51.5q0 -32 -21.5 -53t-53.5 -21q-31 0 -51 20.5t-20 50.5q0 32 21 53.5t53 21.5zM50 120h116l-94 -252h-81z" />
    <glyph glyph-name="less" unicode="&#x3c;" horiz-adv-x="544" 
d="M464 140l-12 -108l-393 201l9 82l443 205l-13 -110l-283 -135z" />
    <glyph glyph-name="equal" unicode="=" horiz-adv-x="558" 
d="M523 341h-427l12 100h427zM492 113h-427l12 100h427z" />
    <glyph glyph-name="greater" unicode="&#x3e;" horiz-adv-x="545" 
d="M54 140l284 135l-250 135l13 110l393 -205l-9 -82l-443 -201z" />
    <glyph glyph-name="question" unicode="?" horiz-adv-x="437" 
d="M140 578l-73 72q34 44 88.5 69t113.5 25q69 0 116.5 -41t47.5 -118q0 -104 -107 -205q-28 -26 -40.5 -39.5t-26.5 -33.5t-17 -37l-9 -47h-101l5 48q1 11 4.5 22t6 19t10.5 19.5t11 16.5t14.5 18.5t14 16.5t17.5 18.5t17 17.5q37 40 55.5 70.5t18.5 69.5q0 36 -18 56
t-50 20q-55 0 -98 -57zM171 138q31 0 51.5 -20.5t20.5 -51.5q0 -32 -21.5 -53t-53.5 -21q-31 0 -51 20.5t-20 50.5q0 32 21 53.5t53 21.5z" />
    <glyph glyph-name="at" unicode="@" horiz-adv-x="901" 
d="M667 467l-32 -263q-5 -40 2.5 -58.5t38.5 -18.5q30 0 53 30.5t33.5 69t10.5 71.5q0 122 -76.5 202.5t-204.5 80.5q-74 0 -135 -21.5t-102 -57t-69 -82.5t-40.5 -95t-12.5 -97q0 -131 81.5 -211.5t199.5 -80.5q111 0 211 51l37 -60q-110 -72 -248 -72q-161 0 -263 101
t-102 272q0 56 14.5 113t48.5 115t83.5 102.5t126.5 72.5t170 28q168 0 267 -100.5t99 -259.5q0 -30 -5.5 -62t-21 -68t-39 -64t-62.5 -46t-88 -18q-46 0 -78.5 24.5t-41.5 68.5h-2q-55 -82 -145 -82q-61 0 -101.5 44.5t-40.5 123.5q0 107 61 180t149 73q70 0 108 -38h2
l4 32h110zM407 151q43 0 83 48.5t48 116.5l4 27q-38 30 -85 30q-46 0 -78.5 -44.5t-32.5 -98.5q0 -40 18 -59.5t43 -19.5z" />
    <glyph glyph-name="A" unicode="A" 
d="M471 0l-29 154h-255l-67 -154h-124l324 710h123l150 -710h-122zM231 257h192l-58 305h-2z" />
    <glyph glyph-name="B" unicode="B" horiz-adv-x="613" 
d="M455 377q105 -30 105 -144q0 -103 -64 -168t-173 -65h-261l87 710h229q97 0 144 -35.5t47 -111.5q0 -59 -30 -109.5t-84 -74.5v-2zM254 604l-23 -189h99q50 0 84 35.5t34 90.5q0 33 -23.5 48t-74.5 15h-96zM295 106q64 0 103 37t39 94q0 76 -107 76h-111l-26 -207h102z
" />
    <glyph glyph-name="C" unicode="C" horiz-adv-x="679" 
d="M614 113q-109 -121 -261 -121q-127 0 -206.5 77t-79.5 220q0 180 103.5 304.5t265.5 124.5q155 0 246 -148l-100 -70q-55 106 -151 106q-106 0 -173.5 -94.5t-67.5 -222.5q0 -87 44 -136t124 -49q46 0 91 23.5t77 62.5z" />
    <glyph glyph-name="D" unicode="D" horiz-adv-x="693" 
d="M277 0h-215l87 710h212q142 0 216.5 -77.5t74.5 -215.5q0 -190 -101 -303.5t-274 -113.5zM289 106q109 0 174.5 87t65.5 224q0 86 -46 136.5t-131 50.5h-98l-61 -498h96z" />
    <glyph glyph-name="E" unicode="E" horiz-adv-x="575" 
d="M502 106l-13 -106h-427l87 710h409l-14 -106h-291l-24 -199h235l-13 -106h-235l-24 -193h310z" />
    <glyph glyph-name="F" unicode="F" horiz-adv-x="563" 
d="M254 604l-27 -215h257l-13 -106h-257l-34 -283h-118l87 710h424l-13 -106h-306z" />
    <glyph glyph-name="G" unicode="G" horiz-adv-x="707" 
d="M652 378l-35 -298q-49 -41 -119 -64.5t-142 -23.5q-129 0 -209 76.5t-80 220.5q0 178 103.5 303.5t260.5 125.5q162 0 243 -122l-98 -72q-52 82 -150 82q-101 0 -168 -91.5t-67 -222.5q0 -91 44.5 -141.5t125.5 -50.5q75 0 143 48l17 124h-149l14 106h266z" />
    <glyph glyph-name="H" unicode="H" horiz-adv-x="699" 
d="M665 710l-87 -710h-119l36 286h-280l-35 -286h-118l87 710h118l-39 -318h280l39 318h118z" />
    <glyph glyph-name="I" unicode="I" horiz-adv-x="311" 
d="M185 0h-119l87 710h119z" />
    <glyph glyph-name="J" unicode="J" horiz-adv-x="485" 
d="M95 166q37 -62 83 -62q91 0 111 159l55 447h119l-56 -453q-16 -131 -71 -198t-158 -67q-49 0 -93.5 24t-71.5 68z" />
    <glyph glyph-name="K" unicode="K" horiz-adv-x="628" 
d="M658 710l-277 -316l196 -394h-143l-141 291h-2l-88 -101l-23 -190h-118l87 710h118l-41 -332h2l278 332h152z" />
    <glyph glyph-name="L" unicode="L" horiz-adv-x="546" 
d="M486 106l-13 -106h-411l87 710h118l-74 -604h293z" />
    <glyph glyph-name="M" unicode="M" horiz-adv-x="832" 
d="M668 710h129l-87 -710h-118l57 470h-2l-202 -333h-82l-123 343h-2l-58 -480h-118l87 710h126l146 -417h2z" />
    <glyph glyph-name="N" unicode="N" horiz-adv-x="722" 
d="M570 710h118l-88 -710h-129l-228 504h-2l-61 -504h-118l87 710h125l231 -513h1z" />
    <glyph glyph-name="O" unicode="O" horiz-adv-x="765" 
d="M439 718q129 0 207.5 -79.5t78.5 -218.5q0 -115 -44 -211.5t-130 -156.5t-199 -60q-130 0 -207.5 79.5t-77.5 219.5q0 113 45.5 210t132 157t194.5 60zM361 102q103 0 172 94.5t69 220.5q0 95 -46.5 143.5t-129.5 48.5q-101 0 -168.5 -96t-67.5 -219q0 -94 45.5 -143
t125.5 -49z" />
    <glyph glyph-name="P" unicode="P" horiz-adv-x="596" 
d="M388 710q101 0 147.5 -48.5t46.5 -142.5q0 -125 -72.5 -194.5t-208.5 -69.5h-90l-31 -255h-118l87 710h239zM317 361q67 0 104.5 40t37.5 118q0 39 -27 62t-71 23h-107l-30 -243h93z" />
    <glyph glyph-name="Q" unicode="Q" horiz-adv-x="783" 
d="M725 420q0 -166 -88 -285l66 -71l-76 -84l-69 76q-90 -64 -206 -64q-130 0 -207.5 79.5t-77.5 219.5q0 113 45.5 209.5t131.5 156.5t195 60q130 0 208 -79t78 -218zM361 102q65 0 119 41l-58 65l74 80l57 -61q49 85 49 190q0 95 -46.5 143t-129.5 48q-101 0 -168.5 -95.5
t-67.5 -218.5q0 -94 45.5 -143t125.5 -49z" />
    <glyph glyph-name="R" unicode="R" horiz-adv-x="626" 
d="M424 273v-1l128 -272h-136l-113 255h-92l-31 -255h-118l87 710h244q101 0 147.5 -48.5t46.5 -142.5q0 -92 -41.5 -155.5t-121.5 -90.5zM254 604l-30 -243h98q66 0 104 41.5t38 116.5q0 39 -27 62t-71 23h-112z" />
    <glyph glyph-name="S" unicode="S" horiz-adv-x="564" 
d="M315 422q14 -8 46.5 -26t47 -27t38 -27t34.5 -33.5t19.5 -39.5t8.5 -52q0 -108 -68.5 -166.5t-173.5 -58.5q-77 0 -141 32.5t-98 87.5l87 80q21 -43 60.5 -67t83.5 -24q55 0 90.5 29t35.5 71q0 15 -4.5 26t-19 23t-23 18t-36 21t-39.5 22q-2 1 -26.5 15.5t-29.5 17.5
t-25.5 16t-26.5 19.5t-21 20t-20 23.5t-13.5 25t-11 30.5t-2.5 33.5q0 93 66.5 149.5t165.5 56.5q61 0 116 -27t92 -76l-86 -75q-48 71 -130 71q-45 0 -73.5 -25t-27.5 -60q1 -16 6.5 -28t23 -26t29.5 -22t46 -28z" />
    <glyph glyph-name="T" unicode="T" horiz-adv-x="546" 
d="M557 604h-181l-74 -604h-118l74 604h-180l12 106h480z" />
    <glyph glyph-name="U" unicode="U" horiz-adv-x="680" 
d="M605 294q-19 -155 -91 -228.5t-202 -73.5q-115 0 -171.5 66.5t-56.5 184.5q0 32 4 60l50 407h118l-50 -407q-4 -25 -4 -55q0 -144 115 -144q147 0 170 190l51 416h118z" />
    <glyph glyph-name="V" unicode="V" horiz-adv-x="643" 
d="M541 710h134l-324 -710h-112l-150 710h124l99 -544h2z" />
    <glyph glyph-name="W" unicode="W" horiz-adv-x="949" 
d="M846 710h128l-289 -710h-118l-59 507h-2l-184 -507h-117l-114 710h123l72 -504h3l176 504h134l53 -499h3z" />
    <glyph glyph-name="X" unicode="X" horiz-adv-x="652" 
d="M671 710l-248 -357l165 -353h-141l-118 267h-2l-184 -267h-141l255 359l-159 351h134l116 -267h2l175 267h146z" />
    <glyph glyph-name="Y" unicode="Y" horiz-adv-x="581" 
d="M485 710h140l-267 -396l-40 -314h-118l39 314l-166 396h129l106 -283h3z" />
    <glyph glyph-name="Z" unicode="Z" horiz-adv-x="590" 
d="M573 619l-384 -510l-1 -3h322l-13 -106h-467l11 93l378 509v2h-303l13 106h454z" />
    <glyph glyph-name="bracketleft" unicode="[" horiz-adv-x="325" 
d="M209 647l-87 -709h112l-10 -85h-210l108 879h210l-10 -85h-113z" />
    <glyph glyph-name="backslash" unicode="\" horiz-adv-x="396" 
d="M53 741l90 40l239 -853l-91 -40z" />
    <glyph glyph-name="bracketright" unicode="]" horiz-adv-x="329" 
d="M219 647h-116l10 85h214l-108 -879h-214l11 85h116z" />
    <glyph glyph-name="asciicircum" unicode="^" horiz-adv-x="444" 
d="M88 500l148 210h83l98 -210h-94l-52 136l-89 -136h-94z" />
    <glyph glyph-name="underscore" unicode="_" horiz-adv-x="479" 
d="M439 -103h-484l9 76h484z" />
    <glyph glyph-name="grave" unicode="`" horiz-adv-x="458" 
d="M276 682l83 -144h-111l-94 145z" />
    <glyph glyph-name="a" unicode="a" horiz-adv-x="562" 
d="M415 488h109l-60 -488h-109l11 93h-1q-33 -49 -75 -75t-83 -26q-83 0 -125.5 55.5t-42.5 142.5q0 121 67.5 213.5t172.5 92.5q82 0 129 -47h2zM228 89q54 0 104 67.5t64 175.5l2 18q-46 46 -111 46q-61 0 -99 -64t-38 -144q0 -46 20 -72.5t58 -26.5z" />
    <glyph glyph-name="b" unicode="b" horiz-adv-x="573" 
d="M366 496q81 0 123.5 -58.5t42.5 -149.5q0 -56 -17.5 -107.5t-50.5 -94.5t-87.5 -68.5t-123.5 -25.5q-115 0 -204 56l85 688h109l-41 -332h2q70 92 162 92zM242 91q83 0 130.5 60.5t47.5 148.5q0 40 -21 68t-57 28q-60 0 -108.5 -65.5t-61.5 -174.5l-7 -54q37 -11 77 -11z
" />
    <glyph glyph-name="c" unicode="c" horiz-adv-x="492" 
d="M243 -7q-94 0 -148 53t-54 154q0 124 70.5 210t187.5 86q122 0 178 -82l-86 -64q-31 46 -95 46q-63 0 -103.5 -54t-40.5 -133q0 -59 27.5 -87.5t68.5 -28.5q61 0 110 52l86 -62q-87 -90 -201 -90z" />
    <glyph glyph-name="d" unicode="d" horiz-adv-x="572" 
d="M450 736h110l-91 -736h-110l12 92h-3q-68 -100 -160 -100q-83 0 -125.5 55.5t-42.5 142.5q0 121 67.5 213.5t172.5 92.5q84 0 133 -49h2zM229 89q56 0 107 67.5t64 175.5v-2l3 23q-40 43 -115 43q-61 0 -99 -64t-38 -144q0 -46 20 -72.5t58 -26.5z" />
    <glyph glyph-name="e" unicode="e" horiz-adv-x="479" 
d="M243 93q60 0 111 52l86 -62q-46 -46 -90.5 -68t-110.5 -22q-92 0 -145 54t-53 149q0 125 69 212.5t187 87.5q65 0 111 -35.5t46 -97.5q0 -59 -45 -102t-108.5 -64t-146.5 -31l-2 -1q9 -35 34 -53.5t57 -18.5zM292 396q-44 0 -83.5 -34.5t-53.5 -101.5l1 -1q187 24 187 99
q0 38 -51 38z" />
    <glyph glyph-name="f" unicode="f" horiz-adv-x="319" 
d="M354 620q-34 24 -63 24q-23 0 -37 -16t-20 -60l-9 -80h97l-11 -93h-99l-48 -395h-109l48 395h-46l11 93h47l12 101q10 77 47 116t98 39q65 0 111 -33z" />
    <glyph glyph-name="g" unicode="g" horiz-adv-x="563" 
d="M417 488h109l-52 -427q-10 -79 -35 -133.5t-63.5 -82.5t-81 -39.5t-96.5 -11.5q-91 0 -165 48l36 95q67 -43 134 -43q71 0 110 36.5t52 138.5l6 44h-3q-33 -52 -75.5 -78.5t-84.5 -26.5q-83 0 -125 55.5t-42 142.5q0 111 67.5 200.5t171.5 89.5q83 0 130 -47h2zM229 105
q51 0 100 60t66 151l4 33q-45 47 -110 47q-61 0 -99 -61.5t-38 -130.5q0 -46 20 -72.5t57 -26.5z" />
    <glyph glyph-name="h" unicode="h" horiz-adv-x="561" 
d="M383 495q77 0 106 -49.5t15 -151.5l-40 -294h-110l39 285q8 56 -2 83.5t-45 27.5q-49 0 -103 -64.5t-65 -152.5l-22 -179h-110l91 736h109l-41 -333h3q74 92 175 92z" />
    <glyph glyph-name="i" unicode="i" horiz-adv-x="258" 
d="M183 707q31 0 51.5 -20t20.5 -51q0 -32 -21.5 -53t-53.5 -21q-31 0 -51 20.5t-20 50.5q0 32 21 53t53 21zM104 488h110l-60 -488h-110z" />
    <glyph glyph-name="j" unicode="j" horiz-adv-x="240" 
d="M168 707q31 0 51.5 -20t20.5 -51q0 -32 -21.5 -53t-53.5 -21q-31 0 -51 20.5t-20 50.5q0 32 21 53t53 21zM-73 -96q19 -15 44 -15q24 0 37.5 21t18.5 69l63 509h110l-65 -524q-20 -169 -147 -169q-51 0 -89 23z" />
    <glyph glyph-name="k" unicode="k" horiz-adv-x="519" 
d="M376 172q20 -51 38.5 -69t51.5 -25l-32 -84q-16 -2 -23 -2q-23 0 -41 8.5t-29 17t-24.5 33.5t-19.5 38.5t-22 52.5l-10 24h-2q-46 -32 -98 -56l-13 -110h-109l91 736h109l-62 -508h1q152 93 202 260h111q-28 -136 -145 -251z" />
    <glyph glyph-name="l" unicode="l" horiz-adv-x="255" 
d="M140 736h110l-91 -736h-109z" />
    <glyph glyph-name="m" unicode="m" horiz-adv-x="832" 
d="M657 495q75 0 103.5 -49.5t14.5 -151.5l-40 -294h-110l39 285q14 111 -39 111q-39 0 -89 -58.5t-66 -138.5l-27 -199h-109l38 285q14 111 -39 111q-42 0 -94.5 -64.5t-63.5 -149.5l-22 -182h-110l61 488h109l-10 -85h1q73 92 164 92q94 0 114 -90h3q71 90 172 90z" />
    <glyph glyph-name="n" unicode="n" horiz-adv-x="557" 
d="M380 496q77 0 106 -50t15 -152l-40 -294h-109l38 285q8 56 -2 83.5t-45 27.5q-48 0 -102.5 -63.5t-65.5 -150.5l-22 -182h-110l61 488h109l-11 -86h2q76 94 176 94z" />
    <glyph glyph-name="o" unicode="o" horiz-adv-x="548" 
d="M300 496q95 0 151 -53t56 -149q0 -131 -69 -216.5t-192 -85.5q-95 0 -150 54.5t-55 151.5q0 123 71 210.5t188 87.5zM293 396q-62 0 -102 -56t-40 -129q0 -52 26.5 -85.5t71.5 -33.5q65 0 106 55.5t41 136.5q0 62 -31 87t-72 25z" />
    <glyph glyph-name="p" unicode="p" horiz-adv-x="571" 
d="M374 496q76 0 116.5 -57.5t40.5 -141.5q0 -121 -67.5 -213t-174.5 -92q-83 0 -130 44h-2l-29 -234h-109l84 686h109l-11 -93h1q68 101 172 101zM273 91q65 0 106 62.5t41 151.5q0 37 -18.5 64.5t-53.5 27.5q-59 0 -110.5 -65.5t-65.5 -171.5l-3 -21q26 -48 104 -48z" />
    <glyph glyph-name="q" unicode="q" horiz-adv-x="561" 
d="M415 488h109l-84 -686h-109l36 291h-2q-33 -49 -75 -75t-83 -26q-83 0 -125.5 55.5t-42.5 142.5q0 121 67.5 213.5t172.5 92.5q82 0 129 -47h2zM228 89q54 0 104 67.5t64 175.5l2 18q-46 46 -111 46q-61 0 -99 -64t-38 -144q0 -46 20 -72.5t58 -26.5z" />
    <glyph glyph-name="r" unicode="r" horiz-adv-x="356" 
d="M204 399q68 94 161 96l-15 -125q-72 13 -117 -39t-58 -148l-22 -183h-110l61 488h109l-11 -89h2z" />
    <glyph glyph-name="s" unicode="s" horiz-adv-x="427" 
d="M85 147q45 -59 107 -59q33 0 55 13t22 35q0 17 -16.5 29t-56.5 30q-3 1 -5 2l-5 2.5t-6 2.5q-121 53 -121 144q0 66 49 108t120 42q107 0 170 -70l-73 -74q-39 49 -98 49q-26 0 -41.5 -12.5t-15.5 -33.5q0 -32 80 -70l30 -15t27.5 -15.5t29 -20.5t20.5 -22t18 -29.5
t5 -33.5q1 -75 -50.5 -116t-137.5 -41q-54 0 -104 23t-75 61z" />
    <glyph glyph-name="t" unicode="t" horiz-adv-x="338" 
d="M277 122l15 -96q-56 -34 -123 -34q-61 0 -88 38.5t-19 104.5l32 260h-52l11 93h52l20 152l111 22l-21 -174h119l-11 -93h-119l-30 -240q-7 -58 33 -58q28 0 70 25z" />
    <glyph glyph-name="u" unicode="u" horiz-adv-x="542" 
d="M396 488h110l-60 -488h-110l11 87h-2q-63 -95 -161 -95q-77 0 -109.5 47t-19.5 149l37 300h109l-34 -290q-7 -59 5 -82.5t46 -23.5q42 0 90 55t62 130z" />
    <glyph glyph-name="v" unicode="v" horiz-adv-x="507" 
d="M202 -8q-169 0 -143 216l35 280h110l-34 -271q-8 -67 1.5 -96t42.5 -29q47 0 93.5 63t57.5 181q7 69 -6 152h112q12 -63 8 -141q-13 -180 -91 -267.5t-186 -87.5z" />
    <glyph glyph-name="w" unicode="w" horiz-adv-x="704" 
d="M668 488q13 -72 5 -161q-7 -84 -32.5 -150t-61.5 -105.5t-77.5 -59.5t-83.5 -20q-94 0 -113 86h-3q-49 -86 -130 -86q-68 0 -97.5 52.5t-16.5 153.5l36 290h110l-35 -281q-14 -115 32 -115q28 0 58 39.5t41 109.5l32 247h109l-35 -285q-14 -111 30 -111q34 0 75 68
t53 181q5 58 -7 147h111z" />
    <glyph glyph-name="x" unicode="x" horiz-adv-x="488" 
d="M491 488l-181 -241l122 -247h-126l-74 155h-2l-110 -155h-125l183 249l-120 239h126l66 -154h2l106 154h133z" />
    <glyph glyph-name="y" unicode="y" horiz-adv-x="545" 
d="M401 488h108l-52 -427q-9 -78 -34.5 -133t-64 -83t-78.5 -39.5t-89 -11.5q-95 0 -169 48l36 95q67 -43 133 -43q67 0 106 36.5t52 138.5l2 18h-2q-64 -95 -165 -95q-77 0 -109.5 47t-19.5 149l37 300h109l-34 -290q-7 -58 5 -81.5t46 -24.5q47 0 98 59t60 139z" />
    <glyph glyph-name="z" unicode="z" horiz-adv-x="466" 
d="M434 412l-263 -317v-2q143 -4 234 -32l-30 -90q-46 14 -115 21t-112.5 7.5t-135.5 0.5l9 77l259 317v1h-204l11 93h355z" />
    <glyph glyph-name="braceleft" unicode="{" horiz-adv-x="346" 
d="M291 732h67l-9 -76h-23q-27 0 -42.5 -21t-18.5 -47l-25 -195q-5 -44 -19 -67.5t-41 -34.5v-2q25 -11 33 -32.5t1 -73.5l-22 -183q-4 -37 5 -53.5t36 -16.5h27l-10 -76h-63q-45 0 -72 34.5t-20 88.5l24 196q2 20 2 36.5t-16 27t-50 11.5l7 85q34 1 54 15t24.5 28t7.5 36
l25 201q6 52 38 85.5t80 33.5z" />
    <glyph glyph-name="bar" unicode="|" horiz-adv-x="325" 
d="M175 737h95l-104 -852h-95z" />
    <glyph glyph-name="braceright" unicode="}" horiz-adv-x="346" 
d="M239 408q-1 -18 -2 -34t15.5 -28t50.5 -13l-7 -85q-35 -1 -54.5 -14t-24.5 -27t-8 -39l-23 -195q-7 -55 -40 -87t-78 -32h-68l10 76h23q30 0 43.5 18.5t18.5 56.5l22 183q6 53 19 72.5t43 30.5v2q-46 21 -35 105l23 194q7 64 -42 64h-26l9 76h63q48 0 73.5 -36t19.5 -88z
" />
    <glyph glyph-name="asciitilde" unicode="~" horiz-adv-x="535" 
d="M56 236q54 118 138 118q13 0 23.5 -1.5t21 -5.5t15 -5.5t14.5 -7.5l11 -7q36 -22 60 -22q41 0 71 50l78 -31q-23 -56 -59 -89t-77 -33q-42 0 -84 23q-45 25 -63 25q-40 0 -71 -50z" />
    <glyph glyph-name="exclamdown" unicode="&#xa1;" horiz-adv-x="268" 
d="M140 350q-31 0 -51.5 20.5t-20.5 51.5q0 32 21.5 53t53.5 21q31 0 51 -20.5t20 -50.5q0 -32 -21 -53.5t-53 -21.5zM168 265l-42 -513h-121l83 513h80z" />
    <glyph glyph-name="cent" unicode="&#xa2;" horiz-adv-x="505" 
d="M252 146q63 0 115 53l86 -62q-71 -73 -153 -86l-13 -99h-91l12 98q-74 12 -116 64.5t-42 135.5q0 112 59.5 195.5t159.5 100.5l12 98h92l-12 -99q85 -16 125 -77l-86 -64q-30 46 -88 46q-66 0 -108.5 -55.5t-42.5 -137.5q0 -52 27.5 -81.5t63.5 -29.5z" />
    <glyph glyph-name="sterling" unicode="&#xa3;" horiz-adv-x="515" 
d="M438 517q-34 66 -88 66q-85 0 -100 -131l-6 -44h138l-10 -81h-137l-27 -221h260l-13 -106h-437l13 106h59l27 221h-49l10 81h49l8 61q14 119 70.5 172t131.5 53q54 0 99.5 -27t71.5 -74z" />
    <glyph glyph-name="currency" unicode="&#xa4;" horiz-adv-x="473" 
d="M423 411q0 -72 -42 -128l60 -77l-58 -51l-61 77q-42 -25 -93 -25q-50 0 -88 24l-75 -75l-49 51l79 78q-14 31 -14 70q0 76 41 134l-62 78l59 51l60 -75q43 27 94 27q52 0 88 -27l75 76l49 -51l-79 -79q16 -35 16 -78zM240 283q45 0 75.5 35t30.5 83q0 42 -23 67.5
t-58 25.5q-45 0 -75.5 -36.5t-30.5 -88.5q0 -39 22 -62.5t59 -23.5z" />
    <glyph glyph-name="yen" unicode="&#xa5;" horiz-adv-x="540" 
d="M587 687l-175 -275h72l-8 -68h-108l-31 -49h133l-9 -67h-135l-29 -228h-118l28 228h-143l9 67h140l-19 49h-115l8 68h81l-105 275h134l92 -285l158 285h140z" />
    <glyph glyph-name="brokenbar" unicode="&#xa6;" horiz-adv-x="325" 
d="M175 737h95l-43 -352h-95zM114 238h95l-43 -352h-95z" />
    <glyph glyph-name="section" unicode="&#xa7;" horiz-adv-x="520" 
d="M317 433q5 -2 24 -11.5t23.5 -11.5t20 -10.5t20 -12.5t16.5 -12.5t16 -14.5t11.5 -16t9.5 -19.5t4.5 -21.5t2.5 -26q0 -98 -90 -143q43 -37 43 -99q0 -82 -57.5 -135t-146.5 -53q-119 0 -193 96l71 76q25 -35 59.5 -52t65.5 -17q34 0 57 21.5t23 53.5q0 27 -19.5 42.5
t-81.5 44.5q-66 31 -99 63.5t-33 92.5q0 94 89 139q-44 39 -44 103q0 79 55 128t139 49q54 0 104 -21.5t79 -55.5l-69 -77q-49 49 -109 49q-38 0 -58 -17.5t-20 -48.5q0 -24 17.5 -40.5t69.5 -42.5zM261 198q17 -8 30 -15q29 8 45 30.5t16 50.5q0 25 -17 39.5t-74 40.5
l-26 12q-27 -6 -42 -28t-15 -49q0 -25 17.5 -40.5t65.5 -40.5z" />
    <glyph glyph-name="dieresis" unicode="&#xa8;" horiz-adv-x="477" 
d="M191 689q30 0 50.5 -20t20.5 -51q0 -32 -21 -53t-53 -21q-31 0 -51.5 20.5t-20.5 50.5q0 32 21.5 53t53.5 21zM381 689q30 0 50.5 -20t20.5 -51q0 -32 -21 -53t-53 -21q-31 0 -51.5 20.5t-20.5 50.5q0 32 21.5 53t53.5 21z" />
    <glyph glyph-name="copyright" unicode="&#xa9;" horiz-adv-x="717" 
d="M359 631q130 0 220 -92t90 -221q0 -128 -90.5 -221t-221.5 -93q-130 0 -220.5 92.5t-90.5 221.5q0 128 91.5 220.5t221.5 92.5zM593 318q0 99 -67.5 168t-166.5 69q-100 0 -168 -70t-68 -168t68 -167.5t166 -69.5q100 0 168 70t68 168zM367 219q50 0 78 38l50 -43
q-50 -61 -128 -61q-70 0 -117.5 43t-47.5 120q0 71 44 117.5t121 46.5t128 -62l-50 -43q-33 40 -78 40q-42 0 -67.5 -27t-25.5 -72q0 -44 25.5 -70.5t67.5 -26.5z" />
    <glyph glyph-name="ordfeminine" unicode="&#xaa;" horiz-adv-x="377" 
d="M292 687h76l-36 -293h-77l6 44h-3q-42 -49 -93 -49q-43 0 -72.5 31.5t-29.5 90.5q0 74 46.5 127.5t109.5 53.5q43 0 68 -25h2zM180 462q31 0 61.5 33.5t36.5 88.5l2 10q-15 25 -54 25q-36 0 -59.5 -34t-23.5 -74q0 -49 37 -49z" />
    <glyph glyph-name="guillemotleft" unicode="&#xab;" horiz-adv-x="479" 
d="M235 33h-106l-84 213l138 217h105l-136 -217zM423 33h-105l-85 213l139 217h105l-137 -217z" />
    <glyph glyph-name="logicalnot" unicode="&#xac;" horiz-adv-x="515" 
d="M451 153h-99l19 160h-309l11 99h409z" />
    <glyph glyph-name="registered" unicode="&#xae;" horiz-adv-x="721" 
d="M361 634q131 0 221.5 -93t90.5 -223q0 -129 -91 -222.5t-223 -93.5q-130 0 -221.5 93t-91.5 223q0 129 92 222.5t223 93.5zM359 78q100 0 168.5 70.5t68.5 169.5q0 100 -68 170t-167 70q-100 0 -169 -71t-69 -170t68.5 -169t167.5 -70zM484 374q0 -74 -64 -98l80 -118
h-79l-71 110h-35v-110h-66v324h123q56 0 84 -29.5t28 -78.5zM315 421v-93h41q28 0 43.5 13t15.5 34t-15 33.5t-41 12.5h-44z" />
    <glyph glyph-name="macron" unicode="&#xaf;" horiz-adv-x="404" 
d="M116 659h274l-11 -92h-274z" />
    <glyph glyph-name="degree" unicode="&#xb0;" horiz-adv-x="380" 
d="M247 717q52 0 84.5 -32.5t32.5 -87.5q0 -63 -42 -109t-109 -46q-55 0 -85.5 31t-30.5 82q0 68 42.5 115t107.5 47zM239 645q-30 0 -49 -22.5t-19 -57.5q0 -49 51 -49q30 0 49.5 21.5t19.5 52.5q0 25 -14 40t-38 15z" />
    <glyph glyph-name="plusminus" unicode="&#xb1;" horiz-adv-x="553" 
d="M504 355h-163l-22 -185h-101l22 185h-162l12 100h163l22 186h102l-23 -186h163zM463 -2h-427l12 100h427z" />
    <glyph glyph-name="uni00B2" unicode="&#xb2;" horiz-adv-x="320" 
 />
    <glyph glyph-name="uni00B3" unicode="&#xb3;" horiz-adv-x="325" 
 />
    <glyph glyph-name="acute" unicode="&#xb4;" horiz-adv-x="453" 
d="M287 682l121 1l-129 -145h-111z" />
    <glyph glyph-name="uni00B5" unicode="&#xb5;" horiz-adv-x="558" 
d="M508 92l17 -76q-35 -24 -89 -24q-77 0 -89 79h-3q-50 -79 -124 -79q-52 0 -74 35l-2 -1q3 -56 -3 -110l-15 -114h-108l84 686h109l-36 -295q-4 -52 12 -76.5t45 -24.5q45 0 81 38t47 114l30 244h109l-42 -343q-5 -32 0.5 -43.5t25.5 -11.5q5 0 25 2z" />
    <glyph glyph-name="paragraph" unicode="&#xb6;" horiz-adv-x="519" 
d="M292 664h183l-100 -815h-69l91 741h-59l-72 -590h-71l41 319q-71 1 -115.5 38.5t-44.5 103.5q0 85 58 144t158 59z" />
    <glyph glyph-name="periodcentered" unicode="&#xb7;" horiz-adv-x="278" 
d="M151 318q31 0 51.5 -20.5t20.5 -51.5q0 -32 -21.5 -53t-53.5 -21q-31 0 -51 20.5t-20 50.5q0 32 21 53.5t53 21.5z" />
    <glyph glyph-name="cedilla" unicode="&#xb8;" horiz-adv-x="299" 
d="M113 -32q75 -3 75 -66q0 -38 -32.5 -65t-82.5 -27q-31 0 -57 6l3 54q13 -6 43 -6q52 0 52 37q0 27 -69 27l2 36l24 42h65l-24 -37z" />
    <glyph glyph-name="uni00B9" unicode="&#xb9;" horiz-adv-x="272" 
 />
    <glyph glyph-name="ordmasculine" unicode="&#xba;" horiz-adv-x="337" 
d="M223 692q54 0 88.5 -30.5t34.5 -91.5q0 -73 -41.5 -126.5t-116.5 -53.5q-57 0 -90.5 32t-33.5 92q0 73 42 125.5t117 52.5zM218 620q-29 0 -50 -30t-21 -68q0 -26 12.5 -43t31.5 -17q29 0 50.5 30t21.5 72q0 30 -14 43t-31 13z" />
    <glyph glyph-name="guillemotright" unicode="&#xbb;" horiz-adv-x="481" 
d="M6 33l136 213l-84 217h105l86 -217l-137 -213h-106zM197 33l135 213l-84 217h105l86 -217l-137 -213h-105z" />
    <glyph glyph-name="onequarter" unicode="&#xbc;" horiz-adv-x="743" 
d="M519 727l87 -41l-370 -707l-86 40zM225 299h-92l37 294l-61 -44l-38 71l133 91h72zM662 144h50l-10 -80h-50l-8 -64h-92l9 64h-151l6 57l207 291h72zM514 138h68l17 127z" />
    <glyph glyph-name="onehalf" unicode="&#xbd;" horiz-adv-x="779" 
d="M519 727l87 -41l-370 -707l-86 40zM225 299h-92l37 294l-61 -44l-38 71l133 91h72zM607 85v-2h128l-10 -83h-261l5 62l132 132q22 22 32.5 34.5t20.5 31.5t10 36q0 36 -33 36q-38 0 -66 -44l-65 54q23 34 60 55t82 21q52 0 84 -29.5t32 -79.5q0 -45 -19.5 -80t-60.5 -75z
" />
    <glyph glyph-name="threequarters" unicode="&#xbe;" horiz-adv-x="781" 
d="M556 727l87 -41l-370 -707l-86 40zM325 428q0 -62 -41.5 -99t-105.5 -37q-53 0 -89.5 27.5t-45.5 69.5l86 29q7 -45 44 -45q26 0 41.5 19t15.5 45q0 38 -45 38h-28l9 69h30q21 0 36.5 17.5t15.5 40.5q0 16 -9.5 24.5t-22.5 8.5q-38 0 -55 -38l-73 45q17 33 52.5 54
t77.5 21q53 0 85.5 -26.5t32.5 -73.5q0 -68 -60 -104v-2q49 -25 49 -83zM700 144h50l-10 -80h-50l-8 -64h-92l9 64h-151l6 57l207 291h72zM552 138h68l17 127z" />
    <glyph glyph-name="questiondown" unicode="&#xbf;" horiz-adv-x="420" 
d="M265 349q-31 0 -51.5 20.5t-20.5 51.5q0 32 21.5 53t53.5 21q31 0 51 -20.5t20 -50.5q0 -32 -21 -53.5t-53 -21.5zM296 -91q-43 -57 -98 -57q-32 0 -50 20t-18 56q0 39 18.5 69.5t55.5 70.5q2 2 17 17.5t17.5 18.5t14 16.5t14.5 18.5t11 16.5t10.5 19.5t6 19t4.5 22l5 48
h-101l-9 -47q-3 -17 -17 -37t-26.5 -33.5t-40.5 -39.5q-107 -101 -107 -205q0 -77 47.5 -118t116.5 -41q59 0 113.5 25t88.5 69z" />
    <glyph glyph-name="Agrave" unicode="&#xc0;" 
d="M441 787h-111l-94 145l122 -1zM471 0l-29 154h-255l-67 -154h-124l324 710h123l150 -710h-122zM231 257h192l-58 305h-2z" />
    <glyph glyph-name="Aacute" unicode="&#xc1;" 
d="M587 932l-129 -145h-111l119 144zM471 0l-29 154h-255l-67 -154h-124l324 710h123l150 -710h-122zM231 257h192l-58 305h-2z" />
    <glyph glyph-name="Acircumflex" unicode="&#xc2;" 
d="M404 861l-55 -76h-110l118 147h104l87 -147h-106l-36 76h-2zM471 0l-29 154h-255l-67 -154h-124l324 710h123l150 -710h-122zM231 257h192l-58 305h-2z" />
    <glyph glyph-name="Atilde" unicode="&#xc3;" 
d="M352 839q-36 0 -60 -54l-68 35q45 107 118 107q14 0 26 -3.5t17.5 -6.5t17 -11t12.5 -9q33 -23 47 -23q37 0 60 53l68 -26q-20 -55 -50.5 -85.5t-65.5 -30.5q-10 0 -19.5 2t-18.5 6.5t-14 7.5t-13.5 8.5t-10.5 7.5q-29 22 -46 22zM471 0l-29 154h-255l-67 -154h-124
l324 710h123l150 -710h-122zM231 257h192l-58 305h-2z" />
    <glyph glyph-name="Adieresis" unicode="&#xc4;" 
d="M309 793q-31 0 -51.5 20.5t-20.5 50.5q0 32 21.5 53t53.5 21q30 0 50.5 -20t20.5 -51t-21.5 -52.5t-52.5 -21.5zM499 793q-31 0 -51.5 20.5t-20.5 50.5q0 32 21.5 53t53.5 21q30 0 50.5 -20t20.5 -51t-21.5 -52.5t-52.5 -21.5zM471 0l-29 154h-255l-67 -154h-124l324 710
h123l150 -710h-122zM231 257h192l-58 305h-2z" />
    <glyph glyph-name="Aring" unicode="&#xc5;" 
d="M405 762q-44 0 -73.5 29.5t-29.5 73.5q0 45 30.5 75t76.5 30q44 0 73.5 -29t29.5 -73q0 -46 -30.5 -76t-76.5 -30zM408 905q-16 0 -27.5 -11.5t-11.5 -27.5t10.5 -27t27.5 -11t28 11t11 28q0 16 -11 27t-27 11zM471 0l-29 154h-255l-67 -154h-124l324 710h123l150 -710
h-122zM231 257h192l-58 305h-2z" />
    <glyph glyph-name="AE" unicode="&#xc6;" horiz-adv-x="875" 
d="M846 604h-295l-25 -198h243l-14 -106h-242l-23 -194h313l-13 -106h-428l19 154h-189l-86 -154h-129l407 710h475zM249 257h145l40 327h-3z" />
    <glyph glyph-name="Ccedilla" unicode="&#xc7;" horiz-adv-x="679" 
d="M358 104q46 0 91 23.5t77 62.5l88 -77q-108 -118 -254 -121l-15 -23l1 -1q75 -3 75 -66q0 -38 -32.5 -65t-82.5 -27q-31 0 -57 6l3 54q13 -6 43 -6q52 0 52 37q0 27 -69 27l2 36l18 31v1q-105 16 -168 91t-63 202q0 180 103.5 304.5t265.5 124.5q155 0 246 -148l-100 -70
q-55 106 -151 106q-106 0 -173.5 -94.5t-67.5 -222.5q0 -87 44 -136t124 -49z" />
    <glyph glyph-name="Egrave" unicode="&#xc8;" horiz-adv-x="575" 
d="M383 931l83 -144h-111l-94 145zM502 106l-13 -106h-427l87 710h409l-14 -106h-291l-24 -199h235l-13 -106h-235l-24 -193h310z" />
    <glyph glyph-name="Eacute" unicode="&#xc9;" horiz-adv-x="575" 
d="M390 931l121 1l-129 -145h-111zM502 106l-13 -106h-427l87 710h409l-14 -106h-291l-24 -199h235l-13 -106h-235l-24 -193h310z" />
    <glyph glyph-name="Ecircumflex" unicode="&#xca;" horiz-adv-x="575" 
d="M376 861l-55 -76h-110l118 147h104l87 -147h-106l-36 76h-2zM544 604h-291l-24 -199h235l-13 -106h-235l-24 -193h310l-13 -106h-427l87 710h409z" />
    <glyph glyph-name="Edieresis" unicode="&#xcb;" horiz-adv-x="575" 
d="M284 938q30 0 50.5 -20t20.5 -51t-21.5 -52.5t-52.5 -21.5t-51.5 20.5t-20.5 50.5q0 32 21.5 53t53.5 21zM474 938q30 0 50.5 -20t20.5 -51t-21.5 -52.5t-52.5 -21.5t-51.5 20.5t-20.5 50.5q0 32 21.5 53t53.5 21zM502 106l-13 -106h-427l87 710h409l-14 -106h-291
l-24 -199h235l-13 -106h-235l-24 -193h310z" />
    <glyph glyph-name="Igrave" unicode="&#xcc;" horiz-adv-x="311" 
d="M195 931l83 -144h-111l-94 145zM185 0h-119l87 710h119z" />
    <glyph glyph-name="Iacute" unicode="&#xcd;" horiz-adv-x="311" 
d="M295 931l121 1l-129 -145h-111zM185 0h-119l87 710h119z" />
    <glyph glyph-name="Icircumflex" unicode="&#xce;" horiz-adv-x="311" 
d="M230 861l-55 -76h-110l118 147h104l87 -147h-106l-36 76h-2zM66 0l87 710h119l-87 -710h-119z" />
    <glyph glyph-name="Idieresis" unicode="&#xcf;" horiz-adv-x="311" 
d="M138 938q30 0 50.5 -20t20.5 -51t-21.5 -52.5t-52.5 -21.5t-51.5 20.5t-20.5 50.5q0 32 21.5 53t53.5 21zM328 938q30 0 50.5 -20t20.5 -51t-21.5 -52.5t-52.5 -21.5t-51.5 20.5t-20.5 50.5q0 32 21.5 53t53.5 21zM185 0h-119l87 710h119z" />
    <glyph glyph-name="Eth" unicode="&#xd0;" horiz-adv-x="690" 
d="M363 710q142 0 216.5 -77.5t74.5 -215.5q0 -190 -101 -303.5t-274 -113.5h-215l37 302h-58l13 101h57l38 307h212zM291 106q109 0 174.5 87t65.5 224q0 86 -46 136.5t-131 50.5h-98l-25 -201h98l-13 -101h-97l-24 -196h96z" />
    <glyph glyph-name="Ntilde" unicode="&#xd1;" horiz-adv-x="722" 
d="M392 839q-36 0 -60 -54l-68 35q45 107 118 107q14 0 26 -3.5t17.5 -6.5t17 -11t12.5 -9q33 -23 47 -23q37 0 60 53l68 -26q-20 -55 -50.5 -85.5t-65.5 -30.5q-10 0 -19.5 2t-18.5 6.5t-14 7.5t-13.5 8.5t-10.5 7.5q-29 22 -46 22zM570 710h118l-88 -710h-129l-228 504h-2
l-61 -504h-118l87 710h125l231 -513h1z" />
    <glyph glyph-name="Ograve" unicode="&#xd2;" horiz-adv-x="765" 
d="M442 931l83 -144h-111l-94 145zM439 718q129 0 207.5 -79.5t78.5 -218.5q0 -115 -44 -211.5t-130 -156.5t-199 -60q-130 0 -207.5 79.5t-77.5 219.5q0 113 45.5 210t132 157t194.5 60zM361 102q103 0 172 94.5t69 220.5q0 95 -46.5 143.5t-129.5 48.5q-101 0 -168.5 -96
t-67.5 -219q0 -94 45.5 -143t125.5 -49z" />
    <glyph glyph-name="Oacute" unicode="&#xd3;" horiz-adv-x="765" 
d="M515 931l121 1l-129 -145h-111zM439 718q129 0 207.5 -79.5t78.5 -218.5q0 -115 -44 -211.5t-130 -156.5t-199 -60q-130 0 -207.5 79.5t-77.5 219.5q0 113 45.5 210t132 157t194.5 60zM361 102q103 0 172 94.5t69 220.5q0 95 -46.5 143.5t-129.5 48.5q-101 0 -168.5 -96
t-67.5 -219q0 -94 45.5 -143t125.5 -49z" />
    <glyph glyph-name="Ocircumflex" unicode="&#xd4;" horiz-adv-x="765" 
d="M481 861l-55 -76h-110l118 147h104l87 -147h-106l-36 76h-2zM439 718q129 0 207.5 -79.5t78.5 -218.5q0 -115 -44 -211.5t-130 -156.5t-199 -60q-130 0 -207.5 79.5t-77.5 219.5q0 113 45.5 210t132 157t194.5 60zM361 102q103 0 172 94.5t69 220.5q0 95 -46.5 143.5
t-129.5 48.5q-101 0 -168.5 -96t-67.5 -219q0 -94 45.5 -143t125.5 -49z" />
    <glyph glyph-name="Otilde" unicode="&#xd5;" horiz-adv-x="765" 
d="M301 820q45 107 118 107q14 0 26 -3.5t17.5 -6.5t17 -11t12.5 -9q33 -23 47 -23q37 0 60 53l68 -26q-20 -55 -50.5 -85.5t-65.5 -30.5q-10 0 -19.5 2t-18.5 6.5t-14 7.5t-13.5 8.5t-10.5 7.5q-29 22 -46 22q-36 0 -60 -54zM439 718q129 0 207.5 -79.5t78.5 -218.5
q0 -115 -44 -211.5t-130 -156.5t-199 -60q-130 0 -207.5 79.5t-77.5 219.5q0 113 45.5 210t132 157t194.5 60zM361 102q103 0 172 94.5t69 220.5q0 95 -46.5 143.5t-129.5 48.5q-101 0 -168.5 -96t-67.5 -219q0 -94 45.5 -143t125.5 -49z" />
    <glyph glyph-name="Odieresis" unicode="&#xd6;" horiz-adv-x="765" 
d="M389 938q30 0 50.5 -20t20.5 -51t-21 -52.5t-53 -21.5q-31 0 -51.5 20.5t-20.5 50.5q0 32 21.5 53t53.5 21zM579 938q30 0 50.5 -20t20.5 -51t-21 -52.5t-53 -21.5q-31 0 -51.5 20.5t-20.5 50.5q0 32 21.5 53t53.5 21zM439 718q129 0 207.5 -79.5t78.5 -218.5
q0 -115 -44 -211.5t-130 -156.5t-199 -60q-130 0 -207.5 79.5t-77.5 219.5q0 113 45.5 210t132 157t194.5 60zM361 102q103 0 172 94.5t69 220.5q0 95 -46.5 143.5t-129.5 48.5q-101 0 -168.5 -96t-67.5 -219q0 -94 45.5 -143t125.5 -49z" />
    <glyph glyph-name="multiply" unicode="&#xd7;" horiz-adv-x="496" 
d="M351 67l-106 140l-140 -140l-65 69l141 141l-107 141l80 70l105 -141l140 141l66 -70l-141 -142l105 -141z" />
    <glyph glyph-name="Oslash" unicode="&#xd8;" horiz-adv-x="767" 
d="M754 682l-76 -80q49 -74 49 -182q0 -115 -44 -211.5t-130 -156.5t-199 -60q-116 0 -192 65l-81 -86l-58 60l86 91q-40 69 -40 169q0 113 45.5 210t132 157t194.5 60t181 -56l74 78zM192 294q0 -42 9 -75l339 357q-44 33 -112 33q-101 0 -168.5 -96t-67.5 -219zM604 417
q0 53 -15 91l-344 -364q43 -42 118 -42q103 0 172 94.5t69 220.5z" />
    <glyph glyph-name="Ugrave" unicode="&#xd9;" horiz-adv-x="680" 
d="M362 931l83 -144h-111l-94 145zM605 294q-19 -155 -91 -228.5t-202 -73.5q-115 0 -171.5 66.5t-56.5 184.5q0 32 4 60l50 407h118l-50 -407q-4 -25 -4 -55q0 -144 115 -144q147 0 170 190l51 416h118z" />
    <glyph glyph-name="Uacute" unicode="&#xda;" horiz-adv-x="680" 
d="M466 931l121 1l-129 -145h-111zM605 294q-19 -155 -91 -228.5t-202 -73.5q-115 0 -171.5 66.5t-56.5 184.5q0 32 4 60l50 407h118l-50 -407q-4 -25 -4 -55q0 -144 115 -144q147 0 170 190l51 416h118z" />
    <glyph glyph-name="Ucircumflex" unicode="&#xdb;" horiz-adv-x="680" 
d="M421 861l-55 -76h-110l118 147h104l87 -147h-106l-36 76h-2zM538 710h118l-51 -416q-19 -155 -91 -228.5t-202 -73.5q-115 0 -171.5 66.5t-56.5 184.5q0 32 4 60l50 407h118l-50 -407q-4 -25 -4 -55q0 -144 115 -144q147 0 170 190z" />
    <glyph glyph-name="Udieresis" unicode="&#xdc;" horiz-adv-x="680" 
d="M329 938q30 0 50.5 -20t20.5 -51t-21 -52.5t-53 -21.5q-31 0 -51.5 20.5t-20.5 50.5q0 32 21.5 53t53.5 21zM519 938q30 0 50.5 -20t20.5 -51t-21 -52.5t-53 -21.5q-31 0 -51.5 20.5t-20.5 50.5q0 32 21.5 53t53.5 21zM605 294q-19 -155 -91 -228.5t-202 -73.5
q-115 0 -171.5 66.5t-56.5 184.5q0 32 4 60l50 407h118l-50 -407q-4 -25 -4 -55q0 -144 115 -144q147 0 170 190l51 416h118z" />
    <glyph glyph-name="Yacute" unicode="&#xdd;" horiz-adv-x="581" 
d="M537 932l-129 -145h-111l119 144zM485 710h140l-267 -396l-40 -314h-118l39 314l-166 396h129l106 -283h3z" />
    <glyph glyph-name="Thorn" unicode="&#xde;" horiz-adv-x="614" 
d="M195 125l-15 -125h-118l87 710h118l-16 -130h135q198 0 198 -191q0 -122 -72.5 -193t-208.5 -71h-108zM320 231q66 0 103.5 41t37.5 117q0 39 -26.5 62t-71.5 23h-125l-30 -243h112z" />
    <glyph glyph-name="germandbls" unicode="&#xdf;" horiz-adv-x="618" 
d="M588 146q0 -74 -50 -114t-133 -40q-56 0 -106.5 23t-76.5 61l74 70q42 -58 108 -58q32 0 52.5 15t20.5 38q0 18 -14.5 30.5t-49.5 31.5l-12 6q-62 36 -91 66.5t-29 75.5q0 24 11.5 46.5t23.5 35t36 33.5t33 30q42 40 42 86q0 28 -21.5 45.5t-59.5 17.5q-113 0 -130 -126
l-63 -519h-110l66 532q12 103 74.5 157.5t154.5 54.5q99 0 149.5 -44t50.5 -116q0 -47 -22 -80.5t-65 -68.5q-22 -18 -31 -25.5t-18.5 -20.5t-9.5 -24q0 -14 14 -29t56 -40q70 -41 89 -60q37 -36 37 -90z" />
    <glyph glyph-name="agrave" unicode="&#xe0;" horiz-adv-x="562" 
d="M399 556h-111l-94 145l122 -1zM415 488h109l-60 -488h-109l11 93h-1q-33 -49 -75 -75t-83 -26q-83 0 -125.5 55.5t-42.5 142.5q0 121 67.5 213.5t172.5 92.5q82 0 129 -47h2zM228 89q54 0 104 67.5t64 175.5l2 18q-46 46 -111 46q-61 0 -99 -64t-38 -144q0 -46 20 -72.5
t58 -26.5z" />
    <glyph glyph-name="aacute" unicode="&#xe1;" horiz-adv-x="562" 
d="M497 701l-129 -145h-111l119 144zM415 488h109l-60 -488h-109l11 93h-1q-33 -49 -75 -75t-83 -26q-83 0 -125.5 55.5t-42.5 142.5q0 121 67.5 213.5t172.5 92.5q82 0 129 -47h2zM228 89q54 0 104 67.5t64 175.5l2 18q-46 46 -111 46q-61 0 -99 -64t-38 -144
q0 -46 20 -72.5t58 -26.5z" />
    <glyph glyph-name="acircumflex" unicode="&#xe2;" horiz-adv-x="562" 
d="M338 630l-55 -76h-110l118 147h104l87 -147h-106l-36 76h-2zM415 488h109l-60 -488h-109l11 93h-1q-33 -49 -75 -75t-83 -26q-83 0 -125.5 55.5t-42.5 142.5q0 121 67.5 213.5t172.5 92.5q82 0 129 -47h2zM228 89q54 0 104 67.5t64 175.5l2 18q-46 46 -111 46
q-61 0 -99 -64t-38 -144q0 -46 20 -72.5t58 -26.5z" />
    <glyph glyph-name="atilde" unicode="&#xe3;" horiz-adv-x="562" 
d="M286 608q-36 0 -60 -54l-68 35q45 107 118 107q14 0 26 -3.5t17.5 -6.5t17 -11t12.5 -9q33 -23 47 -23q37 0 60 53l68 -26q-20 -55 -50.5 -85.5t-65.5 -30.5q-10 0 -19.5 2t-18.5 6.5t-14 7.5t-13.5 8.5t-10.5 7.5q-29 22 -46 22zM410 449l5 39h109l-60 -488h-109l11 93
h-1q-33 -49 -75 -75t-83 -26q-83 0 -125.5 55.5t-42.5 142.5q0 121 67.5 213.5t172.5 92.5q82 0 129 -47h2zM228 89q54 0 104 67.5t64 175.5l2 18q-46 46 -111 46q-61 0 -99 -64t-38 -144q0 -46 20 -72.5t58 -26.5z" />
    <glyph glyph-name="adieresis" unicode="&#xe4;" horiz-adv-x="562" 
d="M243 562q-31 0 -51.5 20.5t-20.5 50.5q0 32 21.5 53t53.5 21q30 0 50.5 -20t20.5 -51q0 -32 -21.5 -53t-52.5 -21zM433 562q-31 0 -51.5 20.5t-20.5 50.5q0 32 21.5 53t53.5 21q30 0 50.5 -20t20.5 -51q0 -32 -21.5 -53t-52.5 -21zM415 488h109l-60 -488h-109l11 93h-1
q-33 -49 -75 -75t-83 -26q-83 0 -125.5 55.5t-42.5 142.5q0 121 67.5 213.5t172.5 92.5q82 0 129 -47h2zM228 89q54 0 104 67.5t64 175.5l2 18q-46 46 -111 46q-61 0 -99 -64t-38 -144q0 -46 20 -72.5t58 -26.5z" />
    <glyph glyph-name="aring" unicode="&#xe5;" horiz-adv-x="562" 
d="M339 531q-44 0 -73.5 29.5t-29.5 73.5q0 45 30.5 75t76.5 30q44 0 73.5 -29t29.5 -73q0 -46 -30.5 -76t-76.5 -30zM342 674q-16 0 -27.5 -11.5t-11.5 -27.5q0 -17 10.5 -27.5t27.5 -10.5t28 11.5t11 27.5t-11 27t-27 11zM415 488h109l-60 -488h-109l11 93h-1
q-33 -49 -75 -75t-83 -26q-83 0 -125.5 55.5t-42.5 142.5q0 121 67.5 213.5t172.5 92.5q82 0 129 -47h2zM228 89q54 0 104 67.5t64 175.5l2 18q-46 46 -111 46q-61 0 -99 -64t-38 -144q0 -46 20 -72.5t58 -26.5z" />
    <glyph glyph-name="ae" unicode="&#xe6;" horiz-adv-x="676" 
d="M472 93q55 0 95 52l86 -62q-73 -90 -185 -90q-125 0 -172 99h-2q-48 -95 -135 -99q-63 -3 -100.5 43t-37.5 116q0 134 83.5 229t222.5 95q45 0 82 -11h1q53 31 112 31q63 0 104 -32t41 -87q0 -86 -73 -140t-205 -77l-2 -1q10 -32 34 -49t51 -17zM556 363q0 13 -12 23
t-34 10q-36 0 -73.5 -40.5t-49.5 -107.5l1 -1q77 18 122.5 48.5t45.5 67.5zM176 92q63 0 102 158q10 69 44 125l-1 1h-6q-88 0 -136.5 -66t-46.5 -154q1 -26 12.5 -45t31.5 -19z" />
    <glyph glyph-name="ccedilla" unicode="&#xe7;" horiz-adv-x="492" 
d="M248 93q61 0 110 52l86 -62q-82 -85 -186 -90l-16 -24l1 -1q75 -3 75 -66q0 -38 -32.5 -65t-82.5 -27q-31 0 -57 6l3 54q13 -6 43 -6q52 0 52 37q0 27 -69 27l2 36l19 33q-73 12 -114 64t-41 139q0 124 70.5 210t187.5 86q122 0 178 -82l-86 -64q-31 46 -95 46
q-63 0 -103.5 -54t-40.5 -133q0 -59 27.5 -87.5t68.5 -28.5z" />
    <glyph glyph-name="egrave" unicode="&#xe8;" horiz-adv-x="479" 
d="M376 556h-111l-94 145l122 -1zM243 93q60 0 111 52l86 -62q-46 -46 -90.5 -68t-110.5 -22q-92 0 -145 54t-53 149q0 125 69 212.5t187 87.5q65 0 111 -35.5t46 -97.5q0 -59 -45 -102t-108.5 -64t-146.5 -31l-2 -1q9 -35 34 -53.5t57 -18.5zM292 396q-44 0 -83.5 -34.5
t-53.5 -101.5l1 -1q187 24 187 99q0 38 -51 38z" />
    <glyph glyph-name="eacute" unicode="&#xe9;" horiz-adv-x="479" 
d="M481 701l-129 -145h-111l119 144zM454 363q0 -59 -45 -102t-108.5 -64t-146.5 -31l-2 -1q9 -35 34 -53.5t57 -18.5q60 0 111 52l86 -62q-46 -46 -90.5 -68t-110.5 -22q-92 0 -145 54t-53 149q0 125 69 212.5t187 87.5q65 0 111 -35.5t46 -97.5zM292 396
q-44 0 -83.5 -34.5t-53.5 -101.5l1 -1q187 24 187 99q0 38 -51 38z" />
    <glyph glyph-name="ecircumflex" unicode="&#xea;" horiz-adv-x="479" 
d="M318 630l-55 -76h-110l118 147h104l87 -147h-106l-36 76h-2zM454 363q0 -59 -45 -102t-108.5 -64t-146.5 -31l-2 -1q9 -35 34 -53.5t57 -18.5q60 0 111 52l86 -62q-46 -46 -90.5 -68t-110.5 -22q-92 0 -145 54t-53 149q0 125 69 212.5t187 87.5q65 0 111 -35.5t46 -97.5z
M292 396q-44 0 -83.5 -34.5t-53.5 -101.5l1 -1q187 24 187 99q0 38 -51 38z" />
    <glyph glyph-name="edieresis" unicode="&#xeb;" horiz-adv-x="479" 
d="M223 562q-31 0 -51.5 20.5t-20.5 50.5q0 32 21.5 53t53.5 21q30 0 50.5 -20t20.5 -51q0 -32 -21.5 -53t-52.5 -21zM416 707q30 0 50.5 -20t20.5 -51q0 -32 -21.5 -53t-52.5 -21t-51.5 20.5t-20.5 50.5q0 32 21.5 53t53.5 21zM454 363q0 -59 -45 -102t-108.5 -64
t-146.5 -31l-2 -1q9 -35 34 -53.5t57 -18.5q60 0 111 52l86 -62q-46 -46 -90.5 -68t-110.5 -22q-92 0 -145 54t-53 149q0 125 69 212.5t187 87.5q65 0 111 -35.5t46 -97.5zM292 396q-44 0 -83.5 -34.5t-53.5 -101.5l1 -1q187 24 187 99q0 38 -51 38z" />
    <glyph glyph-name="igrave" unicode="&#xec;" horiz-adv-x="259" 
d="M175 709l50 -144h-113l-59 145zM104 488h110l-60 -488h-110z" />
    <glyph glyph-name="iacute" unicode="&#xed;" horiz-adv-x="272" 
d="M250 700l121 1l-129 -145h-111zM104 488h110l-60 -488h-110z" />
    <glyph glyph-name="icircumflex" unicode="&#xee;" horiz-adv-x="258" 
d="M236 701l87 -147h-106l-36 76h-2l-55 -76h-110l118 147h104zM44 0l60 488h110l-60 -488h-110z" />
    <glyph glyph-name="idieresis" unicode="&#xef;" horiz-adv-x="258" 
d="M89 707q30 0 50.5 -20t20.5 -51q0 -32 -21 -53t-53 -21q-31 0 -51.5 20.5t-20.5 50.5q0 32 21.5 53t53.5 21zM273 707q31 0 51 -20t20 -51q0 -32 -21 -53t-53 -21q-31 0 -51.5 20.5t-20.5 50.5q0 32 21.5 53t53.5 21zM104 488h110l-60 -488h-110z" />
    <glyph glyph-name="eth" unicode="&#xf0;" horiz-adv-x="551" 
d="M512 317q0 -23 -3 -52q-7 -117 -78 -194.5t-186 -77.5q-93 0 -148.5 55t-55.5 151q0 113 72.5 195.5t178.5 82.5q47 0 81 -26l2 1q-28 75 -83 127l-63 -48l-45 55l49 38q-31 20 -66 33l58 83q49 -19 95 -49l71 54l44 -58l-57 -43q134 -128 134 -327zM249 93
q66 0 108 53.5t42 143.5q0 39 -27.5 63t-65.5 24q-65 0 -110 -49t-45 -122q0 -55 27.5 -84t70.5 -29z" />
    <glyph glyph-name="ntilde" unicode="&#xf1;" horiz-adv-x="557" 
d="M286 608q-36 0 -60 -54l-68 35q45 107 118 107q14 0 26 -3.5t17.5 -6.5t17 -11t12.5 -9q33 -23 47 -23q37 0 60 53l68 -26q-20 -55 -50.5 -85.5t-65.5 -30.5q-10 0 -19.5 2t-18.5 6.5t-14 7.5t-13.5 8.5t-10.5 7.5q-29 22 -46 22zM380 496q77 0 106 -50t15 -152l-40 -294
h-109l38 285q8 56 -2 83.5t-45 27.5q-48 0 -102.5 -63.5t-65.5 -150.5l-22 -182h-110l61 488h109l-11 -86h2q76 94 176 94z" />
    <glyph glyph-name="ograve" unicode="&#xf2;" horiz-adv-x="548" 
d="M292 700l83 -144h-111l-94 145zM300 496q95 0 151 -53t56 -149q0 -131 -69 -216.5t-192 -85.5q-95 0 -150 54.5t-55 151.5q0 123 71 210.5t188 87.5zM293 396q-62 0 -102 -56t-40 -129q0 -52 26.5 -85.5t71.5 -33.5q65 0 106 55.5t41 136.5q0 62 -31 87t-72 25z" />
    <glyph glyph-name="oacute" unicode="&#xf3;" horiz-adv-x="548" 
d="M378 700l121 1l-129 -145h-111zM300 496q95 0 151 -53t56 -149q0 -131 -69 -216.5t-192 -85.5q-95 0 -150 54.5t-55 151.5q0 123 71 210.5t188 87.5zM293 396q-62 0 -102 -56t-40 -129q0 -52 26.5 -85.5t71.5 -33.5q65 0 106 55.5t41 136.5q0 62 -31 87t-72 25z" />
    <glyph glyph-name="ocircumflex" unicode="&#xf4;" horiz-adv-x="548" 
d="M327 630l-55 -76h-110l118 147h104l87 -147h-106l-36 76h-2zM300 496q95 0 151 -53t56 -149q0 -131 -69 -216.5t-192 -85.5q-95 0 -150 54.5t-55 151.5q0 123 71 210.5t188 87.5zM249 92q65 0 106 55.5t41 136.5q0 62 -31 87t-72 25q-62 0 -102 -56t-40 -129
q0 -52 26.5 -85.5t71.5 -33.5z" />
    <glyph glyph-name="otilde" unicode="&#xf5;" horiz-adv-x="548" 
d="M147 589q45 107 118 107q14 0 26 -3.5t17.5 -6.5t17 -11t12.5 -9q33 -23 47 -23q37 0 60 53l68 -26q-20 -55 -50.5 -85.5t-65.5 -30.5q-10 0 -19.5 2t-18.5 6.5t-14 7.5t-13.5 8.5t-10.5 7.5q-29 22 -46 22q-36 0 -60 -54zM300 496q95 0 151 -53t56 -149
q0 -131 -69 -216.5t-192 -85.5q-95 0 -150 54.5t-55 151.5q0 123 71 210.5t188 87.5zM293 396q-62 0 -102 -56t-40 -129q0 -52 26.5 -85.5t71.5 -33.5q65 0 106 55.5t41 136.5q0 62 -31 87t-72 25z" />
    <glyph glyph-name="odieresis" unicode="&#xf6;" horiz-adv-x="548" 
d="M235 707q30 0 50.5 -20t20.5 -51q0 -32 -21 -53t-53 -21q-31 0 -51.5 20.5t-20.5 50.5q0 32 21.5 53t53.5 21zM425 707q30 0 50.5 -20t20.5 -51q0 -32 -21 -53t-53 -21q-31 0 -51.5 20.5t-20.5 50.5q0 32 21.5 53t53.5 21zM300 496q95 0 151 -53t56 -149
q0 -131 -69 -216.5t-192 -85.5q-95 0 -150 54.5t-55 151.5q0 123 71 210.5t188 87.5zM293 396q-62 0 -102 -56t-40 -129q0 -52 26.5 -85.5t71.5 -33.5q65 0 106 55.5t41 136.5q0 62 -31 87t-72 25z" />
    <glyph glyph-name="divide" unicode="&#xf7;" horiz-adv-x="535" 
d="M313 543q31 0 51.5 -20t20.5 -51q0 -32 -21.5 -53t-53.5 -21q-31 0 -51 20.5t-20 50.5q0 32 21 53t53 21zM497 227h-427l12 100h427zM264 144q31 0 51.5 -20t20.5 -51q0 -32 -21.5 -53t-53.5 -21q-31 0 -51 20.5t-20 50.5q0 32 21 53t53 21z" />
    <glyph glyph-name="oslash" unicode="&#xf8;" horiz-adv-x="552" 
d="M532 460l-52 -54q27 -49 27 -112q0 -131 -69 -216.5t-192 -85.5q-77 0 -128 36l-50 -53l-49 50l52 54q-30 48 -30 119q0 123 71 210.5t188 87.5q80 0 133 -38l50 52zM151 211q0 -20 5 -43l200 210q-26 18 -63 18q-62 0 -102 -56t-40 -129zM396 284q0 18 -3 31l-198 -207
q24 -16 54 -16q65 0 106 55.5t41 136.5z" />
    <glyph glyph-name="ugrave" unicode="&#xf9;" horiz-adv-x="542" 
d="M373 556h-111l-94 145l122 -1zM396 488h110l-60 -488h-110l11 87h-2q-63 -95 -161 -95q-77 0 -109.5 47t-19.5 149l37 300h109l-34 -290q-7 -59 5 -82.5t46 -23.5q42 0 90 55t62 130z" />
    <glyph glyph-name="uacute" unicode="&#xfa;" horiz-adv-x="542" 
d="M488 701l-129 -145h-111l119 144zM396 488h110l-60 -488h-110l11 87h-2q-63 -95 -161 -95q-77 0 -109.5 47t-19.5 149l37 300h109l-34 -290q-7 -59 5 -82.5t46 -23.5q42 0 90 55t62 130z" />
    <glyph glyph-name="ucircumflex" unicode="&#xfb;" horiz-adv-x="542" 
d="M320 630l-55 -76h-110l118 147h104l87 -147h-106l-36 76h-2zM396 488h110l-60 -488h-110l11 87h-2q-63 -95 -161 -95q-77 0 -109.5 47t-19.5 149l37 300h109l-34 -290q-7 -59 5 -82.5t46 -23.5q42 0 90 55t62 130z" />
    <glyph glyph-name="udieresis" unicode="&#xfc;" horiz-adv-x="542" 
d="M225 562q-31 0 -51.5 20.5t-20.5 50.5q0 32 21.5 53t53.5 21q30 0 50.5 -20t20.5 -51q0 -32 -21.5 -53t-52.5 -21zM415 562q-31 0 -51.5 20.5t-20.5 50.5q0 32 21.5 53t53.5 21q30 0 50.5 -20t20.5 -51q0 -32 -21.5 -53t-52.5 -21zM396 488h110l-60 -488h-110l11 87h-2
q-63 -95 -161 -95q-77 0 -109.5 47t-19.5 149l37 300h109l-34 -290q-7 -59 5 -82.5t46 -23.5q42 0 90 55t62 130z" />
    <glyph glyph-name="yacute" unicode="&#xfd;" horiz-adv-x="545" 
d="M482 701l-129 -145h-111l119 144zM401 488h108l-52 -427q-9 -78 -34.5 -133t-64 -83t-78.5 -39.5t-89 -11.5q-95 0 -169 48l36 95q67 -43 133 -43q67 0 106 36.5t52 138.5l2 18h-2q-64 -95 -165 -95q-77 0 -109.5 47t-19.5 149l37 300h109l-34 -290q-7 -58 5 -81.5
t46 -24.5q47 0 98 59t60 139z" />
    <glyph glyph-name="thorn" unicode="&#xfe;" horiz-adv-x="571" 
d="M374 496q75 0 116 -57.5t41 -141.5q0 -78 -29 -147t-85.5 -113.5t-127.5 -44.5q-83 0 -130 43h-2l-29 -233h-109l114 934h110l-42 -339h2q67 99 171 99zM272 91q65 0 106 62.5t41 151.5q0 37 -18.5 64.5t-53.5 27.5q-57 0 -107 -62t-67 -163l-4 -34q27 -47 103 -47z" />
    <glyph glyph-name="ydieresis" unicode="&#xff;" horiz-adv-x="545" 
d="M227 562q-31 0 -51.5 20.5t-20.5 50.5q0 32 21.5 53t53.5 21q30 0 50.5 -20t20.5 -51q0 -32 -21.5 -53t-52.5 -21zM417 562q-31 0 -51.5 20.5t-20.5 50.5q0 32 21.5 53t53.5 21q30 0 50.5 -20t20.5 -51q0 -32 -21.5 -53t-52.5 -21zM401 488h108l-52 -427
q-9 -78 -34.5 -133t-64 -83t-78.5 -39.5t-89 -11.5q-95 0 -169 48l36 95q67 -43 133 -43q67 0 106 36.5t52 138.5l2 18h-2q-64 -95 -165 -95q-77 0 -109.5 47t-19.5 149l37 300h109l-34 -290q-7 -58 5 -81.5t46 -24.5q47 0 98 59t60 139z" />
    <glyph glyph-name="Amacron" unicode="&#x100;" 
d="M547 908l-11 -92h-274l11 92h274zM471 0l-29 154h-255l-67 -154h-124l324 710h123l150 -710h-122zM231 257h192l-58 305h-2z" />
    <glyph glyph-name="amacron" unicode="&#x101;" horiz-adv-x="562" 
d="M481 677l-11 -92h-274l11 92h274zM415 488h109l-60 -488h-109l11 93h-1q-33 -49 -75 -75t-83 -26q-83 0 -125.5 55.5t-42.5 142.5q0 121 67.5 213.5t172.5 92.5q82 0 129 -47h2zM228 89q54 0 104 67.5t64 175.5l2 18q-46 46 -111 46q-61 0 -99 -64t-38 -144
q0 -46 20 -72.5t58 -26.5z" />
    <glyph glyph-name="Abreve" unicode="&#x102;" 
d="M399 782q-63 0 -101 39t-32 107h85q-7 -69 49 -69q28 0 48 19.5t26 49.5h85q-13 -67 -55.5 -106.5t-104.5 -39.5zM471 0l-29 154h-255l-67 -154h-124l324 710h123l150 -710h-122zM231 257h192l-58 305h-2z" />
    <glyph glyph-name="abreve" unicode="&#x103;" horiz-adv-x="562" 
d="M333 551q-63 0 -101 39t-32 107h85q-7 -69 49 -69q28 0 48 19.5t26 49.5h85q-13 -67 -55.5 -106.5t-104.5 -39.5zM415 488h109l-60 -488h-109l11 93h-1q-33 -49 -75 -75t-83 -26q-83 0 -125.5 55.5t-42.5 142.5q0 121 67.5 213.5t172.5 92.5q82 0 129 -47h2zM228 89
q54 0 104 67.5t64 175.5l2 18q-46 46 -111 46q-61 0 -99 -64t-38 -144q0 -46 20 -72.5t58 -26.5z" />
    <glyph glyph-name="Aogonek" unicode="&#x104;" 
d="M587 0q-40 -8 -66.5 -33.5t-26.5 -53.5q0 -30 28 -30q26 0 40 8l2 -68q-23 -11 -69 -11q-92 0 -92 75q0 31 19 62t49 52l-29 153h-255l-67 -154h-124l324 710h123l150 -710h-6zM231 257h192l-58 305h-2z" />
    <glyph glyph-name="aogonek" unicode="&#x105;" horiz-adv-x="562" 
d="M415 488h109l-60 -488h-3q-40 -8 -66.5 -33.5t-26.5 -53.5q0 -30 28 -30q26 0 40 8l2 -68q-23 -11 -69 -11q-92 0 -92 75q0 34 22.5 67.5t56.5 53.5l10 85h-1q-33 -49 -75 -75t-83 -26q-83 0 -125.5 55.5t-42.5 142.5q0 121 67.5 213.5t172.5 92.5q82 0 129 -47h2z
M228 89q54 0 104 67.5t64 175.5l2 18q-46 46 -111 46q-61 0 -99 -64t-38 -144q0 -46 20 -72.5t58 -26.5z" />
    <glyph glyph-name="Cacute" unicode="&#x106;" horiz-adv-x="679" 
d="M507 931l121 1l-129 -145h-111zM614 113q-109 -121 -261 -121q-127 0 -206.5 77t-79.5 220q0 180 103.5 304.5t265.5 124.5q155 0 246 -148l-100 -70q-55 106 -151 106q-106 0 -173.5 -94.5t-67.5 -222.5q0 -87 44 -136t124 -49q46 0 91 23.5t77 62.5z" />
    <glyph glyph-name="cacute" unicode="&#x107;" horiz-adv-x="492" 
d="M364 700l121 1l-129 -145h-111zM243 -7q-94 0 -148 53t-54 154q0 124 70.5 210t187.5 86q122 0 178 -82l-86 -64q-31 46 -95 46q-63 0 -103.5 -54t-40.5 -133q0 -59 27.5 -87.5t68.5 -28.5q61 0 110 52l86 -62q-87 -90 -201 -90z" />
    <glyph glyph-name="Ccircumflex" unicode="&#x108;" horiz-adv-x="679" 
d="M472 861l-55 -76h-110l118 147h104l87 -147h-106l-36 76h-2zM358 104q46 0 91 23.5t77 62.5l88 -77q-109 -121 -261 -121q-127 0 -206.5 77t-79.5 220q0 180 103.5 304.5t265.5 124.5q155 0 246 -148l-100 -70q-55 106 -151 106q-106 0 -173.5 -94.5t-67.5 -222.5
q0 -87 44 -136t124 -49z" />
    <glyph glyph-name="ccircumflex" unicode="&#x109;" horiz-adv-x="492" 
d="M332 630l-55 -76h-110l118 147h104l87 -147h-106l-36 76h-2zM248 93q61 0 110 52l86 -62q-87 -90 -201 -90q-94 0 -148 53t-54 154q0 124 70.5 210t187.5 86q122 0 178 -82l-86 -64q-31 46 -95 46q-63 0 -103.5 -54t-40.5 -133q0 -59 27.5 -87.5t68.5 -28.5z" />
    <glyph glyph-name="Cdotaccent" unicode="&#x10a;" horiz-adv-x="679" 
d="M476 938q31 0 51.5 -20t20.5 -51q0 -32 -21.5 -53t-53.5 -21q-31 0 -51 20.5t-20 50.5q0 32 21 53t53 21zM614 113q-109 -121 -261 -121q-127 0 -206.5 77t-79.5 220q0 180 103.5 304.5t265.5 124.5q155 0 246 -148l-100 -70q-55 106 -151 106q-106 0 -173.5 -94.5
t-67.5 -222.5q0 -87 44 -136t124 -49q46 0 91 23.5t77 62.5z" />
    <glyph glyph-name="cdotaccent" unicode="&#x10b;" horiz-adv-x="492" 
d="M336 707q31 0 51.5 -20t20.5 -51q0 -32 -21.5 -53t-53.5 -21q-31 0 -51 20.5t-20 50.5q0 32 21 53t53 21zM243 -7q-94 0 -148 53t-54 154q0 124 70.5 210t187.5 86q122 0 178 -82l-86 -64q-31 46 -95 46q-63 0 -103.5 -54t-40.5 -133q0 -59 27.5 -87.5t68.5 -28.5
q61 0 110 52l86 -62q-87 -90 -201 -90z" />
    <glyph glyph-name="Ccaron" unicode="&#x10c;" horiz-adv-x="679" 
d="M516 785h-104l-85 147h106l35 -77h3l55 77h110zM358 104q46 0 91 23.5t77 62.5l88 -77q-109 -121 -261 -121q-127 0 -206.5 77t-79.5 220q0 180 103.5 304.5t265.5 124.5q155 0 246 -148l-100 -70q-55 106 -151 106q-106 0 -173.5 -94.5t-67.5 -222.5q0 -87 44 -136
t124 -49z" />
    <glyph glyph-name="ccaron" unicode="&#x10d;" horiz-adv-x="492" 
d="M376 554h-104l-85 147h106l35 -77h3l55 77h110zM296 396q-63 0 -103.5 -54t-40.5 -133q0 -59 27.5 -87.5t68.5 -28.5q61 0 110 52l86 -62q-87 -90 -201 -90q-94 0 -148 53t-54 154q0 124 70.5 210t187.5 86q122 0 178 -82l-86 -64q-31 46 -95 46z" />
    <glyph glyph-name="Dcaron" unicode="&#x10e;" horiz-adv-x="693" 
d="M465 785h-104l-85 147h106l35 -77h3l55 77h110zM361 710q142 0 216.5 -77.5t74.5 -215.5q0 -190 -101 -303.5t-274 -113.5h-215l87 710h212zM289 106q109 0 174.5 87t65.5 224q0 86 -46 136.5t-131 50.5h-98l-61 -498h96z" />
    <glyph glyph-name="dcaron" unicode="&#x10f;" horiz-adv-x="626" 
d="M651 781h113l-82 -198h-83zM415 447l35 289h110l-91 -736h-110l12 92h-3q-68 -100 -160 -100q-83 0 -125.5 55.5t-42.5 142.5q0 121 67.5 213.5t172.5 92.5q84 0 133 -49h2zM229 89q56 0 107 67.5t64 175.5v-2l3 23q-40 43 -115 43q-61 0 -99 -64t-38 -144
q0 -46 20 -72.5t58 -26.5z" />
    <glyph glyph-name="Dcroat" unicode="&#x110;" horiz-adv-x="690" 
d="M363 710q142 0 216.5 -77.5t74.5 -215.5q0 -190 -101 -303.5t-274 -113.5h-215l37 302h-58l13 101h57l38 307h212zM291 106q109 0 174.5 87t65.5 224q0 86 -46 136.5t-131 50.5h-98l-25 -201h98l-13 -101h-97l-24 -196h96z" />
    <glyph glyph-name="dcroat" unicode="&#x111;" horiz-adv-x="551" 
d="M601 637l-10 -75h-53l-69 -562h-110l12 92h-3q-68 -100 -160 -100q-83 0 -125.5 55.5t-42.5 142.5q0 121 67.5 213.5t172.5 92.5q84 0 133 -49h2l14 115h-98l9 75h98l12 99h110l-12 -99h53zM229 89q56 0 107 67.5t64 175.5v-2l3 23q-40 43 -115 43q-61 0 -99 -64
t-38 -144q0 -46 20 -72.5t58 -26.5z" />
    <glyph glyph-name="Emacron" unicode="&#x112;" horiz-adv-x="575" 
d="M245 908h274l-11 -92h-274zM502 106l-13 -106h-427l87 710h409l-14 -106h-291l-24 -199h235l-13 -106h-235l-24 -193h310z" />
    <glyph glyph-name="emacron" unicode="&#x113;" horiz-adv-x="479" 
d="M461 677l-11 -92h-274l11 92h274zM454 363q0 -59 -45 -102t-108.5 -64t-146.5 -31l-2 -1q9 -35 34 -53.5t57 -18.5q60 0 111 52l86 -62q-46 -46 -90.5 -68t-110.5 -22q-92 0 -145 54t-53 149q0 125 69 212.5t187 87.5q65 0 111 -35.5t46 -97.5zM292 396
q-44 0 -83.5 -34.5t-53.5 -101.5l1 -1q187 24 187 99q0 38 -51 38z" />
    <glyph glyph-name="Ebreve" unicode="&#x114;" horiz-adv-x="575" 
d="M371 782q-63 0 -101 39t-32 107h85q-7 -69 49 -69q28 0 48 19.5t26 49.5h85q-13 -67 -55.5 -106.5t-104.5 -39.5zM502 106l-13 -106h-427l87 710h409l-14 -106h-291l-24 -199h235l-13 -106h-235l-24 -193h310z" />
    <glyph glyph-name="ebreve" unicode="&#x115;" horiz-adv-x="479" 
d="M313 551q-63 0 -101 39t-32 107h85q-7 -69 49 -69q28 0 48 19.5t26 49.5h85q-13 -67 -55.5 -106.5t-104.5 -39.5zM454 363q0 -59 -45 -102t-108.5 -64t-146.5 -31l-2 -1q9 -35 34 -53.5t57 -18.5q60 0 111 52l86 -62q-46 -46 -90.5 -68t-110.5 -22q-92 0 -145 54t-53 149
q0 125 69 212.5t187 87.5q65 0 111 -35.5t46 -97.5zM292 396q-44 0 -83.5 -34.5t-53.5 -101.5l1 -1q187 24 187 99q0 38 -51 38z" />
    <glyph glyph-name="Edotaccent" unicode="&#x116;" horiz-adv-x="575" 
d="M380 938q31 0 51.5 -20t20.5 -51q0 -32 -21.5 -53t-53.5 -21q-31 0 -51 20.5t-20 50.5q0 32 21 53t53 21zM502 106l-13 -106h-427l87 710h409l-14 -106h-291l-24 -199h235l-13 -106h-235l-24 -193h310z" />
    <glyph glyph-name="edotaccent" unicode="&#x117;" horiz-adv-x="479" 
d="M319 562q-31 0 -51 20.5t-20 50.5q0 32 21 53t53 21q31 0 51.5 -20t20.5 -51q0 -32 -21.5 -53t-53.5 -21zM243 93q60 0 111 52l86 -62q-46 -46 -90.5 -68t-110.5 -22q-92 0 -145 54t-53 149q0 125 69 212.5t187 87.5q65 0 111 -35.5t46 -97.5q0 -59 -45 -102t-108.5 -64
t-146.5 -31l-2 -1q9 -35 34 -53.5t57 -18.5zM292 396q-44 0 -83.5 -34.5t-53.5 -101.5l1 -1q187 24 187 99q0 38 -51 38z" />
    <glyph glyph-name="Eogonek" unicode="&#x118;" horiz-adv-x="575" 
d="M544 604h-291l-24 -199h235l-13 -106h-235l-24 -193h310l-13 -106h-3q-40 -8 -66.5 -33.5t-26.5 -53.5q0 -30 28 -30q26 0 40 8l2 -68q-23 -11 -69 -11q-92 0 -92 75q0 31 18.5 61t47.5 51v1h-306l87 710h409z" />
    <glyph glyph-name="eogonek" unicode="&#x119;" horiz-adv-x="479" 
d="M243 93q60 0 111 52l86 -62q-60 -61 -119 -79h1q-43 -13 -70.5 -38.5t-27.5 -52.5q0 -30 32 -30q20 0 36 8l1 -68q-23 -11 -68 -11q-92 0 -92 75q0 61 59 108v2q-71 13 -111 65t-40 134q0 125 69 212.5t187 87.5q65 0 111 -35.5t46 -97.5q0 -59 -45 -102t-108.5 -64
t-146.5 -31l-2 -1q9 -35 34 -53.5t57 -18.5zM292 396q-44 0 -83.5 -34.5t-53.5 -101.5l1 -1q187 24 187 99q0 38 -51 38z" />
    <glyph glyph-name="Ecaron" unicode="&#x11a;" horiz-adv-x="575" 
d="M420 785h-104l-85 147h106l35 -77h3l55 77h110zM544 604h-291l-24 -199h235l-13 -106h-235l-24 -193h310l-13 -106h-427l87 710h409z" />
    <glyph glyph-name="ecaron" unicode="&#x11b;" horiz-adv-x="479" 
d="M362 554h-104l-85 147h106l35 -77h3l55 77h110zM454 363q0 -59 -45 -102t-108.5 -64t-146.5 -31l-2 -1q9 -35 34 -53.5t57 -18.5q60 0 111 52l86 -62q-46 -46 -90.5 -68t-110.5 -22q-92 0 -145 54t-53 149q0 125 69 212.5t187 87.5q65 0 111 -35.5t46 -97.5zM292 396
q-44 0 -83.5 -34.5t-53.5 -101.5l1 -1q187 24 187 99q0 38 -51 38z" />
    <glyph glyph-name="Gcircumflex" unicode="&#x11c;" horiz-adv-x="707" 
d="M459 861l-55 -76h-110l118 147h104l87 -147h-106l-36 76h-2zM372 272l14 106h266l-35 -298q-49 -41 -119 -64.5t-142 -23.5q-129 0 -209 76.5t-80 220.5q0 178 103.5 303.5t260.5 125.5q162 0 243 -122l-98 -72q-52 82 -150 82q-101 0 -168 -91.5t-67 -222.5
q0 -91 44.5 -141.5t125.5 -50.5q75 0 143 48l17 124h-149z" />
    <glyph glyph-name="gcircumflex" unicode="&#x11d;" horiz-adv-x="563" 
d="M337 630l-55 -76h-110l118 147h104l87 -147h-106l-36 76h-2zM417 488h109l-52 -427q-10 -79 -35 -133.5t-63.5 -82.5t-81 -39.5t-96.5 -11.5q-91 0 -165 48l36 95q67 -43 134 -43q71 0 110 36.5t52 138.5l6 44h-3q-33 -52 -75.5 -78.5t-84.5 -26.5q-83 0 -125 55.5
t-42 142.5q0 111 67.5 200.5t171.5 89.5q83 0 130 -47h2zM229 105q51 0 100 60t66 151l4 33q-45 47 -110 47q-61 0 -99 -61.5t-38 -130.5q0 -46 20 -72.5t57 -26.5z" />
    <glyph glyph-name="Gbreve" unicode="&#x11e;" horiz-adv-x="707" 
d="M454 782q-63 0 -101 39t-32 107h85q-7 -69 49 -69q28 0 48 19.5t26 49.5h85q-13 -67 -55.5 -106.5t-104.5 -39.5zM652 378l-35 -298q-49 -41 -119 -64.5t-142 -23.5q-129 0 -209 76.5t-80 220.5q0 178 103.5 303.5t260.5 125.5q162 0 243 -122l-98 -72q-52 82 -150 82
q-101 0 -168 -91.5t-67 -222.5q0 -91 44.5 -141.5t125.5 -50.5q75 0 143 48l17 124h-149l14 106h266z" />
    <glyph glyph-name="gbreve" unicode="&#x11f;" horiz-adv-x="563" 
d="M332 551q-63 0 -101 39t-32 107h85q-7 -69 49 -69q28 0 48 19.5t26 49.5h85q-13 -67 -55.5 -106.5t-104.5 -39.5zM417 488h109l-52 -427q-10 -79 -35 -133.5t-63.5 -82.5t-81 -39.5t-96.5 -11.5q-91 0 -165 48l36 95q67 -43 134 -43q71 0 110 36.5t52 138.5l6 44h-3
q-33 -52 -75.5 -78.5t-84.5 -26.5q-83 0 -125 55.5t-42 142.5q0 111 67.5 200.5t171.5 89.5q83 0 130 -47h2zM229 105q51 0 100 60t66 151l4 33q-45 47 -110 47q-61 0 -99 -61.5t-38 -130.5q0 -46 20 -72.5t57 -26.5z" />
    <glyph glyph-name="Gdotaccent" unicode="&#x120;" horiz-adv-x="707" 
d="M463 938q31 0 51.5 -20t20.5 -51q0 -32 -21.5 -53t-53.5 -21q-31 0 -51 20.5t-20 50.5q0 32 21 53t53 21zM652 378l-35 -298q-49 -41 -119 -64.5t-142 -23.5q-129 0 -209 76.5t-80 220.5q0 178 103.5 303.5t260.5 125.5q162 0 243 -122l-98 -72q-52 82 -150 82
q-101 0 -168 -91.5t-67 -222.5q0 -91 44.5 -141.5t125.5 -50.5q75 0 143 48l17 124h-149l14 106h266z" />
    <glyph glyph-name="gdotaccent" unicode="&#x121;" horiz-adv-x="563" 
d="M338 562q-31 0 -51 20.5t-20 50.5q0 32 21 53t53 21q31 0 51.5 -20t20.5 -51q0 -32 -21.5 -53t-53.5 -21zM417 488h109l-52 -427q-10 -79 -35 -133.5t-63.5 -82.5t-81 -39.5t-96.5 -11.5q-91 0 -165 48l36 95q67 -43 134 -43q71 0 110 36.5t52 138.5l6 44h-3
q-33 -52 -75.5 -78.5t-84.5 -26.5q-83 0 -125 55.5t-42 142.5q0 111 67.5 200.5t171.5 89.5q83 0 130 -47h2zM229 105q51 0 100 60t66 151l4 33q-45 47 -110 47q-61 0 -99 -61.5t-38 -130.5q0 -46 20 -72.5t57 -26.5z" />
    <glyph glyph-name="Gcommaaccent" unicode="&#x122;" horiz-adv-x="707" 
d="M372 272l14 106h266l-35 -298q-49 -41 -119 -64.5t-142 -23.5q-129 0 -209 76.5t-80 220.5q0 178 103.5 303.5t260.5 125.5q162 0 243 -122l-98 -72q-52 82 -150 82q-101 0 -168 -91.5t-67 -222.5q0 -91 44.5 -141.5t125.5 -50.5q75 0 143 48l17 124h-149zM297 -77
q0 4 -2 24h98v-22q0 -62 -36 -99.5t-103 -44.5l-16 65q32 12 45.5 29t13.5 48z" />
    <glyph glyph-name="gcommaaccent" unicode="&#x123;" horiz-adv-x="563" 
d="M381 583q0 -4 2 -24h-98v22q0 62 36 99.5t103 44.5l16 -65q-32 -12 -45.5 -29t-13.5 -48zM417 488h109l-52 -427q-10 -79 -35 -133.5t-63.5 -82.5t-81 -39.5t-96.5 -11.5q-91 0 -165 48l36 95q67 -43 134 -43q71 0 110 36.5t52 138.5l6 44h-3q-33 -52 -75.5 -78.5
t-84.5 -26.5q-83 0 -125 55.5t-42 142.5q0 111 67.5 200.5t171.5 89.5q83 0 130 -47h2zM229 105q51 0 100 60t66 151l4 33q-45 47 -110 47q-61 0 -99 -61.5t-38 -130.5q0 -46 20 -72.5t57 -26.5z" />
    <glyph glyph-name="Hcircumflex" unicode="&#x124;" horiz-adv-x="699" 
d="M427 861l-55 -76h-110l118 147h104l87 -147h-106l-36 76h-2zM547 710h118l-87 -710h-119l36 286h-280l-35 -286h-118l87 710h118l-39 -318h280z" />
    <glyph glyph-name="hcircumflex" unicode="&#x125;" horiz-adv-x="561" 
d="M352 871l-55 -76h-110l118 147h104l87 -147h-106l-36 76h-2zM383 495q77 0 106 -49.5t15 -151.5l-40 -294h-110l39 285q8 56 -2 83.5t-45 27.5q-49 0 -103 -64.5t-65 -152.5l-22 -179h-110l91 736h109l-41 -333h3q74 92 175 92z" />
    <glyph glyph-name="Hbar" unicode="&#x126;" horiz-adv-x="706" 
d="M695 593l-9 -75h-42l-63 -518h-119l36 286h-280l-35 -286h-118l63 518h-45l9 75h46l14 117h118l-14 -117h280l14 117h118l-14 -117h41zM511 392l15 126h-280l-15 -126h280z" />
    <glyph glyph-name="hbar" unicode="&#x127;" horiz-adv-x="561" 
d="M383 495q77 0 106 -49.5t15 -151.5l-40 -294h-110l39 285q8 56 -2 83.5t-45 27.5q-49 0 -103 -64.5t-65 -152.5l-22 -179h-110l69 562h-76l9 75h77l12 99h109l-12 -99h74l-9 -75h-74l-20 -159h3q74 92 175 92z" />
    <glyph glyph-name="Itilde" unicode="&#x128;" horiz-adv-x="311" 
d="M50 820q45 107 118 107q14 0 26 -3.5t17.5 -6.5t17 -11t12.5 -9q33 -23 47 -23q37 0 60 53l68 -26q-20 -55 -50.5 -85.5t-65.5 -30.5q-10 0 -19.5 2t-18.5 6.5t-14 7.5t-13.5 8.5t-10.5 7.5q-29 22 -46 22q-36 0 -60 -54zM185 0h-119l87 710h119z" />
    <glyph glyph-name="itilde" unicode="&#x129;" horiz-adv-x="258" 
d="M16 589q42 107 110 107q13 0 24.5 -3.5t16.5 -6.5t16 -11t12 -9q31 -23 43 -23q34 0 57 53l63 -26q-41 -116 -108 -116q-8 0 -16 2t-13.5 4t-13 6t-10.5 6.5t-10 7.5t-8 6q-27 22 -43 22q-32 0 -57 -54zM104 488h110l-60 -488h-110z" />
    <glyph glyph-name="Imacron" unicode="&#x12a;" horiz-adv-x="311" 
d="M99 908h274l-11 -92h-274zM185 0h-119l87 710h119z" />
    <glyph glyph-name="imacron" unicode="&#x12b;" horiz-adv-x="258" 
d="M48 677h274l-11 -92h-274zM104 488h110l-60 -488h-110z" />
    <glyph glyph-name="Ibreve" unicode="&#x12c;" horiz-adv-x="311" 
d="M225 782q-63 0 -101 39t-32 107h85q-7 -69 49 -69q28 0 48 19.5t26 49.5h85q-13 -67 -55.5 -106.5t-104.5 -39.5zM185 0h-119l87 710h119z" />
    <glyph glyph-name="ibreve" unicode="&#x12d;" horiz-adv-x="258" 
d="M176 551q-56 0 -89 39t-28 107h81q-4 -32 6 -50.5t33 -18.5q24 0 39 19.5t16 49.5h85q-11 -67 -49 -106.5t-94 -39.5zM104 488h110l-60 -488h-110z" />
    <glyph glyph-name="Iogonek" unicode="&#x12e;" horiz-adv-x="311" 
d="M153 710h119l-87 -710h-2q-40 -8 -66.5 -33.5t-26.5 -53.5q0 -30 28 -30q26 0 40 8l2 -68q-23 -11 -69 -11q-92 0 -92 75q0 65 67 113z" />
    <glyph glyph-name="iogonek" unicode="&#x12f;" horiz-adv-x="258" 
d="M183 707q31 0 51.5 -20t20.5 -51q0 -32 -21.5 -53t-53.5 -21q-31 0 -51 20.5t-20 50.5q0 32 21 53t53 21zM45 8l59 480h110l-60 -488h-3q-40 -8 -66.5 -33.5t-26.5 -53.5q0 -30 28 -30q26 0 40 8l2 -68q-23 -11 -69 -11q-92 0 -92 75q0 34 22 67t56 54z" />
    <glyph glyph-name="Idotaccent" unicode="&#x130;" horiz-adv-x="311" 
d="M234 938q31 0 51.5 -20t20.5 -51q0 -32 -21.5 -53t-53.5 -21q-31 0 -51 20.5t-20 50.5q0 32 21 53t53 21zM185 0h-119l87 710h119z" />
    <glyph glyph-name="dotlessi" unicode="&#x131;" horiz-adv-x="258" 
d="M104 488h110l-60 -488h-110z" />
    <glyph glyph-name="IJ" unicode="&#x132;" horiz-adv-x="796" 
d="M185 0h-119l87 710h119zM406 166q37 -62 83 -62q91 0 111 159l55 447h119l-56 -453q-16 -131 -71 -198t-158 -67q-49 0 -93.5 24t-71.5 68z" />
    <glyph glyph-name="ij" unicode="&#x133;" horiz-adv-x="498" 
d="M183 707q31 0 51.5 -20t20.5 -51q0 -32 -21.5 -53t-53.5 -21q-31 0 -51 20.5t-20 50.5q0 32 21 53t53 21zM426 707q31 0 51.5 -20t20.5 -51q0 -32 -21.5 -53t-53.5 -21q-31 0 -51 20.5t-20 50.5q0 32 21 53t53 21zM104 488h110l-60 -488h-110zM185 -96q19 -15 44 -15
q24 0 37.5 21t18.5 69l63 509h110l-65 -524q-20 -169 -147 -169q-51 0 -89 23z" />
    <glyph glyph-name="Jcircumflex" unicode="&#x134;" horiz-adv-x="485" 
d="M421 861l-55 -76h-110l118 147h104l87 -147h-106l-36 76h-2zM289 263l55 447h119l-56 -453q-16 -131 -71 -198t-158 -67q-49 0 -93.5 24t-71.5 68l82 82q37 -62 83 -62q91 0 111 159z" />
    <glyph glyph-name="jcircumflex" unicode="&#x135;" horiz-adv-x="240" 
d="M221 701l87 -147h-106l-36 76h-2l-55 -76h-110l118 147h104zM27 -21l63 509h110l-65 -524q-20 -169 -147 -169q-51 0 -89 23l28 86q19 -15 44 -15q24 0 37.5 21t18.5 69z" />
    <glyph glyph-name="Kcommaaccent" unicode="&#x136;" horiz-adv-x="628" 
d="M658 710l-277 -316l196 -394h-143l-141 291h-2l-88 -101l-23 -190h-118l87 710h118l-41 -332h2l278 332h152zM240 -77q0 4 -2 24h98v-22q0 -62 -36 -99.5t-103 -44.5l-16 65q32 12 45.5 29t13.5 48z" />
    <glyph glyph-name="kcommaaccent" unicode="&#x137;" horiz-adv-x="519" 
d="M376 172q20 -51 38.5 -69t51.5 -25l-32 -84q-16 -2 -23 -2q-23 0 -41 8.5t-29 17t-24.5 33.5t-19.5 38.5t-22 52.5l-10 24h-2q-46 -32 -98 -56l-13 -110h-109l91 736h109l-62 -508h1q152 93 202 260h111q-28 -136 -145 -251zM184 -77q0 4 -2 24h98v-22q0 -62 -36 -99.5
t-103 -44.5l-16 65q32 12 45.5 29t13.5 48z" />
    <glyph glyph-name="kgreenlandic" unicode="&#x138;" horiz-adv-x="519" 
d="M376 172q20 -51 38.5 -69t51.5 -25l-32 -84q-16 -2 -23 -2q-23 0 -41 8.5t-29 17t-24.5 33.5t-19.5 38.5t-22 52.5l-10 24h-2q-46 -32 -98 -56l-13 -110h-109l61 488h108l-31 -260h1q152 93 202 260h111q-28 -136 -145 -251z" />
    <glyph glyph-name="Lacute" unicode="&#x139;" horiz-adv-x="546" 
d="M394 931l121 1l-129 -145h-111zM486 106l-13 -106h-411l87 710h118l-74 -604h293z" />
    <glyph glyph-name="lacute" unicode="&#x13a;" horiz-adv-x="255" 
d="M273 944l121 1l-129 -145h-111zM140 736h110l-91 -736h-109z" />
    <glyph glyph-name="Lcommaaccent" unicode="&#x13b;" horiz-adv-x="546" 
d="M193 106h293l-13 -106h-411l87 710h118zM210 -77q0 4 -2 24h98v-22q0 -62 -36 -99.5t-103 -44.5l-16 65q32 12 45.5 29t13.5 48z" />
    <glyph glyph-name="lcommaaccent" unicode="&#x13c;" horiz-adv-x="255" 
d="M140 736h110l-91 -736h-109zM50 -77q0 4 -2 24h98v-22q0 -62 -36 -99.5t-103 -44.5l-16 65q32 12 45.5 29t13.5 48z" />
    <glyph glyph-name="Lcaron" unicode="&#x13d;" horiz-adv-x="546" 
d="M404 781h113l-82 -198h-83zM486 106l-13 -106h-411l87 710h118l-74 -604h293z" />
    <glyph glyph-name="lcaron" unicode="&#x13e;" horiz-adv-x="316" 
d="M342 781h112l-81 -198h-84zM140 736h110l-91 -736h-109z" />
    <glyph glyph-name="Ldot" unicode="&#x13f;" horiz-adv-x="546" 
d="M486 106l-13 -106h-411l87 710h118l-74 -604h293zM436 412q31 0 51.5 -20.5t20.5 -51.5q0 -32 -21.5 -53t-53.5 -21q-31 0 -51 20.5t-20 50.5q0 32 21 53.5t53 21.5z" />
    <glyph glyph-name="ldot" unicode="&#x140;" horiz-adv-x="445" 
d="M140 736h110l-91 -736h-109zM364 318q31 0 51.5 -20.5t20.5 -51.5q0 -32 -21.5 -53t-53.5 -21q-31 0 -51 20.5t-20 50.5q0 32 21 53.5t53 21.5z" />
    <glyph glyph-name="Lslash" unicode="&#x141;" horiz-adv-x="547" 
d="M194 106h293l-13 -106h-411l33 273l-72 -34l13 97l71 34l42 340h118l-34 -281l80 38l-12 -98l-80 -38z" />
    <glyph glyph-name="lslash" unicode="&#x142;" horiz-adv-x="288" 
d="M280 430l-12 -103l-61 -28l-37 -299h-109l30 245l-59 -27l13 103l59 27l47 388h110l-41 -334z" />
    <glyph glyph-name="Nacute" unicode="&#x143;" horiz-adv-x="722" 
d="M579 932l-129 -145h-111l119 144zM570 710h118l-88 -710h-129l-228 504h-2l-61 -504h-118l87 710h125l231 -513h1z" />
    <glyph glyph-name="nacute" unicode="&#x144;" horiz-adv-x="557" 
d="M472 701l-129 -145h-111l119 144zM380 496q77 0 106 -50t15 -152l-40 -294h-109l38 285q8 56 -2 83.5t-45 27.5q-48 0 -102.5 -63.5t-65.5 -150.5l-22 -182h-110l61 488h109l-11 -86h2q76 94 176 94z" />
    <glyph glyph-name="Ncommaaccent" unicode="&#x145;" horiz-adv-x="722" 
d="M570 710h118l-88 -710h-129l-228 504h-2l-61 -504h-118l87 710h125l231 -513h1zM282 -77q0 4 -2 24h98v-22q0 -62 -36 -99.5t-103 -44.5l-16 65q32 12 45.5 29t13.5 48z" />
    <glyph glyph-name="ncommaaccent" unicode="&#x146;" horiz-adv-x="557" 
d="M380 496q77 0 106 -50t15 -152l-40 -294h-109l38 285q8 56 -2 83.5t-45 27.5q-48 0 -102.5 -63.5t-65.5 -150.5l-22 -182h-110l61 488h109l-11 -86h2q76 94 176 94zM201 -77q0 4 -2 24h98v-22q0 -62 -36 -99.5t-103 -44.5l-16 65q32 12 45.5 29t13.5 48z" />
    <glyph glyph-name="Ncaron" unicode="&#x147;" horiz-adv-x="722" 
d="M488 785h-104l-85 147h106l35 -77h3l55 77h110zM570 710h118l-88 -710h-129l-228 504h-2l-61 -504h-118l87 710h125l231 -513h1z" />
    <glyph glyph-name="ncaron" unicode="&#x148;" horiz-adv-x="557" 
d="M382 554h-104l-85 147h106l35 -77h3l55 77h110zM380 496q77 0 106 -50t15 -152l-40 -294h-109l38 285q8 56 -2 83.5t-45 27.5q-48 0 -102.5 -63.5t-65.5 -150.5l-22 -182h-110l61 488h109l-11 -86h2q76 94 176 94z" />
    <glyph glyph-name="napostrophe" unicode="&#x149;" horiz-adv-x="669" 
d="M74 710h113l-82 -207h-83zM492 496q77 0 106 -50t15 -152l-40 -294h-109l38 285q8 56 -2 83.5t-45 27.5q-48 0 -102.5 -63.5t-65.5 -150.5l-22 -182h-110l61 488h109l-11 -86h2q76 94 176 94z" />
    <glyph glyph-name="Eng" unicode="&#x14a;" horiz-adv-x="722" 
d="M570 710h118l-92 -746q-20 -169 -156 -169q-50 0 -89 23l28 86q20 -15 44 -15t37 20.5t19 69.5v2l-236 523h-1l-62 -504h-118l87 710h125l231 -514h1z" />
    <glyph glyph-name="eng" unicode="&#x14b;" horiz-adv-x="538" 
d="M371 495q136 0 110 -201l-41 -330q-22 -169 -147 -169q-51 0 -89 23l27 86q20 -15 45 -15q24 0 37 20.5t19 69.5l38 307q9 52 0.5 81t-42.5 29q-40 0 -89.5 -61.5t-62.5 -145.5l-23 -189h-110l61 488h109l-10 -85h1q74 92 167 92z" />
    <glyph glyph-name="Omacron" unicode="&#x14c;" horiz-adv-x="765" 
d="M350 908h274l-11 -92h-274zM439 718q129 0 207.5 -79.5t78.5 -218.5q0 -115 -44 -211.5t-130 -156.5t-199 -60q-130 0 -207.5 79.5t-77.5 219.5q0 113 45.5 210t132 157t194.5 60zM361 102q103 0 172 94.5t69 220.5q0 95 -46.5 143.5t-129.5 48.5q-101 0 -168.5 -96
t-67.5 -219q0 -94 45.5 -143t125.5 -49z" />
    <glyph glyph-name="omacron" unicode="&#x14d;" horiz-adv-x="548" 
d="M196 677h274l-11 -92h-274zM300 496q95 0 151 -53t56 -149q0 -131 -69 -216.5t-192 -85.5q-95 0 -150 54.5t-55 151.5q0 123 71 210.5t188 87.5zM293 396q-62 0 -102 -56t-40 -129q0 -52 26.5 -85.5t71.5 -33.5q65 0 106 55.5t41 136.5q0 62 -31 87t-72 25z" />
    <glyph glyph-name="Obreve" unicode="&#x14e;" horiz-adv-x="765" 
d="M476 782q-63 0 -101 39t-32 107h85q-7 -69 49 -69q28 0 48 19.5t26 49.5h85q-13 -67 -55.5 -106.5t-104.5 -39.5zM439 718q129 0 207.5 -79.5t78.5 -218.5q0 -115 -44 -211.5t-130 -156.5t-199 -60q-130 0 -207.5 79.5t-77.5 219.5q0 113 45.5 210t132 157t194.5 60z
M361 102q103 0 172 94.5t69 220.5q0 95 -46.5 143.5t-129.5 48.5q-101 0 -168.5 -96t-67.5 -219q0 -94 45.5 -143t125.5 -49z" />
    <glyph glyph-name="obreve" unicode="&#x14f;" horiz-adv-x="548" 
d="M322 551q-63 0 -101 39t-32 107h85q-7 -69 49 -69q28 0 48 19.5t26 49.5h85q-13 -67 -55.5 -106.5t-104.5 -39.5zM300 496q95 0 151 -53t56 -149q0 -131 -69 -216.5t-192 -85.5q-95 0 -150 54.5t-55 151.5q0 123 71 210.5t188 87.5zM293 396q-62 0 -102 -56t-40 -129
q0 -52 26.5 -85.5t71.5 -33.5q65 0 106 55.5t41 136.5q0 62 -31 87t-72 25z" />
    <glyph glyph-name="Ohungarumlaut" unicode="&#x150;" horiz-adv-x="765" 
d="M435 931l116 1l-129 -145h-106zM618 931l116 1l-129 -145h-105zM439 718q129 0 207.5 -79.5t78.5 -218.5q0 -115 -44 -211.5t-130 -156.5t-199 -60q-130 0 -207.5 79.5t-77.5 219.5q0 113 45.5 210t132 157t194.5 60zM361 102q103 0 172 94.5t69 220.5q0 95 -46.5 143.5
t-129.5 48.5q-101 0 -168.5 -96t-67.5 -219q0 -94 45.5 -143t125.5 -49z" />
    <glyph glyph-name="ohungarumlaut" unicode="&#x151;" horiz-adv-x="555" 
d="M285 700l116 1l-129 -145h-106zM468 700l116 1l-129 -145h-105zM300 496q95 0 151 -53t56 -149q0 -131 -69 -216.5t-192 -85.5q-95 0 -150 54.5t-55 151.5q0 123 71 210.5t188 87.5zM293 396q-62 0 -102 -56t-40 -129q0 -52 26.5 -85.5t71.5 -33.5q65 0 106 55.5
t41 136.5q0 62 -31 87t-72 25z" />
    <glyph glyph-name="OE" unicode="&#x152;" horiz-adv-x="892" 
d="M862 604h-288l-25 -199h232l-13 -106h-231l-24 -193h306l-13 -106h-454q-130 0 -207.5 78t-77.5 213q0 114 46 209t133 152.5t198 57.5h431zM362 110h34l60 491h-26q-104 1 -172 -90.5t-68 -216.5q0 -89 46 -136.5t126 -47.5z" />
    <glyph glyph-name="oe" unicode="&#x153;" horiz-adv-x="732" 
d="M528 93q56 0 96 52l85 -62q-73 -90 -184 -90q-108 0 -160 78h-2q-65 -78 -161 -78q-83 0 -129 54t-46 144q0 126 66 215.5t178 89.5q95 0 137 -79h2q69 79 168 79q63 0 104 -32t41 -87q0 -166 -278 -217l-1 -1q9 -32 33 -49t51 -17zM212 93q50 0 87 57t37 140
q0 49 -19.5 77.5t-49.5 28.5q-54 0 -91.5 -60t-37.5 -137q0 -54 22 -80t52 -26zM566 396q-36 0 -73 -40t-49 -107l1 -1q77 18 122 48t45 67q0 13 -12 23t-34 10z" />
    <glyph glyph-name="Racute" unicode="&#x154;" horiz-adv-x="626" 
d="M525 932l-129 -145h-111l119 144zM424 273v-1l128 -272h-136l-113 255h-92l-31 -255h-118l87 710h244q101 0 147.5 -48.5t46.5 -142.5q0 -92 -41.5 -155.5t-121.5 -90.5zM254 604l-30 -243h98q66 0 104 41.5t38 116.5q0 39 -27 62t-71 23h-112z" />
    <glyph glyph-name="racute" unicode="&#x155;" horiz-adv-x="357" 
d="M392 701l-129 -145h-111l119 144zM204 399q68 94 161 96l-15 -125q-72 13 -117 -39t-58 -148l-22 -183h-110l61 488h109l-11 -89h2z" />
    <glyph glyph-name="Rcommaaccent" unicode="&#x156;" horiz-adv-x="626" 
d="M424 273v-1l128 -272h-136l-113 255h-92l-31 -255h-118l87 710h244q101 0 147.5 -48.5t46.5 -142.5q0 -92 -41.5 -155.5t-121.5 -90.5zM254 604l-30 -243h98q66 0 104 41.5t38 116.5q0 39 -27 62t-71 23h-112zM238 -77q0 4 -2 24h98v-22q0 -62 -36 -99.5t-103 -44.5
l-16 65q32 12 45.5 29t13.5 48z" />
    <glyph glyph-name="rcommaaccent" unicode="&#x157;" horiz-adv-x="356" 
d="M204 399q68 94 161 96l-15 -125q-72 13 -117 -39t-58 -148l-22 -183h-110l61 488h109l-11 -89h2zM43 -77q0 4 -2 24h98v-22q0 -62 -36 -99.5t-103 -44.5l-16 65q32 12 45.5 29t13.5 48z" />
    <glyph glyph-name="Rcaron" unicode="&#x158;" horiz-adv-x="626" 
d="M434 785h-104l-85 147h106l35 -77h3l55 77h110zM424 273v-1l128 -272h-136l-113 255h-92l-31 -255h-118l87 710h244q101 0 147.5 -48.5t46.5 -142.5q0 -92 -41.5 -155.5t-121.5 -90.5zM254 604l-30 -243h98q66 0 104 41.5t38 116.5q0 39 -27 62t-71 23h-112z" />
    <glyph glyph-name="rcaron" unicode="&#x159;" horiz-adv-x="356" 
d="M309 554h-104l-85 147h106l35 -77h3l55 77h110zM204 399q68 94 161 96l-15 -125q-72 13 -117 -39t-58 -148l-22 -183h-110l61 488h109l-11 -89h2z" />
    <glyph glyph-name="Sacute" unicode="&#x15a;" horiz-adv-x="564" 
d="M403 931l121 1l-129 -145h-111zM315 422q14 -8 46.5 -26t47 -27t38 -27t34.5 -33.5t19.5 -39.5t8.5 -52q0 -108 -68.5 -166.5t-173.5 -58.5q-77 0 -141 32.5t-98 87.5l87 80q21 -43 60.5 -67t83.5 -24q55 0 90.5 29t35.5 71q0 15 -4.5 26t-19 23t-23 18t-36 21t-39.5 22
q-2 1 -26.5 15.5t-29.5 17.5t-25.5 16t-26.5 19.5t-21 20t-20 23.5t-13.5 25t-11 30.5t-2.5 33.5q0 93 66.5 149.5t165.5 56.5q61 0 116 -27t92 -76l-86 -75q-48 71 -130 71q-45 0 -73.5 -25t-27.5 -60q1 -16 6.5 -28t23 -26t29.5 -22t46 -28z" />
    <glyph glyph-name="sacute" unicode="&#x15b;" horiz-adv-x="427" 
d="M298 700l121 1l-129 -145h-111zM85 147q45 -59 107 -59q33 0 55 13t22 35q0 17 -16.5 29t-56.5 30q-3 1 -5 2l-5 2.5t-6 2.5q-121 53 -121 144q0 66 49 108t120 42q107 0 170 -70l-73 -74q-39 49 -98 49q-26 0 -41.5 -12.5t-15.5 -33.5q0 -32 80 -70l30 -15t27.5 -15.5
t29 -20.5t20.5 -22t18 -29.5t5 -33.5q1 -75 -50.5 -116t-137.5 -41q-54 0 -104 23t-75 61z" />
    <glyph glyph-name="Scircumflex" unicode="&#x15c;" horiz-adv-x="564" 
d="M348 861l-55 -76h-110l118 147h104l87 -147h-106l-36 76h-2zM315 422q14 -8 46.5 -26t47 -27t38 -27t34.5 -33.5t19.5 -39.5t8.5 -52q0 -108 -68.5 -166.5t-173.5 -58.5q-77 0 -141 32.5t-98 87.5l87 80q21 -43 60.5 -67t83.5 -24q55 0 90.5 29t35.5 71q0 15 -4.5 26
t-19 23t-23 18t-36 21t-39.5 22q-2 1 -26.5 15.5t-29.5 17.5t-25.5 16t-26.5 19.5t-21 20t-20 23.5t-13.5 25t-11 30.5t-2.5 33.5q0 93 66.5 149.5t165.5 56.5q61 0 116 -27t92 -76l-86 -75q-48 71 -130 71q-45 0 -73.5 -25t-27.5 -60q1 -16 6.5 -28t23 -26t29.5 -22t46 -28
z" />
    <glyph glyph-name="scircumflex" unicode="&#x15d;" horiz-adv-x="427" 
d="M263 630l-55 -76h-110l118 147h104l87 -147h-106l-36 76h-2zM227 401q-26 0 -41.5 -12.5t-15.5 -33.5q0 -32 80 -70l30 -15t27.5 -15.5t29 -20.5t20.5 -22t18 -29.5t5 -33.5q1 -75 -50.5 -116t-137.5 -41q-54 0 -104 23t-75 61l72 71q45 -59 107 -59q33 0 55 13t22 35
q0 17 -16.5 29t-56.5 30q-3 1 -5 2l-5 2.5t-6 2.5q-121 53 -121 144q0 66 49 108t120 42q107 0 170 -70l-73 -74q-39 49 -98 49z" />
    <glyph glyph-name="Scedilla" unicode="&#x15e;" horiz-adv-x="564" 
d="M315 422q14 -8 46.5 -26t47 -27t38 -27t34.5 -33.5t19.5 -39.5t8.5 -52q0 -108 -68.5 -166.5t-173.5 -58.5h-1l-15 -23l1 -1q75 -3 75 -66q0 -38 -32.5 -65t-82.5 -27q-31 0 -57 6l3 54q13 -6 43 -6q52 0 52 37q0 27 -69 27l2 36l19 34q-57 11 -103.5 41t-73.5 73l87 80
q21 -43 60.5 -67t83.5 -24q55 0 90.5 29t35.5 71q0 15 -4.5 26t-19 23t-23 18t-36 21t-39.5 22q-2 1 -26.5 15.5t-29.5 17.5t-25.5 16t-26.5 19.5t-21 20t-20 23.5t-13.5 25t-11 30.5t-2.5 33.5q0 93 66.5 149.5t165.5 56.5q61 0 116 -27t92 -76l-86 -75q-48 71 -130 71
q-45 0 -73.5 -25t-27.5 -60q1 -16 6.5 -28t23 -26t29.5 -22t46 -28z" />
    <glyph glyph-name="scedilla" unicode="&#x15f;" horiz-adv-x="427" 
d="M250 285l30 -15t27.5 -15.5t29 -20.5t20.5 -22t18 -29.5t5 -33.5q1 -75 -50.5 -116t-137.5 -41h-3l-15 -23l1 -1q75 -3 75 -66q0 -38 -32.5 -65t-82.5 -27q-31 0 -57 6l3 54q13 -6 43 -6q52 0 52 37q0 27 -69 27l2 36l21 36q-81 21 -117 76l72 71q45 -59 107 -59
q33 0 55 13t22 35q0 17 -16.5 29t-56.5 30q-3 1 -5 2l-5 2.5t-6 2.5q-121 53 -121 144q0 66 49 108t120 42q107 0 170 -70l-73 -74q-39 49 -98 49q-26 0 -41.5 -12.5t-15.5 -33.5q0 -32 80 -70z" />
    <glyph glyph-name="Scaron" unicode="&#x160;" horiz-adv-x="564" 
d="M392 785h-104l-85 147h106l35 -77h3l55 77h110zM315 422q14 -8 46.5 -26t47 -27t38 -27t34.5 -33.5t19.5 -39.5t8.5 -52q0 -108 -68.5 -166.5t-173.5 -58.5q-77 0 -141 32.5t-98 87.5l87 80q21 -43 60.5 -67t83.5 -24q55 0 90.5 29t35.5 71q0 15 -4.5 26t-19 23t-23 18
t-36 21t-39.5 22q-2 1 -26.5 15.5t-29.5 17.5t-25.5 16t-26.5 19.5t-21 20t-20 23.5t-13.5 25t-11 30.5t-2.5 33.5q0 93 66.5 149.5t165.5 56.5q61 0 116 -27t92 -76l-86 -75q-48 71 -130 71q-45 0 -73.5 -25t-27.5 -60q1 -16 6.5 -28t23 -26t29.5 -22t46 -28z" />
    <glyph glyph-name="scaron" unicode="&#x161;" horiz-adv-x="427" 
d="M307 554h-104l-85 147h106l35 -77h3l55 77h110zM227 401q-26 0 -41.5 -12.5t-15.5 -33.5q0 -32 80 -70l30 -15t27.5 -15.5t29 -20.5t20.5 -22t18 -29.5t5 -33.5q1 -75 -50.5 -116t-137.5 -41q-54 0 -104 23t-75 61l72 71q45 -59 107 -59q33 0 55 13t22 35q0 17 -16.5 29
t-56.5 30q-3 1 -5 2l-5 2.5t-6 2.5q-121 53 -121 144q0 66 49 108t120 42q107 0 170 -70l-73 -74q-39 49 -98 49z" />
    <glyph glyph-name="uni0162" unicode="&#x162;" horiz-adv-x="546" 
d="M90 710h480l-13 -106h-181l-74 -604h-47l-20 -31l1 -1q75 -3 75 -66q0 -38 -32.5 -65t-82.5 -27q-31 0 -57 6l3 54q13 -6 43 -6q52 0 52 37q0 27 -69 27l2 36l21 36h-7l74 604h-180z" />
    <glyph glyph-name="uni0163" unicode="&#x163;" horiz-adv-x="338" 
d="M204 395l-30 -240q-7 -58 33 -58q28 0 70 25l15 -96q-56 -34 -122 -34l-15 -23l1 -1q75 -3 75 -66q0 -38 -32.5 -65t-82.5 -27q-31 0 -57 6l3 54q13 -6 43 -6q52 0 52 37q0 27 -69 27l2 36l23 40q-62 30 -51 131l32 260h-52l11 93h52l20 152l111 22l-21 -174h119l-11 -93
h-119z" />
    <glyph glyph-name="Tcaron" unicode="&#x164;" horiz-adv-x="546" 
d="M392 785h-104l-85 147h106l35 -77h3l55 77h110zM90 710h480l-13 -106h-181l-74 -604h-118l74 604h-180z" />
    <glyph glyph-name="tcaron" unicode="&#x165;" horiz-adv-x="352" 
d="M334 781h112l-81 -198h-83zM277 122l15 -96q-56 -34 -123 -34q-61 0 -88 38.5t-19 104.5l32 260h-52l11 93h52l20 152l111 22l-21 -174h119l-11 -93h-119l-30 -240q-7 -58 33 -58q28 0 70 25z" />
    <glyph glyph-name="Tbar" unicode="&#x166;" horiz-adv-x="546" 
d="M557 604h-181l-25 -201h110l-13 -101h-109l-37 -302h-118l37 302h-98l13 101h97l25 201h-180l12 106h480z" />
    <glyph glyph-name="tbar" unicode="&#x167;" horiz-adv-x="338" 
d="M323 395h-119l-11 -92h99l-10 -75h-99l-9 -73q-7 -58 33 -58q28 0 70 25l15 -96q-56 -34 -123 -34q-61 0 -88 38.5t-19 104.5l11 93h-46l10 75h46l11 92h-52l11 93h52l20 152l111 22l-21 -174h119z" />
    <glyph glyph-name="Utilde" unicode="&#x168;" horiz-adv-x="680" 
d="M241 820q45 107 118 107q14 0 26 -3.5t17.5 -6.5t17 -11t12.5 -9q33 -23 47 -23q37 0 60 53l68 -26q-20 -55 -50.5 -85.5t-65.5 -30.5q-10 0 -19.5 2t-18.5 6.5t-14 7.5t-13.5 8.5t-10.5 7.5q-29 22 -46 22q-36 0 -60 -54zM605 294q-19 -155 -91 -228.5t-202 -73.5
q-115 0 -171.5 66.5t-56.5 184.5q0 32 4 60l50 407h118l-50 -407q-4 -25 -4 -55q0 -144 115 -144q147 0 170 190l51 416h118z" />
    <glyph glyph-name="utilde" unicode="&#x169;" horiz-adv-x="542" 
d="M268 608q-36 0 -60 -54l-68 35q45 107 118 107q14 0 26 -3.5t17.5 -6.5t17 -11t12.5 -9q33 -23 47 -23q37 0 60 53l68 -26q-20 -55 -50.5 -85.5t-65.5 -30.5q-10 0 -19.5 2t-18.5 6.5t-14 7.5t-13.5 8.5t-10.5 7.5q-29 22 -46 22zM370 277l26 211h110l-60 -488h-110
l11 87h-2q-63 -95 -161 -95q-77 0 -109.5 47t-19.5 149l37 300h109l-34 -290q-7 -59 5 -82.5t46 -23.5q42 0 90 55t62 130z" />
    <glyph glyph-name="Umacron" unicode="&#x16a;" horiz-adv-x="680" 
d="M290 908h274l-11 -92h-274zM605 294q-19 -155 -91 -228.5t-202 -73.5q-115 0 -171.5 66.5t-56.5 184.5q0 32 4 60l50 407h118l-50 -407q-4 -25 -4 -55q0 -144 115 -144q147 0 170 190l51 416h118z" />
    <glyph glyph-name="umacron" unicode="&#x16b;" horiz-adv-x="542" 
d="M463 677l-11 -92h-274l11 92h274zM396 488h110l-60 -488h-110l11 87h-2q-63 -95 -161 -95q-77 0 -109.5 47t-19.5 149l37 300h109l-34 -290q-7 -59 5 -82.5t46 -23.5q42 0 90 55t62 130z" />
    <glyph glyph-name="Ubreve" unicode="&#x16c;" horiz-adv-x="680" 
d="M416 782q-63 0 -101 39t-32 107h85q-7 -69 49 -69q28 0 48 19.5t26 49.5h85q-13 -67 -55.5 -106.5t-104.5 -39.5zM605 294q-19 -155 -91 -228.5t-202 -73.5q-115 0 -171.5 66.5t-56.5 184.5q0 32 4 60l50 407h118l-50 -407q-4 -25 -4 -55q0 -144 115 -144q147 0 170 190
l51 416h118z" />
    <glyph glyph-name="ubreve" unicode="&#x16d;" horiz-adv-x="542" 
d="M315 551q-63 0 -101 39t-32 107h85q-7 -69 49 -69q28 0 48 19.5t26 49.5h85q-13 -67 -55.5 -106.5t-104.5 -39.5zM396 488h110l-60 -488h-110l11 87h-2q-63 -95 -161 -95q-77 0 -109.5 47t-19.5 149l37 300h109l-34 -290q-7 -59 5 -82.5t46 -23.5q42 0 90 55t62 130z" />
    <glyph glyph-name="Uring" unicode="&#x16e;" horiz-adv-x="680" 
d="M426 970q44 0 73.5 -29t29.5 -73q0 -46 -30.5 -76t-76.5 -30q-44 0 -73.5 29.5t-29.5 73.5q0 45 30.5 75t76.5 30zM425 905q-16 0 -27.5 -11.5t-11.5 -27.5t11 -27t27 -11t27.5 11t11.5 28q0 16 -11 27t-27 11zM605 294q-19 -155 -91 -228.5t-202 -73.5
q-115 0 -171.5 66.5t-56.5 184.5q0 32 4 60l50 407h118l-50 -407q-4 -25 -4 -55q0 -144 115 -144q147 0 170 190l51 416h118z" />
    <glyph glyph-name="uring" unicode="&#x16f;" horiz-adv-x="542" 
d="M321 531q-44 0 -73.5 29.5t-29.5 73.5q0 45 30.5 75t76.5 30q44 0 73.5 -29t29.5 -73q0 -46 -30.5 -76t-76.5 -30zM324 674q-16 0 -27.5 -11.5t-11.5 -27.5q0 -17 10.5 -27.5t27.5 -10.5t28 11.5t11 27.5t-11 27t-27 11zM396 488h110l-60 -488h-110l11 87h-2
q-63 -95 -161 -95q-77 0 -109.5 47t-19.5 149l37 300h109l-34 -290q-7 -59 5 -82.5t46 -23.5q42 0 90 55t62 130z" />
    <glyph glyph-name="Uhungarumlaut" unicode="&#x170;" horiz-adv-x="680" 
d="M360 931l116 1l-129 -145h-106zM543 931l116 1l-129 -145h-105zM605 294q-19 -155 -91 -228.5t-202 -73.5q-115 0 -171.5 66.5t-56.5 184.5q0 32 4 60l50 407h118l-50 -407q-4 -25 -4 -55q0 -144 115 -144q147 0 170 190l51 416h118z" />
    <glyph glyph-name="uhungarumlaut" unicode="&#x171;" horiz-adv-x="553" 
d="M392 701l-129 -145h-106l119 144zM446 556h-105l118 144l116 1zM370 277l26 211h110l-60 -488h-110l11 87h-2q-63 -95 -161 -95q-77 0 -109.5 47t-19.5 149l37 300h109l-34 -290q-7 -59 5 -82.5t46 -23.5q42 0 90 55t62 130z" />
    <glyph glyph-name="Uogonek" unicode="&#x172;" horiz-adv-x="680" 
d="M538 710h118l-51 -416q-29 -247 -203 -292q-40 -13 -67.5 -38t-27.5 -51q0 -14 7.5 -22t19.5 -8q22 0 41 8l1 -68q-23 -11 -68 -11q-92 0 -92 75q0 59 57 106v1q-95 12 -142 77t-47 172q0 32 4 60l50 407h118l-50 -407q-4 -25 -4 -55q0 -144 115 -144q147 0 170 190z" />
    <glyph glyph-name="uogonek" unicode="&#x173;" horiz-adv-x="542" 
d="M396 488h110l-60 -488h-3q-40 -8 -66.5 -33.5t-26.5 -53.5q0 -30 28 -30q26 0 40 8l2 -68q-23 -11 -69 -11q-92 0 -92 75q0 34 22 67t56 54l10 79h-2q-63 -95 -161 -95q-77 0 -109.5 47t-19.5 149l37 300h109l-34 -290q-7 -59 5 -82.5t46 -23.5q42 0 90 55t62 130z" />
    <glyph glyph-name="Wcircumflex" unicode="&#x174;" horiz-adv-x="949" 
d="M552 861l-55 -76h-110l118 147h104l87 -147h-106l-36 76h-2zM846 710h128l-289 -710h-118l-59 507h-2l-184 -507h-117l-114 710h123l72 -504h3l176 504h134l53 -499h3z" />
    <glyph glyph-name="wcircumflex" unicode="&#x175;" horiz-adv-x="704" 
d="M404 630l-55 -76h-110l118 147h104l87 -147h-106l-36 76h-2zM668 488q13 -72 5 -161q-7 -84 -32.5 -150t-61.5 -105.5t-77.5 -59.5t-83.5 -20q-94 0 -113 86h-3q-49 -86 -130 -86q-68 0 -97.5 52.5t-16.5 153.5l36 290h110l-35 -281q-14 -115 32 -115q28 0 58 39.5
t41 109.5l32 247h109l-35 -285q-14 -111 30 -111q34 0 75 68t53 181q5 58 -7 147h111z" />
    <glyph glyph-name="Ycircumflex" unicode="&#x176;" horiz-adv-x="581" 
d="M362 861l-55 -76h-110l118 147h104l87 -147h-106l-36 76h-2zM485 710h140l-267 -396l-40 -314h-118l39 314l-166 396h129l106 -283h3z" />
    <glyph glyph-name="ycircumflex" unicode="&#x177;" horiz-adv-x="545" 
d="M322 630l-55 -76h-110l118 147h104l87 -147h-106l-36 76h-2zM401 488h108l-52 -427q-9 -78 -34.5 -133t-64 -83t-78.5 -39.5t-89 -11.5q-95 0 -169 48l36 95q67 -43 133 -43q67 0 106 36.5t52 138.5l2 18h-2q-64 -95 -165 -95q-77 0 -109.5 47t-19.5 149l37 300h109
l-34 -290q-7 -58 5 -81.5t46 -24.5q47 0 98 59t60 139z" />
    <glyph glyph-name="Ydieresis" unicode="&#x178;" horiz-adv-x="581" 
d="M267 793q-31 0 -51.5 20.5t-20.5 50.5q0 32 21.5 53t53.5 21q30 0 50.5 -20t20.5 -51t-21.5 -52.5t-52.5 -21.5zM457 793q-31 0 -51.5 20.5t-20.5 50.5q0 32 21.5 53t53.5 21q30 0 50.5 -20t20.5 -51t-21.5 -52.5t-52.5 -21.5zM485 710h140l-267 -396l-40 -314h-118
l39 314l-166 396h129l106 -283h3z" />
    <glyph glyph-name="Zacute" unicode="&#x179;" horiz-adv-x="590" 
d="M504 932l-129 -145h-111l119 144zM573 619l-384 -510l-1 -3h322l-13 -106h-467l11 93l378 509v2h-303l13 106h454z" />
    <glyph glyph-name="zacute" unicode="&#x17a;" horiz-adv-x="466" 
d="M413 701l-129 -145h-111l119 144zM434 412l-263 -317v-2q143 -4 234 -32l-30 -90q-46 14 -115 21t-112.5 7.5t-135.5 0.5l9 77l259 317v1h-204l11 93h355z" />
    <glyph glyph-name="Zdotaccent" unicode="&#x17b;" horiz-adv-x="590" 
d="M370 793q-31 0 -51 20.5t-20 50.5q0 32 21 53t53 21q31 0 51.5 -20t20.5 -51q0 -32 -21.5 -53t-53.5 -21zM573 619l-384 -510l-1 -3h322l-13 -106h-467l11 93l378 509v2h-303l13 106h454z" />
    <glyph glyph-name="zdotaccent" unicode="&#x17c;" horiz-adv-x="466" 
d="M282 562q-31 0 -51 20.5t-20 50.5q0 32 21 53t53 21q31 0 51.5 -20t20.5 -51q0 -32 -21.5 -53t-53.5 -21zM434 412l-263 -317v-2q143 -4 234 -32l-30 -90q-46 14 -115 21t-112.5 7.5t-135.5 0.5l9 77l259 317v1h-204l11 93h355z" />
    <glyph glyph-name="Zcaron" unicode="&#x17d;" horiz-adv-x="590" 
d="M413 785h-104l-85 147h106l35 -77h3l55 77h110zM573 619l-384 -510l-1 -3h322l-13 -106h-467l11 93l378 509v2h-303l13 106h454z" />
    <glyph glyph-name="zcaron" unicode="&#x17e;" horiz-adv-x="466" 
d="M325 554h-104l-85 147h106l35 -77h3l55 77h110zM76 395l11 93h355l-8 -76l-263 -317v-2q143 -4 234 -32l-30 -90q-46 14 -115 21t-112.5 7.5t-135.5 0.5l9 77l259 317v1h-204z" />
    <glyph glyph-name="longs" unicode="&#x17f;" horiz-adv-x="315" 
d="M354 620q-34 24 -63 24q-23 0 -37 -16t-20 -60l-70 -568h-109l48 395h-46l11 93h47l12 101q10 77 47 116t98 39q65 0 111 -33z" />
    <glyph glyph-name="uni018F" unicode="&#x18f;" horiz-adv-x="642" 
d="M343 718q120 0 197 -82.5t77 -212.5q0 -185 -103.5 -308t-277.5 -123q-83 0 -137.5 45.5t-54.5 115.5q0 69 37 122.5t97.5 83.5t131 44t145.5 12q15 0 38 -3h1v11q0 83 -42 134.5t-119 51.5q-71 0 -139 -55l-73 84q111 80 222 80zM250 105q81 0 142 55t87 146l-2 2
q-16 2 -22 2q-137 3 -212.5 -39.5t-75.5 -102.5q0 -25 21 -44t62 -19z" />
    <glyph glyph-name="florin" unicode="&#x192;" horiz-adv-x="498" 
d="M449 644q-64 0 -84 -94l-18 -81h124l-25 -94h-125l-84 -354q-19 -84 -63.5 -123.5t-116.5 -39.5q-98 0 -130 44l48 74q29 -18 63 -18q38 0 60 21.5t34 72.5l76 323h-72l25 94h73l26 112q40 163 171 163q92 0 131 -44l-49 -75q-31 19 -64 19z" />
    <glyph glyph-name="uni019D" unicode="&#x19d;" horiz-adv-x="722" 
d="M570 710h118l-88 -710h-129l-228 504h-1l-67 -540q-20 -169 -155 -169q-51 0 -90 23l28 86q20 -15 44 -15t37 20.5t20 69.5l90 731h125l231 -514h1z" />
    <glyph glyph-name="Ohorn" unicode="&#x1a0;" horiz-adv-x="810" 
d="M737 774h104l-12 -91q-19 -143 -115 -170q11 -44 11 -93q0 -115 -44 -211.5t-130 -156.5t-199 -60q-130 0 -207.5 79.5t-77.5 219.5q0 113 45.5 210t132 157t194.5 60q85 0 149.5 -35.5t99.5 -101.5q18 11 25.5 38.5t14.5 81.5zM361 102q103 0 172 94.5t69 220.5
q0 95 -46.5 143.5t-129.5 48.5q-101 0 -168.5 -96t-67.5 -219q0 -94 45.5 -143t125.5 -49z" />
    <glyph glyph-name="ohorn" unicode="&#x1a1;" horiz-adv-x="636" 
d="M553 565h104l-12 -91q-22 -161 -138 -174v-6q0 -131 -69 -216.5t-192 -85.5q-95 0 -150 54.5t-55 151.5q0 123 71 210.5t188 87.5q74 0 125.5 -33t70.5 -94q22 6 31 35t17 88zM249 92q65 0 106 55.5t41 136.5q0 62 -31 87t-72 25q-62 0 -102 -56t-40 -129
q0 -52 26.5 -85.5t71.5 -33.5z" />
    <glyph glyph-name="Uhorn" unicode="&#x1af;" horiz-adv-x="766" 
d="M723 774h104l-12 -91q-12 -88 -52.5 -131.5t-104.5 -43.5q-11 0 -26 3l-27 -217q-19 -155 -91 -228.5t-202 -73.5q-115 0 -171.5 66.5t-56.5 184.5q0 32 4 60l50 407h118l-50 -407q-4 -25 -4 -55q0 -144 115 -144q147 0 170 190l51 416h118l-16 -132q5 -2 14 -2
q16 0 26.5 8.5t17 29.5t9.5 37t7 50z" />
    <glyph glyph-name="uhorn" unicode="&#x1b0;" horiz-adv-x="646" 
d="M569 565h104l-12 -91q-12 -88 -52.5 -131.5t-104.5 -43.5q-13 0 -21 2l-37 -301h-110l11 87h-2q-63 -95 -161 -95q-77 0 -109.5 47t-19.5 149l37 300h109l-34 -290q-7 -59 5 -82.5t46 -23.5q42 0 90 55t62 130l26 211h110l-15 -120q3 -1 9 -1q16 0 26.5 8.5t17 29.5
t9.5 37t7 50z" />
    <glyph glyph-name="Gcaron" unicode="&#x1e6;" horiz-adv-x="707" 
d="M503 785h-104l-85 147h106l35 -77h3l55 77h110zM372 272l14 106h266l-35 -298q-49 -41 -119 -64.5t-142 -23.5q-129 0 -209 76.5t-80 220.5q0 178 103.5 303.5t260.5 125.5q162 0 243 -122l-98 -72q-52 82 -150 82q-101 0 -168 -91.5t-67 -222.5q0 -91 44.5 -141.5
t125.5 -50.5q75 0 143 48l17 124h-149z" />
    <glyph glyph-name="gcaron" unicode="&#x1e7;" horiz-adv-x="563" 
d="M381 554h-104l-85 147h106l35 -77h3l55 77h110zM417 488h109l-52 -427q-10 -79 -35 -133.5t-63.5 -82.5t-81 -39.5t-96.5 -11.5q-91 0 -165 48l36 95q67 -43 134 -43q71 0 110 36.5t52 138.5l6 44h-3q-33 -52 -75.5 -78.5t-84.5 -26.5q-83 0 -125 55.5t-42 142.5
q0 111 67.5 200.5t171.5 89.5q83 0 130 -47h2zM229 105q51 0 100 60t66 151l4 33q-45 47 -110 47q-61 0 -99 -61.5t-38 -130.5q0 -46 20 -72.5t57 -26.5z" />
    <glyph glyph-name="uni01EA" unicode="&#x1ea;" horiz-adv-x="765" 
d="M418 -2q-37 -10 -60 -34.5t-23 -50.5q0 -30 28 -30q26 0 40 8l2 -68q-23 -11 -69 -11q-92 0 -92 75q0 58 57 106l1 2q-109 15 -172 92.5t-63 203.5q0 113 45.5 210t132 157t194.5 60q129 0 207.5 -79.5t78.5 -218.5q0 -159 -83 -278t-224 -144zM190 294q0 -94 45.5 -143
t125.5 -49q103 0 172 94.5t69 220.5q0 95 -46.5 143.5t-129.5 48.5q-101 0 -168.5 -96t-67.5 -219z" />
    <glyph glyph-name="uni01EB" unicode="&#x1eb;" horiz-adv-x="548" 
d="M285 -5q-32 -12 -52.5 -35t-20.5 -47q0 -30 28 -30q26 0 40 8l2 -68q-23 -11 -69 -11q-92 0 -92 75q0 60 62 110v2q-67 17 -104.5 68t-37.5 131q0 123 71 210.5t188 87.5q95 0 151 -53t56 -149q0 -120 -58.5 -202.5t-163.5 -96.5zM293 396q-62 0 -102 -56t-40 -129
q0 -52 26.5 -85.5t71.5 -33.5q65 0 106 55.5t41 136.5q0 62 -31 87t-72 25z" />
    <glyph glyph-name="Aringacute" unicode="&#x1fa;" 
d="M405 762q-44 0 -73.5 29.5t-29.5 73.5q0 45 30.5 75t76.5 30q45 0 75 -30l55 42h122l-149 -112v-2q0 -46 -30.5 -76t-76.5 -30zM408 905q-16 0 -27.5 -11.5t-11.5 -27.5t10.5 -27t27.5 -11t28 11t11 28q0 16 -11 27t-27 11zM320 710h123l150 -710h-122l-29 154h-255
l-67 -154h-124zM231 257h192l-58 305h-2z" />
    <glyph glyph-name="aringacute" unicode="&#x1fb;" horiz-adv-x="567" 
d="M345 531q-44 0 -73.5 29.5t-29.5 73.5q0 45 30.5 75t76.5 30q39 0 68 -24l59 43h125l-150 -109q1 -4 1 -12q0 -46 -30.5 -76t-76.5 -30zM348 674q-16 0 -27.5 -11.5t-11.5 -27.5q0 -17 10.5 -27.5t27.5 -10.5t28 11.5t11 27.5t-11 27t-27 11zM410 449l5 39h109l-60 -488
h-109l11 93h-1q-33 -49 -75 -75t-83 -26q-83 0 -125.5 55.5t-42.5 142.5q0 121 67.5 213.5t172.5 92.5q82 0 129 -47h2zM228 89q54 0 104 67.5t64 175.5l2 18q-46 46 -111 46q-61 0 -99 -64t-38 -144q0 -46 20 -72.5t58 -26.5z" />
    <glyph glyph-name="AEacute" unicode="&#x1fc;" horiz-adv-x="875" 
d="M666 932l-129 -145h-111l119 144zM846 604h-295l-25 -198h243l-14 -106h-242l-23 -194h313l-13 -106h-428l19 154h-189l-86 -154h-129l407 710h475zM249 257h145l40 327h-3z" />
    <glyph glyph-name="aeacute" unicode="&#x1fd;" horiz-adv-x="676" 
d="M609 701l-129 -145h-111l119 144zM472 93q55 0 95 52l86 -62q-73 -90 -185 -90q-125 0 -172 99h-2q-48 -95 -135 -99q-63 -3 -100.5 43t-37.5 116q0 134 83.5 229t222.5 95q45 0 82 -11h1q53 31 112 31q63 0 104 -32t41 -87q0 -86 -73 -140t-205 -77l-2 -1q10 -32 34 -49
t51 -17zM556 363q0 13 -12 23t-34 10q-36 0 -73.5 -40.5t-49.5 -107.5l1 -1q77 18 122.5 48.5t45.5 67.5zM176 92q63 0 102 158q10 69 44 125l-1 1h-6q-88 0 -136.5 -66t-46.5 -154q1 -26 12.5 -45t31.5 -19z" />
    <glyph glyph-name="Oslashacute" unicode="&#x1fe;" horiz-adv-x="767" 
d="M640 932l-129 -145h-111l119 144zM754 682l-76 -80q49 -74 49 -182q0 -115 -44 -211.5t-130 -156.5t-199 -60q-116 0 -192 65l-81 -86l-58 60l86 91q-40 69 -40 169q0 113 45.5 210t132 157t194.5 60t181 -56l74 78zM192 294q0 -42 9 -75l339 357q-44 33 -112 33
q-101 0 -168.5 -96t-67.5 -219zM604 417q0 53 -15 91l-344 -364q43 -42 118 -42q103 0 172 94.5t69 220.5z" />
    <glyph glyph-name="oslashacute" unicode="&#x1ff;" horiz-adv-x="552" 
d="M495 701l-129 -145h-111l119 144zM532 460l-52 -54q27 -49 27 -112q0 -131 -69 -216.5t-192 -85.5q-77 0 -128 36l-50 -53l-49 50l52 54q-30 48 -30 119q0 123 71 210.5t188 87.5q80 0 133 -38l50 52zM151 211q0 -20 5 -43l200 210q-26 18 -63 18q-62 0 -102 -56
t-40 -129zM396 284q0 18 -3 31l-198 -207q24 -16 54 -16q65 0 106 55.5t41 136.5z" />
    <glyph glyph-name="Scommaaccent" unicode="&#x218;" horiz-adv-x="564" 
d="M315 422q14 -8 46.5 -26t47 -27t38 -27t34.5 -33.5t19.5 -39.5t8.5 -52q0 -108 -68.5 -166.5t-173.5 -58.5q-77 0 -141 32.5t-98 87.5l87 80q21 -43 60.5 -67t83.5 -24q55 0 90.5 29t35.5 71q0 15 -4.5 26t-19 23t-23 18t-36 21t-39.5 22q-2 1 -26.5 15.5t-29.5 17.5
t-25.5 16t-26.5 19.5t-21 20t-20 23.5t-13.5 25t-11 30.5t-2.5 33.5q0 93 66.5 149.5t165.5 56.5q61 0 116 -27t92 -76l-86 -75q-48 71 -130 71q-45 0 -73.5 -25t-27.5 -60q1 -16 6.5 -28t23 -26t29.5 -22t46 -28zM205 -77q0 4 -2 24h98v-22q0 -62 -36 -99.5t-103 -44.5
l-16 65q32 12 45.5 29t13.5 48z" />
    <glyph glyph-name="scommaaccent" unicode="&#x219;" horiz-adv-x="427" 
d="M250 285l30 -15t27.5 -15.5t29 -20.5t20.5 -22t18 -29.5t5 -33.5q1 -75 -50.5 -116t-137.5 -41q-54 0 -104 23t-75 61l72 71q45 -59 107 -59q33 0 55 13t22 35q0 17 -16.5 29t-56.5 30q-3 1 -5 2l-5 2.5t-6 2.5q-121 53 -121 144q0 66 49 108t120 42q107 0 170 -70
l-73 -74q-39 49 -98 49q-26 0 -41.5 -12.5t-15.5 -33.5q0 -32 80 -70zM128 -77q0 4 -2 24h98v-22q0 -62 -36 -99.5t-103 -44.5l-16 65q32 12 45.5 29t13.5 48z" />
    <glyph glyph-name="uni021A" unicode="&#x21a;" horiz-adv-x="546" 
d="M90 710h480l-13 -106h-181l-74 -604h-118l74 604h-180zM189 -77q0 4 -2 24h98v-22q0 -62 -36 -99.5t-103 -44.5l-16 65q32 12 45.5 29t13.5 48z" />
    <glyph glyph-name="uni021B" unicode="&#x21b;" horiz-adv-x="338" 
d="M204 395l-30 -240q-7 -58 33 -58q28 0 70 25l15 -96q-56 -34 -123 -34q-61 0 -88 38.5t-19 104.5l32 260h-52l11 93h52l20 152l111 22l-21 -174h119l-11 -93h-119zM109 -77q0 4 -2 24h98v-22q0 -62 -36 -99.5t-103 -44.5l-16 65q32 12 45.5 29t13.5 48z" />
    <glyph glyph-name="uni0232" unicode="&#x232;" horiz-adv-x="581" 
d="M505 908l-11 -92h-274l11 92h274zM485 710h140l-267 -396l-40 -314h-118l39 314l-166 396h129l106 -283h3z" />
    <glyph glyph-name="uni0233" unicode="&#x233;" horiz-adv-x="545" 
d="M465 677l-11 -92h-274l11 92h274zM401 488h108l-52 -427q-9 -78 -34.5 -133t-64 -83t-78.5 -39.5t-89 -11.5q-95 0 -169 48l36 95q67 -43 133 -43q67 0 106 36.5t52 138.5l2 18h-2q-64 -95 -165 -95q-77 0 -109.5 47t-19.5 149l37 300h109l-34 -290q-7 -58 5 -81.5
t46 -24.5q47 0 98 59t60 139z" />
    <glyph glyph-name="uni0237" unicode="&#x237;" horiz-adv-x="240" 
d="M-73 -96q19 -15 44 -15q24 0 37.5 21t18.5 69l63 509h110l-65 -524q-20 -169 -147 -169q-51 0 -89 23z" />
    <glyph glyph-name="uni0259" unicode="&#x259;" horiz-adv-x="460" 
d="M244 496q83 0 136 -55.5t53 -152.5q0 -121 -71 -208t-199 -87q-61 0 -101.5 34t-40.5 89q0 90 85.5 142t215.5 67q-8 35 -32.5 53t-58.5 18q-21 0 -51 -12t-55 -35l-65 73q86 74 184 74zM176 93q49 0 89 35.5t54 102.5l-1 1q-80 -10 -133.5 -35.5t-53.5 -66.5
q0 -15 11.5 -26t33.5 -11z" />
    <glyph glyph-name="uni0272" unicode="&#x272;" horiz-adv-x="557" 
d="M380 495q77 0 106 -49.5t15 -151.5l-40 -294h-109l38 285q8 56 -2 83.5t-45 27.5q-48 0 -102.5 -63t-65.5 -150l-27 -219q-20 -169 -147 -169q-50 0 -89 23l28 86q20 -15 44 -15t37 20.5t20 69.5l63 509h109l-11 -86h2q75 93 176 93z" />
    <glyph glyph-name="circumflex" unicode="&#x2c6;" horiz-adv-x="428" 
d="M297 536l-36 76h-2l-55 -76h-110l118 147h104l87 -147h-106z" />
    <glyph glyph-name="caron" unicode="&#x2c7;" horiz-adv-x="429" 
d="M313 683h110l-120 -147h-104l-85 147h106l35 -77h3z" />
    <glyph glyph-name="breve" unicode="&#x2d8;" horiz-adv-x="418" 
d="M249 533q-63 0 -101 39t-32 107h85q-7 -69 49 -69q28 0 48 19.5t26 49.5h85q-13 -67 -55.5 -106.5t-104.5 -39.5z" />
    <glyph glyph-name="dotaccent" unicode="&#x2d9;" horiz-adv-x="465" 
d="M280 689q31 0 51.5 -20t20.5 -51q0 -32 -21.5 -53t-53.5 -21q-31 0 -51 20.5t-20 50.5q0 32 21 53t53 21z" />
    <glyph glyph-name="ring" unicode="&#x2da;" horiz-adv-x="440" 
d="M268 721q44 0 73.5 -29t29.5 -73q0 -46 -30.5 -76t-76.5 -30q-44 0 -73.5 29.5t-29.5 73.5q0 45 30.5 75t76.5 30zM267 656q-16 0 -27.5 -11.5t-11.5 -27.5q0 -17 11 -27.5t27 -10.5t27.5 11.5t11.5 27.5t-11 27t-27 11z" />
    <glyph glyph-name="ogonek" unicode="&#x2db;" horiz-adv-x="436" 
d="M268 -177q-23 -11 -69 -11q-92 0 -92 75q0 37 25.5 72t63.5 55l95 -14q-40 -8 -66.5 -33.5t-26.5 -53.5q0 -30 28 -30q26 0 40 8z" />
    <glyph glyph-name="tilde" unicode="&#x2dc;" horiz-adv-x="450" 
d="M87 571q45 107 118 107q14 0 26 -3.5t17.5 -6.5t17 -11t12.5 -9q33 -23 47 -23q37 0 60 53l68 -26q-20 -55 -50.5 -85.5t-65.5 -30.5q-10 0 -19.5 2t-18.5 6.5t-14 7.5t-13.5 8.5t-10.5 7.5q-29 22 -46 22q-36 0 -60 -54z" />
    <glyph glyph-name="hungarumlaut" unicode="&#x2dd;" horiz-adv-x="475" 
d="M196 682l116 1l-129 -145h-106zM379 682l116 1l-129 -145h-105z" />
    <glyph glyph-name="uni0374" unicode="&#x374;" horiz-adv-x="251" 
d="M133 729h119l-92 -254h-97z" />
    <glyph glyph-name="uni0375" unicode="&#x375;" horiz-adv-x="251" 
d="M81 103h119l-92 -254h-97z" />
    <glyph glyph-name="uni037E" unicode="&#x37e;" horiz-adv-x="251" 
d="M149 495q31 0 51.5 -20.5t20.5 -51.5q0 -32 -21.5 -53t-53.5 -21q-31 0 -51 20.5t-20 50.5q0 32 21 53.5t53 21.5zM51 120h116l-94 -252h-81z" />
    <glyph glyph-name="tonos" unicode="&#x384;" horiz-adv-x="427" 
d="M248 707h132l-102 -169h-108z" />
    <glyph glyph-name="dieresistonos" unicode="&#x385;" horiz-adv-x="505" 
d="M271 707h103l-72 -169h-83zM130 689q30 0 50.5 -20t20.5 -51q0 -32 -21.5 -53t-52.5 -21t-51.5 20.5t-20.5 50.5q0 32 21.5 53t53.5 21zM447 689q31 0 51.5 -20t20.5 -51q0 -32 -21.5 -53t-53.5 -21q-31 0 -51 20.5t-20 50.5q0 32 21 53t53 21z" />
    <glyph glyph-name="Alphatonos" unicode="&#x386;" 
d="M471 0l-29 154h-255l-67 -154h-124l324 710h123l150 -710h-122zM238 707l-108 -169h-107l84 169h131zM231 257h192l-58 305h-2z" />
    <glyph glyph-name="anoteleia" unicode="&#x387;" horiz-adv-x="271" 
d="M162 495q31 0 51.5 -20.5t20.5 -51.5q0 -32 -21.5 -53t-53.5 -21q-31 0 -51 20.5t-20 50.5q0 32 21 53.5t53 21.5z" />
    <glyph glyph-name="Epsilontonos" unicode="&#x388;" horiz-adv-x="577" 
d="M-40 710h131l-108 -169h-107zM504 106l-13 -106h-427l87 710h409l-14 -106h-291l-24 -199h235l-13 -106h-235l-24 -193h310z" />
    <glyph glyph-name="Etatonos" unicode="&#x389;" horiz-adv-x="700" 
d="M-40 710h131l-108 -169h-107zM665 710l-87 -710h-119l36 286h-280l-35 -286h-118l87 710h118l-39 -318h280l39 318h118z" />
    <glyph glyph-name="Iotatonos" unicode="&#x38a;" horiz-adv-x="311" 
d="M-35 710h131l-108 -169h-107zM185 0h-119l87 710h119z" />
    <glyph glyph-name="Omicrontonos" unicode="&#x38c;" horiz-adv-x="764" 
d="M439 718q129 0 207.5 -79.5t78.5 -218.5q0 -115 -44 -211.5t-130 -156.5t-199 -60q-130 0 -207.5 79.5t-77.5 219.5q0 113 45.5 210t132 157t194.5 60zM22 710h131l-108 -169h-107zM361 102q103 0 172 94.5t69 220.5q0 95 -46.5 143.5t-129.5 48.5q-101 0 -168.5 -96
t-67.5 -219q0 -94 45.5 -143t125.5 -49z" />
    <glyph glyph-name="Upsilontonos" unicode="&#x38e;" horiz-adv-x="584" 
d="M-167 541l84 169h131l-108 -169h-107zM488 710h140l-267 -396l-40 -314h-118l39 314l-166 396h129l106 -283h3z" />
    <glyph glyph-name="Omegatonos" unicode="&#x38f;" horiz-adv-x="711" 
d="M527 107v-1h104l-13 -106h-250l13 106q173 126 173 328q0 79 -40.5 126t-109.5 47q-94 0 -151.5 -79t-57.5 -188q0 -134 102 -234l-13 -106h-251l13 106h117v1q-90 96 -90 237q0 159 94.5 266.5t241.5 107.5q120 0 194.5 -80t74.5 -202q0 -97 -40.5 -182.5t-110.5 -146.5
zM151 710l-108 -169h-107l84 169h131z" />
    <glyph glyph-name="iotadieresistonos" unicode="&#x390;" horiz-adv-x="303" 
d="M181 725h103l-72 -169h-83zM40 707q30 0 50.5 -20t20.5 -51q0 -32 -21.5 -53t-52.5 -21t-51.5 20.5t-20.5 50.5q0 32 21.5 53t53.5 21zM357 707q31 0 51.5 -20t20.5 -51q0 -32 -21.5 -53t-53.5 -21q-31 0 -51 20.5t-20 50.5q0 32 21 53t53 21zM269 13q-53 -21 -98 -21
q-122 0 -104 141l44 355h108l-41 -339q-8 -58 39 -58q13 0 35 5z" />
    <glyph glyph-name="Alpha" unicode="&#x391;" 
d="M471 0l-29 154h-255l-67 -154h-124l324 710h123l150 -710h-122zM231 257h192l-58 305h-2z" />
    <glyph glyph-name="Beta" unicode="&#x392;" horiz-adv-x="613" 
d="M455 377q105 -30 105 -144q0 -103 -64 -168t-173 -65h-261l87 710h229q97 0 144 -35.5t47 -111.5q0 -59 -30 -109.5t-84 -74.5v-2zM254 604l-23 -189h99q50 0 84 35.5t34 90.5q0 33 -23.5 48t-74.5 15h-96zM295 106q64 0 103 37t39 94q0 76 -107 76h-111l-26 -207h102z
" />
    <glyph glyph-name="Gamma" unicode="&#x393;" horiz-adv-x="548" 
d="M557 604h-303l-74 -604h-118l87 710h421z" />
    <glyph glyph-name="uni0394" unicode="&#x394;" horiz-adv-x="617" 
d="M427 710l132 -619l-12 -91h-537l11 91l283 619h123zM151 106h283l-84 458h-1z" />
    <glyph glyph-name="Epsilon" unicode="&#x395;" horiz-adv-x="575" 
d="M502 106l-13 -106h-427l87 710h409l-14 -106h-291l-24 -199h235l-13 -106h-235l-24 -193h310z" />
    <glyph glyph-name="Zeta" unicode="&#x396;" horiz-adv-x="590" 
d="M573 619l-384 -510l-1 -3h322l-13 -106h-467l11 93l378 509v2h-303l13 106h454z" />
    <glyph glyph-name="Eta" unicode="&#x397;" horiz-adv-x="699" 
d="M665 710l-87 -710h-119l36 286h-280l-35 -286h-118l87 710h118l-39 -318h280l39 318h118z" />
    <glyph glyph-name="Theta" unicode="&#x398;" horiz-adv-x="764" 
d="M442 718q129 0 207.5 -79.5t78.5 -218.5q0 -115 -44 -211.5t-130 -156.5t-199 -60q-130 0 -207.5 79.5t-77.5 219.5q0 113 45.5 210t132 157t194.5 60zM364 102q103 0 172 94.5t69 220.5q0 95 -46.5 143.5t-129.5 48.5q-101 0 -168.5 -96t-67.5 -219q0 -94 45.5 -143
t125.5 -49zM270 297l13 106h240l-13 -106h-240z" />
    <glyph glyph-name="Iota" unicode="&#x399;" horiz-adv-x="311" 
d="M185 0h-119l87 710h119z" />
    <glyph glyph-name="Kappa" unicode="&#x39a;" horiz-adv-x="628" 
d="M658 710l-277 -316l196 -394h-143l-141 291h-2l-88 -101l-23 -190h-118l87 710h118l-41 -332h2l278 332h152z" />
    <glyph glyph-name="Lambda" unicode="&#x39b;" horiz-adv-x="636" 
d="M455 0l-96 560h-3l-235 -560h-124l316 710h124l141 -710h-123z" />
    <glyph glyph-name="Mu" unicode="&#x39c;" horiz-adv-x="832" 
d="M668 710h129l-87 -710h-118l57 470h-2l-202 -333h-82l-123 343h-2l-58 -480h-118l87 710h126l146 -417h2z" />
    <glyph glyph-name="Nu" unicode="&#x39d;" horiz-adv-x="722" 
d="M570 710h118l-88 -710h-129l-228 504h-2l-61 -504h-118l87 710h125l231 -513h1z" />
    <glyph glyph-name="Xi" unicode="&#x39e;" horiz-adv-x="606" 
d="M578 602h-462l13 108h463zM489 297h-361l13 107h361zM511 0h-476l14 108h476z" />
    <glyph glyph-name="Omicron" unicode="&#x39f;" horiz-adv-x="765" 
d="M439 718q129 0 207.5 -79.5t78.5 -218.5q0 -115 -44 -211.5t-130 -156.5t-199 -60q-130 0 -207.5 79.5t-77.5 219.5q0 113 45.5 210t132 157t194.5 60zM361 102q103 0 172 94.5t69 220.5q0 95 -46.5 143.5t-129.5 48.5q-101 0 -168.5 -96t-67.5 -219q0 -94 45.5 -143
t125.5 -49z" />
    <glyph glyph-name="Pi" unicode="&#x3a0;" horiz-adv-x="673" 
d="M149 710h490l-88 -710h-117l74 604h-254l-74 -604h-118z" />
    <glyph glyph-name="Rho" unicode="&#x3a1;" horiz-adv-x="596" 
d="M388 710q101 0 147.5 -48.5t46.5 -142.5q0 -125 -72.5 -194.5t-208.5 -69.5h-90l-31 -255h-118l87 710h239zM317 361q67 0 104.5 40t37.5 118q0 39 -27 62t-71 23h-107l-30 -243h93z" />
    <glyph glyph-name="Sigma" unicode="&#x3a3;" horiz-adv-x="552" 
d="M553 604h-301v-1l125 -247l-184 -249v-1h299l-14 -106h-453l10 83l202 273l-134 268l9 86h453z" />
    <glyph glyph-name="Tau" unicode="&#x3a4;" horiz-adv-x="546" 
d="M557 604h-181l-74 -604h-118l74 604h-180l12 106h480z" />
    <glyph glyph-name="Upsilon" unicode="&#x3a5;" horiz-adv-x="581" 
d="M485 710h140l-267 -396l-40 -314h-118l39 314l-166 396h129l106 -283h3z" />
    <glyph glyph-name="Phi" unicode="&#x3a6;" horiz-adv-x="769" 
d="M737 395q0 -138 -82.5 -233t-235.5 -107l-6 -55h-119l8 58q-114 18 -179.5 87t-65.5 183q0 131 86 228.5t234 110.5l6 55h118l-7 -59q112 -18 177.5 -87.5t65.5 -180.5zM177 333q0 -148 142 -171l50 400q-91 -13 -141.5 -78t-50.5 -151zM428 161q91 14 139 77.5t48 151.5
q0 140 -137 169z" />
    <glyph glyph-name="Chi" unicode="&#x3a7;" horiz-adv-x="652" 
d="M671 710l-248 -357l165 -353h-141l-118 267h-2l-184 -267h-141l255 359l-159 351h134l116 -267h2l175 267h146z" />
    <glyph glyph-name="Psi" unicode="&#x3a8;" horiz-adv-x="736" 
d="M610 710h118l-32 -258q-19 -148 -88 -218.5t-192 -71.5l-20 -162h-118l20 162q-119 3 -172 79t-35 216l32 253h118l-31 -245q-12 -102 10 -148.5t91 -49.5l54 443h118l-54 -443q67 4 102.5 49t48.5 153z" />
    <glyph glyph-name="uni03A9" unicode="&#x3a9;" horiz-adv-x="712" 
d="M527 107v-1h104l-13 -106h-250l13 106q173 126 173 328q0 79 -40.5 126t-109.5 47q-94 0 -151.5 -79t-57.5 -188q0 -134 102 -234l-13 -106h-251l13 106h117v1q-90 96 -90 237q0 159 94.5 266.5t241.5 107.5q120 0 194.5 -80t74.5 -202q0 -97 -40.5 -182.5t-110.5 -146.5
z" />
    <glyph glyph-name="Iotadieresis" unicode="&#x3aa;" horiz-adv-x="311" 
d="M123 938q30 0 50.5 -20t20.5 -51t-21 -52.5t-53 -21.5q-31 0 -51.5 20.5t-20.5 50.5q0 32 21.5 53t53.5 21zM343 938q31 0 51 -20t20 -51q0 -32 -21 -53t-53 -21q-31 0 -51.5 20.5t-20.5 50.5q0 32 21.5 53t53.5 21zM185 0h-119l87 710h119z" />
    <glyph glyph-name="Upsilondieresis" unicode="&#x3ab;" horiz-adv-x="581" 
d="M249 793q-31 0 -51.5 20.5t-20.5 50.5q0 32 21.5 53t53.5 21q30 0 50.5 -20t20.5 -51t-21.5 -52.5t-52.5 -21.5zM469 793q-31 0 -51.5 20.5t-20.5 50.5q0 32 21.5 53t53.5 21q31 0 51 -20t20 -51q0 -32 -21 -53t-53 -21zM485 710h140l-267 -396l-40 -314h-118l39 314
l-166 396h129l106 -283h3z" />
    <glyph glyph-name="alphatonos" unicode="&#x3ac;" horiz-adv-x="576" 
d="M480 725l-102 -169h-108l78 169h132zM490 90q12 0 33 3l19 -75q-37 -24 -93 -26q-43 -1 -65.5 23.5t-26.5 83.5h-2q-61 -107 -157 -107q-71 0 -116 57t-45 149q0 123 66.5 210.5t158.5 87.5q62 0 95 -31t52 -91h1l44 125l99 -43l-103 -224l4 -77q2 -39 8 -52t28 -13z
M219 93q38 0 73 40t55 111q-5 150 -77 150q-53 0 -87.5 -58t-34.5 -127q0 -116 71 -116z" />
    <glyph glyph-name="epsilontonos" unicode="&#x3ad;" horiz-adv-x="461" 
d="M427 725l-102 -169h-108l78 169h132zM223 92q47 0 80.5 10t81.5 39l40 -84q-59 -38 -106.5 -51.5t-111.5 -13.5q-84 0 -129.5 32.5t-46.5 89.5q-1 44 21 82t63 59v2q-50 29 -50 87q0 67 56 109.5t137 42.5q119 0 192 -57l-49 -81q-55 38 -124 38q-46 1 -73.5 -15.5
t-27.5 -43.5q0 -37 57 -37l83 -1l-10 -93h-78q-36 0 -61 -21t-25 -47q0 -46 81 -46z" />
    <glyph glyph-name="etatonos" unicode="&#x3ae;" horiz-adv-x="566" 
d="M482 725l-102 -169h-108l78 169h132zM376 495q81 0 112.5 -50t17.5 -151l-65 -492h-109l64 483q7 56 -3 83.5t-44 27.5q-44 0 -93 -64t-60 -152l-22 -180h-109l43 350q5 28 0.5 41t-20.5 13q-12 0 -29 -5l-3 81q36 16 72 16q44 0 65.5 -25.5t22.5 -67.5h2q67 92 158 92z
" />
    <glyph glyph-name="iotatonos" unicode="&#x3af;" horiz-adv-x="303" 
d="M198 725h132l-102 -169h-108zM269 13q-53 -21 -98 -21q-122 0 -104 141l44 355h108l-41 -339q-8 -58 39 -58q13 0 35 5z" />
    <glyph glyph-name="upsilondieresistonos" unicode="&#x3b0;" horiz-adv-x="530" 
d="M322 725h103l-72 -169h-83zM181 707q30 0 50.5 -20t20.5 -51q0 -32 -21 -53t-53 -21q-31 0 -51.5 20.5t-20.5 50.5q0 32 21.5 53t53.5 21zM498 707q31 0 51.5 -20t20.5 -51q0 -32 -21.5 -53t-53.5 -21q-31 0 -51 20.5t-20 50.5q0 32 21 53t53 21zM235 -8q-83 0 -125.5 48
t-40.5 123q1 34 8 75.5t15.5 79t10.5 49.5q4 35 -23 35q-10 0 -21 -3l-3 81q43 16 77 16q37 0 60.5 -25.5t20.5 -75.5q-1 -26 -17 -100t-17 -118q-2 -85 64 -85q36 0 64 25.5t44.5 68.5t24.5 93.5t8 105.5q0 52 -7 97l102 17q16 -65 16 -125q0 -166 -66.5 -274t-194.5 -108z
" />
    <glyph glyph-name="alpha" unicode="&#x3b1;" horiz-adv-x="576" 
d="M490 90q12 0 33 3l19 -75q-37 -24 -93 -26q-43 -1 -65.5 23.5t-26.5 83.5h-2q-61 -107 -157 -107q-71 0 -116 57t-45 149q0 123 66.5 210.5t158.5 87.5q62 0 95 -31t52 -91h1l44 125l99 -43l-103 -224l4 -77q2 -39 8 -52t28 -13zM219 93q38 0 73 40t55 111
q-5 150 -77 150q-53 0 -87.5 -58t-34.5 -127q0 -116 71 -116z" />
    <glyph glyph-name="beta" unicode="&#x3b2;" horiz-adv-x="532" 
d="M428 390q62 -55 62 -146q0 -113 -65 -182.5t-169 -69.5q-93 0 -149.5 64t-54.5 201q3 124 40 233t110.5 181.5t168.5 72.5q75 0 118.5 -42t43.5 -110q0 -107 -105 -200v-2zM360 645q-65 0 -116 -86.5t-71 -202.5q113 40 181 103t68 121q0 32 -17 48.5t-45 16.5zM261 91
q49 0 83.5 41.5t34.5 114.5q0 56 -33 86q-83 -49 -182 -74v-7q0 -73 25.5 -117t71.5 -44z" />
    <glyph glyph-name="gamma" unicode="&#x3b3;" horiz-adv-x="512" 
d="M500 488q-32 -139 -85.5 -253t-145.5 -237q2 -70 -7 -196h-115q20 194 1 345q-19 164 -32 210.5t-43 46.5q-10 0 -27 -5l-4 81q37 16 69 16q52 0 74 -28.5t35 -92.5q20 -93 33 -227h2q86 147 131 340h114z" />
    <glyph glyph-name="delta" unicode="&#x3b4;" horiz-adv-x="536" 
d="M360 494q69 -46 103 -93.5t34 -117.5q0 -121 -70.5 -206t-184.5 -85q-94 0 -148.5 56t-54.5 145q0 86 44 160.5t116 114.5v2q-58 51 -58 126q0 62 53 104.5t139 43.5q118 2 194 -57l-60 -86q-64 44 -139 44q-30 0 -53.5 -12.5t-23.5 -38.5q1 -17 11.5 -30.5t46.5 -36.5
q21 -13 51 -33zM245 92q62 0 101 53t39 121q0 86 -90 140l-23 14q-53 -32 -88.5 -93.5t-33.5 -126.5q2 -52 30 -80t65 -28z" />
    <glyph glyph-name="epsilon" unicode="&#x3b5;" horiz-adv-x="461" 
d="M223 92q47 0 80.5 10t81.5 39l40 -84q-59 -38 -106.5 -51.5t-111.5 -13.5q-84 0 -129.5 32.5t-46.5 89.5q-1 44 21 82t63 59v2q-50 29 -50 87q0 67 56 109.5t137 42.5q119 0 192 -57l-49 -81q-55 38 -124 38q-46 1 -73.5 -15.5t-27.5 -43.5q0 -37 57 -37l83 -1l-10 -93
h-78q-36 0 -61 -21t-25 -47q0 -46 81 -46z" />
    <glyph glyph-name="zeta" unicode="&#x3b6;" horiz-adv-x="421" 
d="M471 653q-57 -47 -109.5 -99t-102 -113t-79.5 -123.5t-30 -113.5q0 -22 5.5 -37t24.5 -29t30.5 -20t45.5 -21q9 -4 13 -6q64 -28 90.5 -58t26.5 -71q0 -75 -96 -184l-87 57q72 74 72 114q0 17 -15 29t-62 32q-38 16 -59.5 28t-48 34t-39 52.5t-12.5 71.5q0 193 288 445v2
h-209l10 93h352z" />
    <glyph glyph-name="eta" unicode="&#x3b7;" horiz-adv-x="566" 
d="M376 495q81 0 112.5 -50t17.5 -151l-65 -492h-109l64 483q7 56 -3 83.5t-44 27.5q-44 0 -93 -64t-60 -152l-22 -180h-109l43 350q5 28 0.5 41t-20.5 13q-12 0 -29 -5l-3 81q36 16 72 16q44 0 65.5 -25.5t22.5 -67.5h2q67 92 158 92z" />
    <glyph glyph-name="theta" unicode="&#x3b8;" horiz-adv-x="556" 
d="M331 744q200 0 200 -263q0 -95 -16.5 -180.5t-49.5 -155.5t-88.5 -111.5t-126.5 -41.5q-195 0 -195 264q0 127 29.5 235.5t94 180.5t152.5 72zM328 645q-51 0 -88.5 -64t-57.5 -162h235q2 40 2 58q0 168 -91 168zM252 92q59 0 97.5 66t56.5 168h-236q-3 -32 -3 -61
q0 -173 85 -173z" />
    <glyph glyph-name="iota" unicode="&#x3b9;" horiz-adv-x="303" 
d="M269 13q-53 -21 -98 -21q-122 0 -104 141l44 355h108l-41 -339q-8 -58 39 -58q13 0 35 5z" />
    <glyph glyph-name="kappa" unicode="&#x3ba;" horiz-adv-x="547" 
d="M452 91q14 0 44 7l17 -79q-46 -27 -101 -27q-56 0 -79.5 29.5t-31.5 92.5q-3 33 -7 101h-2q-47 -47 -137 -141l-9 -74h-104l60 488h109l-24 -198q-2 -22 -12 -71h2q142 179 277 296l77 -72q-62 -55 -151 -140q13 -117 17 -140q14 -72 55 -72z" />
    <glyph glyph-name="lambda" unicode="&#x3bb;" horiz-adv-x="508" 
d="M338 0q-25 154 -57 326h-2l-159 -326h-125l249 473l-22 109q-7 35 -21.5 50.5t-43.5 15.5q-22 0 -49 -7l-6 88q50 15 88 15q59 0 92.5 -37t51.5 -117q70 -308 122 -590h-118z" />
    <glyph glyph-name="uni03BC" unicode="&#x3bc;" horiz-adv-x="558" 
d="M508 92l17 -76q-35 -24 -89 -24q-77 0 -89 79h-3q-50 -79 -124 -79q-52 0 -74 35l-2 -1q3 -56 -3 -110l-15 -114h-108l84 686h109l-36 -295q-4 -52 12 -76.5t45 -24.5q45 0 81 38t47 114l30 244h109l-42 -343q-5 -32 0.5 -43.5t25.5 -11.5q5 0 25 2z" />
    <glyph glyph-name="nu" unicode="&#x3bd;" horiz-adv-x="520" 
d="M393 488h116q-61 -301 -231 -488h-125l-101 488h117l69 -383h2q107 158 153 383z" />
    <glyph glyph-name="xi" unicode="&#x3be;" horiz-adv-x="451" 
d="M478 645q-109 -16 -175 -55t-66 -98q0 -68 125 -68h50l-12 -93h-78q-77 0 -124.5 -30t-47.5 -86q0 -39 28 -62t93 -52q71 -32 99 -60t28 -79q0 -42 -28.5 -92.5t-68.5 -91.5l-86 57q71 73 71 113q0 20 -15 34t-54 30q-40 17 -65.5 30.5t-54.5 36t-43.5 52.5t-14.5 69
q0 67 36 115t98 72v3q-47 32 -47 89q0 107 119 163v1h-118l12 93h350z" />
    <glyph glyph-name="omicron" unicode="&#x3bf;" horiz-adv-x="537" 
d="M297 496q92 0 146.5 -52t54.5 -147q0 -132 -67.5 -218.5t-188.5 -86.5q-96 0 -149.5 53.5t-53.5 149.5q0 127 68 214t190 87zM289 396q-60 0 -99.5 -57t-39.5 -130q0 -52 25 -84.5t71 -32.5q63 0 102 56t39 138q0 61 -29.5 85.5t-68.5 24.5z" />
    <glyph glyph-name="pi" unicode="&#x3c0;" horiz-adv-x="578" 
d="M479 395l-30 -246q-4 -34 1.5 -46.5t25.5 -12.5q6 0 30 4l16 -78q-38 -24 -85 -24q-52 0 -79.5 36t-18.5 110l32 257h-138l-48 -395h-109l48 395h-81l12 83q56 10 103 10h427l-16 -93h-90z" />
    <glyph glyph-name="rho" unicode="&#x3c1;" horiz-adv-x="548" 
d="M308 495q98 0 150.5 -57t52.5 -145q0 -135 -67 -218t-165 -83q-83 0 -127 49h-3l-29 -239h-110l54 442q15 127 79 189t165 62zM267 92q56 0 94.5 54t38.5 138q0 48 -28.5 80t-68.5 32q-51 0 -85.5 -39t-43.5 -116l-9 -76q11 -33 38 -53t64 -20z" />
    <glyph glyph-name="uni03C2" unicode="&#x3c2;" horiz-adv-x="461" 
d="M150 209q0 -14 2.5 -25.5t5 -19.5t11 -16.5t12.5 -13t18 -11.5t19.5 -9.5t24.5 -11t26 -11.5q64 -29 90.5 -57.5t26.5 -69.5q0 -30 -16 -66t-33.5 -60.5t-46.5 -59.5l-86 57q25 27 34 37.5t23 34.5t14 42t-15 30t-62 31q-36 15 -57.5 26.5t-48.5 34.5t-40 56.5t-13 78.5
q0 117 72 203.5t185 86.5q53 0 98.5 -21.5t71.5 -60.5l-86 -64q-30 46 -80 46q-65 0 -107.5 -54t-42.5 -133z" />
    <glyph glyph-name="sigma" unicode="&#x3c3;" horiz-adv-x="561" 
d="M546 395h-89l-1 -2q39 -52 39 -121q0 -113 -71 -196t-188 -83q-90 0 -143.5 54.5t-53.5 152.5q0 123 65.5 205.5t185.5 82.5h268zM241 93q61 0 102 53t41 135q0 83 -50 114h-42q-68 0 -105.5 -53t-37.5 -136q0 -48 25 -80.5t67 -32.5z" />
    <glyph glyph-name="tau" unicode="&#x3c4;" horiz-adv-x="429" 
d="M128 149l30 246h-120l11 93h383l-12 -93h-152l-29 -240q-8 -63 32 -63q32 0 68 20l18 -86q-57 -34 -124 -34q-123 0 -105 157z" />
    <glyph glyph-name="upsilon" unicode="&#x3c5;" horiz-adv-x="530" 
d="M235 -8q-83 0 -125.5 48t-40.5 123q1 34 8 75.5t15.5 79t10.5 49.5q4 35 -23 35q-10 0 -21 -3l-3 81q43 16 77 16q37 0 60.5 -25.5t20.5 -75.5q-1 -26 -17 -100t-17 -118q-2 -85 64 -85q36 0 64 25.5t44.5 68.5t24.5 93.5t8 105.5q0 52 -7 97l102 17q16 -65 16 -125
q0 -166 -66.5 -274t-194.5 -108z" />
    <glyph glyph-name="phi" unicode="&#x3c6;" horiz-adv-x="653" 
d="M456 494q70 -2 118 -53t47 -147q-3 -131 -81 -213t-190 -88l-23 -191h-109l24 191q-86 2 -145 62.5t-59 156.5q0 172 130 294l89 -30q-108 -121 -108 -249q0 -60 28.5 -97t76.5 -37l28 228q11 88 59 131.5t115 41.5zM362 93q63 6 105.5 65t42.5 141q0 45 -16.5 70.5
t-41.5 24.5q-53 0 -64 -81z" />
    <glyph glyph-name="chi" unicode="&#x3c7;" horiz-adv-x="479" 
d="M398 -113q7 0 25 4l4 -81q-37 -16 -64 -16t-44.5 7t-29.5 26.5t-18.5 36t-16.5 51.5l-39 133h-2l-148 -246h-122l232 363l-67 196q-14 42 -36 42q-5 0 -25 -4l-4 81q37 16 64 16q51 0 71 -27.5t38 -93.5l27 -97h2l127 210h125l-215 -328l80 -231q15 -42 36 -42z" />
    <glyph glyph-name="psi" unicode="&#x3c8;" horiz-adv-x="661" 
d="M628 364q0 -154 -69.5 -261t-204.5 -111l-24 -190h-109l23 190q-81 2 -139 48t-58 132q0 48 18 123t18 117q0 50 -9 76h111q10 -23 10 -78q0 -45 -18 -114t-18 -108q0 -88 98 -96l67 550l110 8l-68 -558q41 4 71.5 31t47.5 69.5t24.5 90t7.5 99.5q0 56 -8 103l101 16
q18 -70 18 -137z" />
    <glyph glyph-name="omega" unicode="&#x3c9;" horiz-adv-x="696" 
d="M603 501q53 -98 53 -226q0 -112 -56.5 -197.5t-148.5 -85.5q-98 0 -125 77h-3q-47 -77 -137 -77q-65 0 -106.5 49.5t-41.5 142.5q0 184 119 320l96 -26q-52 -66 -78 -143t-26 -142q0 -101 57 -101q32 0 56 43t33 120l14 110h108l-20 -163q-4 -51 8.5 -80.5t40.5 -29.5
q48 0 73.5 58.5t25.5 134.5q0 109 -40 197z" />
    <glyph glyph-name="iotadieresis" unicode="&#x3ca;" horiz-adv-x="303" 
d="M73 707q30 0 50.5 -20t20.5 -51q0 -32 -21 -53t-53 -21q-31 0 -51.5 20.5t-20.5 50.5q0 32 21.5 53t53.5 21zM293 707q31 0 51 -20t20 -51q0 -32 -21 -53t-53 -21q-31 0 -51.5 20.5t-20.5 50.5q0 32 21.5 53t53.5 21zM269 13q-53 -21 -98 -21q-122 0 -104 141l44 355h108
l-41 -339q-8 -58 39 -58q13 0 35 5z" />
    <glyph glyph-name="upsilondieresis" unicode="&#x3cb;" horiz-adv-x="530" 
d="M214 707q30 0 50.5 -20t20.5 -51q0 -32 -21.5 -53t-52.5 -21t-51.5 20.5t-20.5 50.5q0 32 21.5 53t53.5 21zM434 707q31 0 51 -20t20 -51q0 -32 -21 -53t-53 -21q-31 0 -51.5 20.5t-20.5 50.5q0 32 21.5 53t53.5 21zM235 -8q-83 0 -125.5 48t-40.5 123q1 34 8 75.5
t15.5 79t10.5 49.5q4 35 -23 35q-10 0 -21 -3l-3 81q43 16 77 16q37 0 60.5 -25.5t20.5 -75.5q-1 -26 -17 -100t-17 -118q-2 -85 64 -85q36 0 64 25.5t44.5 68.5t24.5 93.5t8 105.5q0 52 -7 97l102 17q16 -65 16 -125q0 -166 -66.5 -274t-194.5 -108z" />
    <glyph glyph-name="omicrontonos" unicode="&#x3cc;" horiz-adv-x="537" 
d="M338 725h132l-102 -169h-108zM297 496q92 0 146.5 -52t54.5 -147q0 -132 -67.5 -218.5t-188.5 -86.5q-96 0 -149.5 53.5t-53.5 149.5q0 127 68 214t190 87zM289 396q-60 0 -99.5 -57t-39.5 -130q0 -52 25 -84.5t71 -32.5q63 0 102 56t39 138q0 61 -29.5 85.5t-68.5 24.5z
" />
    <glyph glyph-name="upsilontonos" unicode="&#x3cd;" horiz-adv-x="530" 
d="M339 725h132l-102 -169h-108zM235 -8q-83 0 -125.5 48t-40.5 123q1 34 8 75.5t15.5 79t10.5 49.5q4 35 -23 35q-10 0 -21 -3l-3 81q43 16 77 16q37 0 60.5 -25.5t20.5 -75.5q-1 -26 -17 -100t-17 -118q-2 -85 64 -85q36 0 64 25.5t44.5 68.5t24.5 93.5t8 105.5
q0 52 -7 97l102 17q16 -65 16 -125q0 -166 -66.5 -274t-194.5 -108z" />
    <glyph glyph-name="omegatonos" unicode="&#x3ce;" horiz-adv-x="696" 
d="M547 725l-102 -169h-108l78 169h132zM603 501q53 -98 53 -226q0 -112 -56.5 -197.5t-148.5 -85.5q-98 0 -125 77h-3q-47 -77 -137 -77q-65 0 -106.5 49.5t-41.5 142.5q0 184 119 320l96 -26q-52 -66 -78 -143t-26 -142q0 -101 57 -101q32 0 56 43t33 120l14 110h108
l-20 -163q-4 -51 8.5 -80.5t40.5 -29.5q48 0 73.5 58.5t25.5 134.5q0 109 -40 197z" />
    <glyph glyph-name="uni03D7" unicode="&#x3d7;" horiz-adv-x="627" 
d="M459 83q36 -14 118 -11l-8 -60q-130 -125 -216.5 -176.5t-190.5 -51.5q-120 0 -198 69l52 66q67 -45 137 -45q115 0 263 117v2q-100 9 -121 149l-10 69h-2q-45 -48 -126 -139l-9 -72h-104l60 488h109l-24 -198q-2 -19 -12 -68h2q108 138 270 288l72 -67
q-69 -59 -156 -146l31 -125q15 -68 63 -89z" />
    <glyph glyph-name="Wgrave" unicode="&#x1e80;" horiz-adv-x="949" 
d="M601 787h-111l-94 145l122 -1zM846 710h128l-289 -710h-118l-59 507h-2l-184 -507h-117l-114 710h123l72 -504h3l176 504h134l53 -499h3z" />
    <glyph glyph-name="wgrave" unicode="&#x1e81;" horiz-adv-x="704" 
d="M455 556h-111l-94 145l122 -1zM668 488q13 -72 5 -161q-7 -84 -32.5 -150t-61.5 -105.5t-77.5 -59.5t-83.5 -20q-94 0 -113 86h-3q-49 -86 -130 -86q-68 0 -97.5 52.5t-16.5 153.5l36 290h110l-35 -281q-14 -115 32 -115q28 0 58 39.5t41 109.5l32 247h109l-35 -285
q-14 -111 30 -111q34 0 75 68t53 181q5 58 -7 147h111z" />
    <glyph glyph-name="Wacute" unicode="&#x1e82;" horiz-adv-x="949" 
d="M731 932l-129 -145h-111l119 144zM846 710h128l-289 -710h-118l-59 507h-2l-184 -507h-117l-114 710h123l72 -504h3l176 504h134l53 -499h3z" />
    <glyph glyph-name="wacute" unicode="&#x1e83;" horiz-adv-x="704" 
d="M580 701l-129 -145h-111l119 144zM668 488q13 -72 5 -161q-7 -84 -32.5 -150t-61.5 -105.5t-77.5 -59.5t-83.5 -20q-94 0 -113 86h-3q-49 -86 -130 -86q-68 0 -97.5 52.5t-16.5 153.5l36 290h110l-35 -281q-14 -115 32 -115q28 0 58 39.5t41 109.5l32 247h109l-35 -285
q-14 -111 30 -111q34 0 75 68t53 181q5 58 -7 147h111z" />
    <glyph glyph-name="Wdieresis" unicode="&#x1e84;" horiz-adv-x="949" 
d="M457 793q-31 0 -51.5 20.5t-20.5 50.5q0 32 21.5 53t53.5 21q30 0 50.5 -20t20.5 -51t-21.5 -52.5t-52.5 -21.5zM647 793q-31 0 -51.5 20.5t-20.5 50.5q0 32 21.5 53t53.5 21q30 0 50.5 -20t20.5 -51t-21.5 -52.5t-52.5 -21.5zM846 710h128l-289 -710h-118l-59 507h-2
l-184 -507h-117l-114 710h123l72 -504h3l176 504h134l53 -499h3z" />
    <glyph glyph-name="wdieresis" unicode="&#x1e85;" horiz-adv-x="704" 
d="M309 562q-31 0 -51.5 20.5t-20.5 50.5q0 32 21.5 53t53.5 21q30 0 50.5 -20t20.5 -51q0 -32 -21.5 -53t-52.5 -21zM499 562q-31 0 -51.5 20.5t-20.5 50.5q0 32 21.5 53t53.5 21q30 0 50.5 -20t20.5 -51q0 -32 -21.5 -53t-52.5 -21zM668 488q13 -72 5 -161
q-7 -84 -32.5 -150t-61.5 -105.5t-77.5 -59.5t-83.5 -20q-94 0 -113 86h-3q-49 -86 -130 -86q-68 0 -97.5 52.5t-16.5 153.5l36 290h110l-35 -281q-14 -115 32 -115q28 0 58 39.5t41 109.5l32 247h109l-35 -285q-14 -111 30 -111q34 0 75 68t53 181q5 58 -7 147h111z" />
    <glyph glyph-name="uni1E9E" unicode="&#x1e9e;" horiz-adv-x="731" 
d="M525 405q10 -5 37.5 -21t38 -22.5t32 -21t30.5 -25.5t21 -27.5t16.5 -35t4.5 -40.5q0 -103 -66 -161.5t-158 -58.5q-64 0 -121.5 25.5t-93.5 66.5l64 103q21 -43 60.5 -65.5t83.5 -22.5q45 0 76 30t31 72q0 16 -4 27.5t-18 23.5t-22.5 18t-36.5 21t-40 22q-23 14 -84 45
l150 238v2q-86 11 -136 11q-77 0 -117.5 -31t-49.5 -105l-59 -473h-117l59 479q30 239 285 239q115 0 305 -47l-171 -265v-1z" />
    <glyph glyph-name="uni1EA0" unicode="&#x1ea0;" 
d="M593 0h-122l-29 154h-255l-67 -154h-124l324 710h123zM231 257h192l-58 305h-2zM278 -99q31 0 51 -20.5t20 -50.5q0 -32 -21 -53t-53 -21q-31 0 -51.5 20t-20.5 51q0 32 21.5 53t53.5 21z" />
    <glyph glyph-name="uni1EA1" unicode="&#x1ea1;" horiz-adv-x="562" 
d="M415 488h109l-60 -488h-109l11 93h-1q-33 -49 -75 -75t-83 -26q-83 0 -125.5 55.5t-42.5 142.5q0 121 67.5 213.5t172.5 92.5q82 0 129 -47h2zM228 89q54 0 104 67.5t64 175.5l2 18q-46 46 -111 46q-61 0 -99 -64t-38 -144q0 -46 20 -72.5t58 -26.5zM232 -99
q31 0 51 -20.5t20 -50.5q0 -32 -21 -53t-53 -21q-31 0 -51.5 20t-20.5 51q0 32 21.5 53t53.5 21z" />
    <glyph glyph-name="uni1EA2" unicode="&#x1ea2;" 
d="M415 889q-40 0 -71 -33l-38 46q48 46 115 46q41 0 63 -20t22 -53q-2 -67 -89 -85l-13 -26l-39 2q-16 16 -15 33q2 14 44 35t42 41q0 14 -21 14zM471 0l-29 154h-255l-67 -154h-124l324 710h123l150 -710h-122zM231 257h192l-58 305h-2z" />
    <glyph glyph-name="uni1EA3" unicode="&#x1ea3;" horiz-adv-x="562" 
d="M349 658q-40 0 -71 -33l-38 46q48 46 115 46q41 0 63 -20t22 -53q-2 -67 -89 -85l-13 -26l-39 2q-16 16 -15 33q2 14 44 35t42 41q0 14 -21 14zM415 488h109l-60 -488h-109l11 93h-1q-33 -49 -75 -75t-83 -26q-83 0 -125.5 55.5t-42.5 142.5q0 121 67.5 213.5t172.5 92.5
q82 0 129 -47h2zM228 89q54 0 104 67.5t64 175.5l2 18q-46 46 -111 46q-61 0 -99 -64t-38 -144q0 -46 20 -72.5t58 -26.5z" />
    <glyph glyph-name="uni1EA4" unicode="&#x1ea4;" 
d="M653 953l120 1l-154 -145h-81zM400 846l-55 -76h-110l118 147h104l87 -147h-106l-36 76h-2zM320 710h123l150 -710h-122l-29 154h-255l-67 -154h-124zM231 257h192l-58 305h-2z" />
    <glyph glyph-name="uni1EA5" unicode="&#x1ea5;" horiz-adv-x="562" 
d="M668 789l-154 -145h-81l115 145h120zM337 630l-55 -76h-110l118 147h104l87 -147h-106l-36 76h-2zM410 449l5 39h109l-60 -488h-109l11 93h-1q-33 -49 -75 -75t-83 -26q-83 0 -125.5 55.5t-42.5 142.5q0 121 67.5 213.5t172.5 92.5q82 0 129 -47h2zM228 89q54 0 104 67.5
t64 175.5l2 18q-46 46 -111 46q-61 0 -99 -64t-38 -144q0 -46 20 -72.5t58 -26.5z" />
    <glyph glyph-name="uni1EA6" unicode="&#x1ea6;" 
d="M668 808h-81l-106 145h120zM400 846l-55 -76h-110l118 147h104l87 -147h-106l-36 76h-2zM320 710h123l150 -710h-122l-29 154h-255l-67 -154h-124zM231 257h192l-58 305h-2z" />
    <glyph glyph-name="uni1EA7" unicode="&#x1ea7;" horiz-adv-x="562" 
d="M544 644h-81l-106 145h120zM336 630l-55 -76h-110l118 147h104l87 -147h-106l-36 76h-2zM410 449l5 39h109l-60 -488h-109l11 93h-1q-33 -49 -75 -75t-83 -26q-83 0 -125.5 55.5t-42.5 142.5q0 121 67.5 213.5t172.5 92.5q82 0 129 -47h2zM228 89q54 0 104 67.5t64 175.5
l2 18q-46 46 -111 46q-61 0 -99 -64t-38 -144q0 -46 20 -72.5t58 -26.5z" />
    <glyph glyph-name="uni1EA8" unicode="&#x1ea8;" 
d="M619 962q40 0 62 -20t22 -52q0 -67 -88 -86l-13 -26l-39 2q-16 18 -15 33q1 14 43 35.5t43 40.5q0 14 -21 14q-41 0 -71 -32l-38 45q20 20 52 33t63 13zM402 846l-55 -76h-110l118 147h104l87 -147h-106l-36 76h-2zM320 710h123l150 -710h-122l-29 154h-255l-67 -154
h-124zM231 257h192l-58 305h-2z" />
    <glyph glyph-name="uni1EA9" unicode="&#x1ea9;" horiz-adv-x="562" 
d="M519 802q41 0 63 -20.5t22 -52.5q-2 -66 -89 -86l-13 -25l-39 1q-16 18 -15 33q2 14 44 35.5t42 40.5q0 15 -21 15q-38 0 -71 -33l-38 45q21 21 53 34t62 13zM337 630l-55 -76h-110l118 147h104l87 -147h-106l-36 76h-2zM410 449l5 39h109l-60 -488h-109l11 93h-1
q-33 -49 -75 -75t-83 -26q-83 0 -125.5 55.5t-42.5 142.5q0 121 67.5 213.5t172.5 92.5q82 0 129 -47h2zM228 89q54 0 104 67.5t64 175.5l2 18q-46 46 -111 46q-61 0 -99 -64t-38 -144q0 -46 20 -72.5t58 -26.5z" />
    <glyph glyph-name="uni1EAA" unicode="&#x1eaa;" 
d="M362 912q-21 0 -44 -37l-51 24q35 73 85 73q31 0 66 -26q26 -10 35 -10q31 0 53 37l50 -19q-33 -79 -91 -79q-29 0 -60 23q-32 14 -43 14zM396 805l-64 -68h-96l118 122h92l92 -122h-93l-46 68h-3zM471 0l-29 154h-255l-67 -154h-124l324 710h123l150 -710h-122zM231 257
h192l-58 305h-2z" />
    <glyph glyph-name="uni1EAB" unicode="&#x1eab;" horiz-adv-x="562" 
d="M313 769q-32 0 -57 -54l-63 35q42 107 110 107q13 0 24.5 -3.5t16.5 -6.5t16 -11t12 -9q31 -23 43 -23q34 0 57 53l63 -26q-41 -116 -108 -116q-8 0 -16 2t-13.5 4t-13 6t-10.5 6.5t-10 7.5t-8 6q-28 22 -43 22zM337 630l-55 -76h-110l118 147h104l87 -147h-106l-36 76
h-2zM410 449l5 39h109l-60 -488h-109l11 93h-1q-33 -49 -75 -75t-83 -26q-83 0 -125.5 55.5t-42.5 142.5q0 121 67.5 213.5t172.5 92.5q82 0 129 -47h2zM228 89q54 0 104 67.5t64 175.5l2 18q-46 46 -111 46q-61 0 -99 -64t-38 -144q0 -46 20 -72.5t58 -26.5z" />
    <glyph glyph-name="uni1EAC" unicode="&#x1eac;" 
d="M404 861l-55 -76h-110l118 147h104l87 -147h-106l-36 76h-2zM593 0h-122l-29 154h-255l-67 -154h-124l324 710h123zM231 257h192l-58 305h-2zM278 -99q31 0 51 -20.5t20 -50.5q0 -32 -21 -53t-53 -21q-31 0 -51.5 20t-20.5 51q0 32 21.5 53t53.5 21z" />
    <glyph glyph-name="uni1EAD" unicode="&#x1ead;" horiz-adv-x="562" 
d="M338 630l-55 -76h-110l118 147h104l87 -147h-106l-36 76h-2zM415 488h109l-60 -488h-109l11 93h-1q-33 -49 -75 -75t-83 -26q-83 0 -125.5 55.5t-42.5 142.5q0 121 67.5 213.5t172.5 92.5q82 0 129 -47h2zM228 89q54 0 104 67.5t64 175.5l2 18q-46 46 -111 46
q-61 0 -99 -64t-38 -144q0 -46 20 -72.5t58 -26.5zM232 -99q31 0 51 -20.5t20 -50.5q0 -32 -21 -53t-53 -21q-31 0 -51.5 20t-20.5 51q0 32 21.5 53t53.5 21z" />
    <glyph glyph-name="uni1EAE" unicode="&#x1eae;" 
d="M570 950l-134 -101h-82l109 100zM390 743q-57 0 -94 31t-41 86h69q7 -54 73 -54q50 0 78 54h72q-18 -54 -59.5 -85.5t-97.5 -31.5zM471 0l-29 154h-255l-67 -154h-124l324 710h123l150 -710h-122zM231 257h192l-58 305h-2z" />
    <glyph glyph-name="uni1EAF" unicode="&#x1eaf;" horiz-adv-x="562" 
d="M517 857l-129 -145h-111l119 144zM332 551q-63 0 -101 39t-32 107h85q-7 -69 49 -69q28 0 48 19.5t26 49.5h85q-13 -67 -55.5 -106.5t-104.5 -39.5zM415 488h109l-60 -488h-109l11 93h-1q-33 -49 -75 -75t-83 -26q-83 0 -125.5 55.5t-42.5 142.5q0 121 67.5 213.5
t172.5 92.5q82 0 129 -47h2zM228 89q54 0 104 67.5t64 175.5l2 18q-46 46 -111 46q-61 0 -99 -64t-38 -144q0 -46 20 -72.5t58 -26.5z" />
    <glyph glyph-name="uni1EB0" unicode="&#x1eb0;" 
d="M445 849h-82l-120 101l110 -1zM324 860q7 -54 73 -54q50 0 78 54h72q-18 -54 -59.5 -85.5t-97.5 -31.5q-57 0 -94 31t-41 86h69zM471 0l-29 154h-255l-67 -154h-124l324 710h123l150 -710h-122zM231 257h192l-58 305h-2z" />
    <glyph glyph-name="uni1EB1" unicode="&#x1eb1;" horiz-adv-x="562" 
d="M384 712h-111l-94 145l122 -1zM331 628q28 0 48 19.5t26 49.5h85q-13 -67 -55.5 -106.5t-104.5 -39.5q-63 0 -101 39t-32 107h85q-7 -69 49 -69zM415 488h109l-60 -488h-109l11 93h-1q-33 -49 -75 -75t-83 -26q-83 0 -125.5 55.5t-42.5 142.5q0 121 67.5 213.5
t172.5 92.5q82 0 129 -47h2zM228 89q54 0 104 67.5t64 175.5l2 18q-46 46 -111 46q-61 0 -99 -64t-38 -144q0 -46 20 -72.5t58 -26.5z" />
    <glyph glyph-name="uni1EB2" unicode="&#x1eb2;" 
d="M411 917q-35 0 -64 -29l-34 41q18 18 46.5 29.5t54.5 11.5q34 0 52.5 -17.5t18.5 -45.5q0 -55 -72 -74l-11 -12h-21q-20 0 -20 19q0 15 33.5 34t33.5 30q0 13 -17 13zM390 743q-57 0 -94 31t-41 86h69q7 -54 73 -54q50 0 78 54h72q-18 -54 -59.5 -85.5t-97.5 -31.5z
M471 0l-29 154h-255l-67 -154h-124l324 710h123l150 -710h-122zM231 257h192l-58 305h-2z" />
    <glyph glyph-name="uni1EB3" unicode="&#x1eb3;" horiz-adv-x="562" 
d="M371 819q-40 0 -71 -33l-38 46q48 46 115 46q41 0 63 -20t22 -53q-2 -67 -89 -85l-13 -26l-39 2q-16 16 -15 33q2 14 44 35t42 41q0 14 -21 14zM335 551q-63 0 -101 39t-32 107h85q-7 -69 49 -69q28 0 48 19.5t26 49.5h85q-13 -67 -55.5 -106.5t-104.5 -39.5zM415 488
h109l-60 -488h-109l11 93h-1q-33 -49 -75 -75t-83 -26q-83 0 -125.5 55.5t-42.5 142.5q0 121 67.5 213.5t172.5 92.5q82 0 129 -47h2zM228 89q54 0 104 67.5t64 175.5l2 18q-46 46 -111 46q-61 0 -99 -64t-38 -144q0 -46 20 -72.5t58 -26.5z" />
    <glyph glyph-name="uni1EB4" unicode="&#x1eb4;" 
d="M345 912q-21 0 -44 -35l-55 20q38 75 96 75q31 0 72 -23q24 -13 40 -13q31 0 53 35l55 -15q-36 -81 -103 -81q-26 0 -66 20q-30 17 -48 17zM397 806q50 0 78 54h72q-18 -54 -59.5 -85.5t-97.5 -31.5q-57 0 -94 31t-41 86h69q7 -54 73 -54zM471 0l-29 154h-255l-67 -154
h-124l324 710h123l150 -710h-122zM231 257h192l-58 305h-2z" />
    <glyph glyph-name="uni1EB5" unicode="&#x1eb5;" horiz-adv-x="562" 
d="M312 769q-32 0 -57 -54l-63 35q42 107 110 107q13 0 24.5 -3.5t16.5 -6.5t16 -11t12 -9q31 -23 43 -23q34 0 57 53l63 -26q-41 -116 -108 -116q-8 0 -16 2t-13.5 4t-13 6t-10.5 6.5t-10 7.5t-8 6q-27 22 -43 22zM197 697h85q-7 -69 49 -69q28 0 48 19.5t26 49.5h85
q-13 -67 -55.5 -106.5t-104.5 -39.5q-63 0 -101 39t-32 107zM410 449l5 39h109l-60 -488h-109l11 93h-1q-33 -49 -75 -75t-83 -26q-83 0 -125.5 55.5t-42.5 142.5q0 121 67.5 213.5t172.5 92.5q82 0 129 -47h2zM228 89q54 0 104 67.5t64 175.5l2 18q-46 46 -111 46
q-61 0 -99 -64t-38 -144q0 -46 20 -72.5t58 -26.5z" />
    <glyph glyph-name="uni1EB6" unicode="&#x1eb6;" 
d="M400 782q-63 0 -101 39t-32 107h85q-7 -69 49 -69q28 0 48 19.5t26 49.5h85q-13 -67 -55.5 -106.5t-104.5 -39.5zM593 0h-122l-29 154h-255l-67 -154h-124l324 710h123zM231 257h192l-58 305h-2zM278 -99q31 0 51 -20.5t20 -50.5q0 -32 -21 -53t-53 -21q-31 0 -51.5 20
t-20.5 51q0 32 21.5 53t53.5 21z" />
    <glyph glyph-name="uni1EB7" unicode="&#x1eb7;" horiz-adv-x="562" 
d="M334 551q-63 0 -101 39t-32 107h85q-7 -69 49 -69q28 0 48 19.5t26 49.5h85q-13 -67 -55.5 -106.5t-104.5 -39.5zM415 488h109l-60 -488h-109l11 93h-1q-33 -49 -75 -75t-83 -26q-83 0 -125.5 55.5t-42.5 142.5q0 121 67.5 213.5t172.5 92.5q82 0 129 -47h2zM228 89
q54 0 104 67.5t64 175.5l2 18q-46 46 -111 46q-61 0 -99 -64t-38 -144q0 -46 20 -72.5t58 -26.5zM232 -99q31 0 51 -20.5t20 -50.5q0 -32 -21 -53t-53 -21q-31 0 -51.5 20t-20.5 51q0 32 21.5 53t53.5 21z" />
    <glyph glyph-name="uni1EB8" unicode="&#x1eb8;" horiz-adv-x="575" 
d="M502 106l-13 -106h-427l87 710h409l-14 -106h-291l-24 -199h235l-13 -106h-235l-24 -193h310zM261 -244q-31 0 -51.5 20t-20.5 51q0 32 21.5 53t53.5 21q31 0 51 -20.5t20 -50.5q0 -32 -21 -53t-53 -21z" />
    <glyph glyph-name="uni1EB9" unicode="&#x1eb9;" horiz-adv-x="479" 
d="M243 93q60 0 111 52l86 -62q-46 -46 -90.5 -68t-110.5 -22q-92 0 -145 54t-53 149q0 125 69 212.5t187 87.5q65 0 111 -35.5t46 -97.5q0 -59 -45 -102t-108.5 -64t-146.5 -31l-2 -1q9 -35 34 -53.5t57 -18.5zM292 396q-44 0 -83.5 -34.5t-53.5 -101.5l1 -1q187 24 187 99
q0 38 -51 38zM221 -99q31 0 51 -20.5t20 -50.5q0 -32 -21 -53t-53 -21q-31 0 -51.5 20t-20.5 51q0 32 21.5 53t53.5 21z" />
    <glyph glyph-name="uni1EBA" unicode="&#x1eba;" horiz-adv-x="575" 
d="M316 856l-38 46q48 46 115 46q41 0 63 -20t22 -53q-2 -67 -89 -85l-13 -26l-39 2q-16 16 -15 33q2 14 44 35t42 41q0 14 -21 14q-40 0 -71 -33zM502 106l-13 -106h-427l87 710h409l-14 -106h-291l-24 -199h235l-13 -106h-235l-24 -193h310z" />
    <glyph glyph-name="uni1EBB" unicode="&#x1ebb;" horiz-adv-x="479" 
d="M329 658q-40 0 -71 -33l-38 46q48 46 115 46q41 0 63 -20t22 -53q-2 -67 -89 -85l-13 -26l-39 2q-16 16 -15 33q2 14 44 35t42 41q0 14 -21 14zM243 93q60 0 111 52l86 -62q-46 -46 -90.5 -68t-110.5 -22q-92 0 -145 54t-53 149q0 125 69 212.5t187 87.5q65 0 111 -35.5
t46 -97.5q0 -59 -45 -102t-108.5 -64t-146.5 -31l-2 -1q9 -35 34 -53.5t57 -18.5zM292 396q-44 0 -83.5 -34.5t-53.5 -101.5l1 -1q187 24 187 99q0 38 -51 38z" />
    <glyph glyph-name="uni1EBC" unicode="&#x1ebc;" horiz-adv-x="575" 
d="M196 820q45 107 118 107q14 0 26 -3.5t17.5 -6.5t17 -11t12.5 -9q33 -23 47 -23q37 0 60 53l68 -26q-20 -55 -50.5 -85.5t-65.5 -30.5q-10 0 -19.5 2t-18.5 6.5t-14 7.5t-13.5 8.5t-10.5 7.5q-29 22 -46 22q-36 0 -60 -54zM502 106l-13 -106h-427l87 710h409l-14 -106
h-291l-24 -199h235l-13 -106h-235l-24 -193h310z" />
    <glyph glyph-name="uni1EBD" unicode="&#x1ebd;" horiz-adv-x="479" 
d="M266 608q-36 0 -60 -54l-68 35q45 107 118 107q14 0 26 -3.5t17.5 -6.5t17 -11t12.5 -9q33 -23 47 -23q37 0 60 53l68 -26q-20 -55 -50.5 -85.5t-65.5 -30.5q-10 0 -19.5 2t-18.5 6.5t-14 7.5t-13.5 8.5t-10.5 7.5q-29 22 -46 22zM454 363q0 -59 -45 -102t-108.5 -64
t-146.5 -31l-2 -1q9 -35 34 -53.5t57 -18.5q60 0 111 52l86 -62q-46 -46 -90.5 -68t-110.5 -22q-92 0 -145 54t-53 149q0 125 69 212.5t187 87.5q65 0 111 -35.5t46 -97.5zM292 396q-44 0 -83.5 -34.5t-53.5 -101.5l1 -1q187 24 187 99q0 38 -51 38z" />
    <glyph glyph-name="uni1EBE" unicode="&#x1ebe;" horiz-adv-x="575" 
d="M625 953l120 1l-154 -145h-81zM372 846l-55 -76h-110l118 147h104l87 -147h-106l-36 76h-2zM62 0l87 710h409l-14 -106h-291l-24 -199h235l-13 -106h-235l-24 -193h310l-13 -106h-427z" />
    <glyph glyph-name="uni1EBF" unicode="&#x1ebf;" horiz-adv-x="479" 
d="M528 789h120l-154 -145h-81zM270 701h104l87 -147h-106l-36 76h-2l-55 -76h-110zM454 363q0 -59 -45 -102t-108.5 -64t-146.5 -31l-2 -1q9 -35 34 -53.5t57 -18.5q60 0 111 52l86 -62q-46 -46 -90.5 -68t-110.5 -22q-92 0 -145 54t-53 149q0 125 69 212.5t187 87.5
q65 0 111 -35.5t46 -97.5zM292 396q-44 0 -83.5 -34.5t-53.5 -101.5l1 -1q187 24 187 99q0 38 -51 38z" />
    <glyph glyph-name="uni1EC0" unicode="&#x1ec0;" horiz-adv-x="575" 
d="M573 953l67 -145h-81l-106 145h120zM372 846l-55 -76h-110l118 147h104l87 -147h-106l-36 76h-2zM62 0l87 710h409l-14 -106h-291l-24 -199h235l-13 -106h-235l-24 -193h310l-13 -106h-427z" />
    <glyph glyph-name="uni1EC1" unicode="&#x1ec1;" horiz-adv-x="479" 
d="M524 644h-81l-106 145h120zM269 701h104l87 -147h-106l-36 76h-2l-55 -76h-110zM454 363q0 -59 -45 -102t-108.5 -64t-146.5 -31l-2 -1q9 -35 34 -53.5t57 -18.5q60 0 111 52l86 -62q-46 -46 -90.5 -68t-110.5 -22q-92 0 -145 54t-53 149q0 125 69 212.5t187 87.5
q65 0 111 -35.5t46 -97.5zM292 396q-44 0 -83.5 -34.5t-53.5 -101.5l1 -1q187 24 187 99q0 38 -51 38z" />
    <glyph glyph-name="uni1EC2" unicode="&#x1ec2;" horiz-adv-x="575" 
d="M591 962q40 0 62 -20t22 -52q0 -67 -88 -86l-13 -26l-39 2q-16 18 -15 33q1 14 43 35.5t43 40.5q0 14 -21 14q-41 0 -71 -32l-38 45q20 20 52 33t63 13zM374 846l-55 -76h-110l118 147h104l87 -147h-106l-36 76h-2zM62 0l87 710h409l-14 -106h-291l-24 -199h235l-13 -106
h-235l-24 -193h310l-13 -106h-427z" />
    <glyph glyph-name="uni1EC3" unicode="&#x1ec3;" horiz-adv-x="479" 
d="M499 802q41 0 63 -20.5t22 -52.5q-2 -66 -89 -86l-13 -25l-39 1q-16 18 -15 33q2 14 44 35.5t42 40.5q0 15 -21 15q-38 0 -71 -33l-38 45q21 21 53 34t62 13zM270 701h104l87 -147h-106l-36 76h-2l-55 -76h-110zM454 363q0 -59 -45 -102t-108.5 -64t-146.5 -31l-2 -1
q9 -35 34 -53.5t57 -18.5q60 0 111 52l86 -62q-46 -46 -90.5 -68t-110.5 -22q-92 0 -145 54t-53 149q0 125 69 212.5t187 87.5q65 0 111 -35.5t46 -97.5zM292 396q-44 0 -83.5 -34.5t-53.5 -101.5l1 -1q187 24 187 99q0 38 -51 38z" />
    <glyph glyph-name="uni1EC4" unicode="&#x1ec4;" horiz-adv-x="575" 
d="M334 912q-21 0 -44 -37l-51 24q35 73 85 73q31 0 66 -26q26 -10 35 -10q31 0 53 37l50 -19q-33 -79 -91 -79q-29 0 -60 23q-32 14 -43 14zM368 805l-64 -68h-96l118 122h92l92 -122h-93l-46 68h-3zM544 604h-291l-24 -199h235l-13 -106h-235l-24 -193h310l-13 -106h-427
l87 710h409z" />
    <glyph glyph-name="uni1EC5" unicode="&#x1ec5;" horiz-adv-x="479" 
d="M452 857l63 -26q-41 -116 -108 -116q-8 0 -16 2t-13.5 4t-13 6t-10.5 6.5t-10 7.5t-8 6q-28 22 -43 22q-32 0 -57 -54l-63 35q42 107 110 107q13 0 24.5 -3.5t16.5 -6.5t16 -11t12 -9q31 -23 43 -23q34 0 57 53zM270 701h104l87 -147h-106l-36 76h-2l-55 -76h-110z
M454 363q0 -59 -45 -102t-108.5 -64t-146.5 -31l-2 -1q9 -35 34 -53.5t57 -18.5q60 0 111 52l86 -62q-46 -46 -90.5 -68t-110.5 -22q-92 0 -145 54t-53 149q0 125 69 212.5t187 87.5q65 0 111 -35.5t46 -97.5zM292 396q-44 0 -83.5 -34.5t-53.5 -101.5l1 -1q187 24 187 99
q0 38 -51 38z" />
    <glyph glyph-name="uni1EC6" unicode="&#x1ec6;" horiz-adv-x="575" 
d="M376 861l-55 -76h-110l118 147h104l87 -147h-106l-36 76h-2zM544 604h-291l-24 -199h235l-13 -106h-235l-24 -193h310l-13 -106h-427l87 710h409zM264 -99q31 0 51 -20.5t20 -50.5q0 -32 -21 -53t-53 -21q-31 0 -51.5 20t-20.5 51q0 32 21.5 53t53.5 21z" />
    <glyph glyph-name="uni1EC7" unicode="&#x1ec7;" horiz-adv-x="479" 
d="M318 630l-55 -76h-110l118 147h104l87 -147h-106l-36 76h-2zM454 363q0 -59 -45 -102t-108.5 -64t-146.5 -31l-2 -1q9 -35 34 -53.5t57 -18.5q60 0 111 52l86 -62q-46 -46 -90.5 -68t-110.5 -22q-92 0 -145 54t-53 149q0 125 69 212.5t187 87.5q65 0 111 -35.5t46 -97.5z
M292 396q-44 0 -83.5 -34.5t-53.5 -101.5l1 -1q187 24 187 99q0 38 -51 38zM221 -99q31 0 51 -20.5t20 -50.5q0 -32 -21 -53t-53 -21q-31 0 -51.5 20t-20.5 51q0 32 21.5 53t53.5 21z" />
    <glyph glyph-name="uni1EC8" unicode="&#x1ec8;" horiz-adv-x="311" 
d="M170 856l-38 46q48 46 115 46q41 0 63 -20t22 -53q-2 -67 -89 -85l-13 -26l-39 2q-16 16 -15 33q2 14 44 35t42 41q0 14 -21 14q-40 0 -71 -33zM185 0h-119l87 710h119z" />
    <glyph glyph-name="uni1EC9" unicode="&#x1ec9;" horiz-adv-x="258" 
d="M119 625l-38 46q48 46 115 46q41 0 63 -20t22 -53q-2 -67 -89 -85l-13 -26l-39 2q-16 16 -15 33q2 14 44 35t42 41q0 14 -21 14q-40 0 -71 -33zM104 488h110l-60 -488h-110z" />
    <glyph glyph-name="uni1ECA" unicode="&#x1eca;" horiz-adv-x="311" 
d="M185 0h-119l87 710h119zM103 -244q-31 0 -51.5 20t-20.5 51q0 32 21.5 53t53.5 21q31 0 51 -20.5t20 -50.5q0 -32 -21 -53t-53 -21z" />
    <glyph glyph-name="uni1ECB" unicode="&#x1ecb;" horiz-adv-x="258" 
d="M183 707q31 0 51.5 -20t20.5 -51q0 -32 -21.5 -53t-53.5 -21q-31 0 -51 20.5t-20 50.5q0 32 21 53t53 21zM104 488h110l-60 -488h-110zM78 -244q-31 0 -51.5 20t-20.5 51q0 32 21.5 53t53.5 21q31 0 51 -20.5t20 -50.5q0 -32 -21 -53t-53 -21z" />
    <glyph glyph-name="uni1ECC" unicode="&#x1ecc;" horiz-adv-x="765" 
d="M439 718q129 0 207.5 -79.5t78.5 -218.5q0 -115 -44 -211.5t-130 -156.5t-199 -60q-130 0 -207.5 79.5t-77.5 219.5q0 113 45.5 210t132 157t194.5 60zM361 102q103 0 172 94.5t69 220.5q0 95 -46.5 143.5t-129.5 48.5q-101 0 -168.5 -96t-67.5 -219q0 -94 45.5 -143
t125.5 -49zM329 -244q-31 0 -51.5 20t-20.5 51q0 32 21.5 53t53.5 21q31 0 51 -20.5t20 -50.5q0 -32 -21 -53t-53 -21z" />
    <glyph glyph-name="uni1ECD" unicode="&#x1ecd;" horiz-adv-x="548" 
d="M300 496q95 0 151 -53t56 -149q0 -131 -69 -216.5t-192 -85.5q-95 0 -150 54.5t-55 151.5q0 123 71 210.5t188 87.5zM293 396q-62 0 -102 -56t-40 -129q0 -52 26.5 -85.5t71.5 -33.5q65 0 106 55.5t41 136.5q0 62 -31 87t-72 25zM220 -244q-31 0 -51.5 20t-20.5 51
q0 32 21.5 53t53.5 21q31 0 51 -20.5t20 -50.5q0 -32 -21 -53t-53 -21z" />
    <glyph glyph-name="uni1ECE" unicode="&#x1ece;" horiz-adv-x="765" 
d="M421 856l-38 46q48 46 115 46q41 0 63 -20t22 -53q-2 -67 -89 -85l-13 -26l-39 2q-16 16 -15 33q2 14 44 35t42 41q0 14 -21 14q-40 0 -71 -33zM439 718q129 0 207.5 -79.5t78.5 -218.5q0 -115 -44 -211.5t-130 -156.5t-199 -60q-130 0 -207.5 79.5t-77.5 219.5
q0 113 45.5 210t132 157t194.5 60zM361 102q103 0 172 94.5t69 220.5q0 95 -46.5 143.5t-129.5 48.5q-101 0 -168.5 -96t-67.5 -219q0 -94 45.5 -143t125.5 -49z" />
    <glyph glyph-name="uni1ECF" unicode="&#x1ecf;" horiz-adv-x="548" 
d="M267 625l-38 46q48 46 115 46q41 0 63 -20t22 -53q-2 -67 -89 -85l-13 -26l-39 2q-16 16 -15 33q2 14 44 35t42 41q0 14 -21 14q-40 0 -71 -33zM300 496q95 0 151 -53t56 -149q0 -131 -69 -216.5t-192 -85.5q-95 0 -150 54.5t-55 151.5q0 123 71 210.5t188 87.5zM293 396
q-62 0 -102 -56t-40 -129q0 -52 26.5 -85.5t71.5 -33.5q65 0 106 55.5t41 136.5q0 62 -31 87t-72 25z" />
    <glyph glyph-name="uni1ED0" unicode="&#x1ed0;" horiz-adv-x="765" 
d="M850 954l-154 -145h-81l115 144zM477 846l-55 -76h-110l118 147h104l87 -147h-106l-36 76h-2zM439 718q129 0 207.5 -79.5t78.5 -218.5q0 -115 -44 -211.5t-130 -156.5t-199 -60q-130 0 -207.5 79.5t-77.5 219.5q0 113 45.5 210t132 157t194.5 60zM361 102
q103 0 172 94.5t69 220.5q0 95 -46.5 143.5t-129.5 48.5q-101 0 -168.5 -96t-67.5 -219q0 -94 45.5 -143t125.5 -49z" />
    <glyph glyph-name="uni1ED1" unicode="&#x1ed1;" horiz-adv-x="548" 
d="M657 789l-154 -145h-81l115 145h120zM326 630l-55 -76h-110l118 147h104l87 -147h-106l-36 76h-2zM300 496q95 0 151 -53t56 -149q0 -131 -69 -216.5t-192 -85.5q-95 0 -150 54.5t-55 151.5q0 123 71 210.5t188 87.5zM249 92q65 0 106 55.5t41 136.5q0 62 -31 87t-72 25
q-62 0 -102 -56t-40 -129q0 -52 26.5 -85.5t71.5 -33.5z" />
    <glyph glyph-name="uni1ED2" unicode="&#x1ed2;" horiz-adv-x="765" 
d="M745 808h-81l-106 145h120zM477 846l-55 -76h-110l118 147h104l87 -147h-106l-36 76h-2zM439 718q129 0 207.5 -79.5t78.5 -218.5q0 -115 -44 -211.5t-130 -156.5t-199 -60q-130 0 -207.5 79.5t-77.5 219.5q0 113 45.5 210t132 157t194.5 60zM361 102q103 0 172 94.5
t69 220.5q0 95 -46.5 143.5t-129.5 48.5q-101 0 -168.5 -96t-67.5 -219q0 -94 45.5 -143t125.5 -49z" />
    <glyph glyph-name="uni1ED3" unicode="&#x1ed3;" horiz-adv-x="548" 
d="M533 644h-81l-106 145h120zM325 630l-55 -76h-110l118 147h104l87 -147h-106l-36 76h-2zM300 496q95 0 151 -53t56 -149q0 -131 -69 -216.5t-192 -85.5q-95 0 -150 54.5t-55 151.5q0 123 71 210.5t188 87.5zM249 92q65 0 106 55.5t41 136.5q0 62 -31 87t-72 25
q-62 0 -102 -56t-40 -129q0 -52 26.5 -85.5t71.5 -33.5z" />
    <glyph glyph-name="uni1ED4" unicode="&#x1ed4;" horiz-adv-x="765" 
d="M696 962q40 0 62 -20t22 -52q0 -67 -88 -86l-13 -26l-39 2q-16 18 -15 33q1 14 43 35.5t43 40.5q0 14 -21 14q-41 0 -71 -32l-38 45q20 20 52 33t63 13zM479 846l-55 -76h-110l118 147h104l87 -147h-106l-36 76h-2zM439 718q129 0 207.5 -79.5t78.5 -218.5
q0 -115 -44 -211.5t-130 -156.5t-199 -60q-130 0 -207.5 79.5t-77.5 219.5q0 113 45.5 210t132 157t194.5 60zM361 102q103 0 172 94.5t69 220.5q0 95 -46.5 143.5t-129.5 48.5q-101 0 -168.5 -96t-67.5 -219q0 -94 45.5 -143t125.5 -49z" />
    <glyph glyph-name="uni1ED5" unicode="&#x1ed5;" horiz-adv-x="548" 
d="M508 802q41 0 63 -20.5t22 -52.5q-2 -66 -89 -86l-13 -25l-39 1q-16 18 -15 33q2 14 44 35.5t42 40.5q0 15 -21 15q-38 0 -71 -33l-38 45q21 21 53 34t62 13zM326 630l-55 -76h-110l118 147h104l87 -147h-106l-36 76h-2zM300 496q95 0 151 -53t56 -149q0 -131 -69 -216.5
t-192 -85.5q-95 0 -150 54.5t-55 151.5q0 123 71 210.5t188 87.5zM249 92q65 0 106 55.5t41 136.5q0 62 -31 87t-72 25q-62 0 -102 -56t-40 -129q0 -52 26.5 -85.5t71.5 -33.5z" />
    <glyph glyph-name="uni1ED6" unicode="&#x1ed6;" horiz-adv-x="765" 
d="M439 912q-21 0 -44 -37l-51 24q35 73 85 73q31 0 66 -26q26 -10 35 -10q31 0 53 37l50 -19q-33 -79 -91 -79q-29 0 -60 23q-32 14 -43 14zM473 805l-64 -68h-96l118 122h92l92 -122h-93l-46 68h-3zM439 718q129 0 207.5 -79.5t78.5 -218.5q0 -115 -44 -211.5t-130 -156.5
t-199 -60q-130 0 -207.5 79.5t-77.5 219.5q0 113 45.5 210t132 157t194.5 60zM361 102q103 0 172 94.5t69 220.5q0 95 -46.5 143.5t-129.5 48.5q-101 0 -168.5 -96t-67.5 -219q0 -94 45.5 -143t125.5 -49z" />
    <glyph glyph-name="uni1ED7" unicode="&#x1ed7;" horiz-adv-x="548" 
d="M302 769q-32 0 -57 -54l-63 35q42 107 110 107q13 0 24.5 -3.5t16.5 -6.5t16 -11t12 -9q31 -23 43 -23q34 0 57 53l63 -26q-41 -116 -108 -116q-8 0 -16 2t-13.5 4t-13 6t-10.5 6.5t-10 7.5t-8 6q-27 22 -43 22zM326 630l-55 -76h-110l118 147h104l87 -147h-106l-36 76
h-2zM300 496q95 0 151 -53t56 -149q0 -131 -69 -216.5t-192 -85.5q-95 0 -150 54.5t-55 151.5q0 123 71 210.5t188 87.5zM249 92q65 0 106 55.5t41 136.5q0 62 -31 87t-72 25q-62 0 -102 -56t-40 -129q0 -52 26.5 -85.5t71.5 -33.5z" />
    <glyph glyph-name="uni1ED8" unicode="&#x1ed8;" horiz-adv-x="765" 
d="M481 861l-55 -76h-110l118 147h104l87 -147h-106l-36 76h-2zM439 718q129 0 207.5 -79.5t78.5 -218.5q0 -115 -44 -211.5t-130 -156.5t-199 -60q-130 0 -207.5 79.5t-77.5 219.5q0 113 45.5 210t132 157t194.5 60zM361 102q103 0 172 94.5t69 220.5q0 95 -46.5 143.5
t-129.5 48.5q-101 0 -168.5 -96t-67.5 -219q0 -94 45.5 -143t125.5 -49zM332 -99q31 0 51 -20.5t20 -50.5q0 -32 -21 -53t-53 -21q-31 0 -51.5 20t-20.5 51q0 32 21.5 53t53.5 21z" />
    <glyph glyph-name="uni1ED9" unicode="&#x1ed9;" horiz-adv-x="548" 
d="M327 630l-55 -76h-110l118 147h104l87 -147h-106l-36 76h-2zM300 496q95 0 151 -53t56 -149q0 -131 -69 -216.5t-192 -85.5q-95 0 -150 54.5t-55 151.5q0 123 71 210.5t188 87.5zM249 92q65 0 106 55.5t41 136.5q0 62 -31 87t-72 25q-62 0 -102 -56t-40 -129
q0 -52 26.5 -85.5t71.5 -33.5zM223 -99q31 0 51 -20.5t20 -50.5q0 -32 -21 -53t-53 -21q-31 0 -51.5 20t-20.5 51q0 32 21.5 53t53.5 21z" />
    <glyph glyph-name="uni1EDA" unicode="&#x1eda;" horiz-adv-x="810" 
d="M636 932l-129 -145h-111l119 144zM737 774h104l-12 -91q-19 -143 -115 -170q11 -44 11 -93q0 -115 -44 -211.5t-130 -156.5t-199 -60q-130 0 -207.5 79.5t-77.5 219.5q0 113 45.5 210t132 157t194.5 60q85 0 149.5 -35.5t99.5 -101.5q18 11 25.5 38.5t14.5 81.5zM361 102
q103 0 172 94.5t69 220.5q0 95 -46.5 143.5t-129.5 48.5q-101 0 -168.5 -96t-67.5 -219q0 -94 45.5 -143t125.5 -49z" />
    <glyph glyph-name="uni1EDB" unicode="&#x1edb;" horiz-adv-x="636" 
d="M499 701l-129 -145h-111l119 144zM553 565h104l-12 -91q-22 -161 -138 -174v-6q0 -131 -69 -216.5t-192 -85.5q-95 0 -150 54.5t-55 151.5q0 123 71 210.5t188 87.5q74 0 125.5 -33t70.5 -94q22 6 31 35t17 88zM249 92q65 0 106 55.5t41 136.5q0 62 -31 87t-72 25
q-62 0 -102 -56t-40 -129q0 -52 26.5 -85.5t71.5 -33.5z" />
    <glyph glyph-name="uni1EDC" unicode="&#x1edc;" horiz-adv-x="810" 
d="M525 787h-111l-94 145l122 -1zM737 774h104l-12 -91q-19 -143 -115 -170q11 -44 11 -93q0 -115 -44 -211.5t-130 -156.5t-199 -60q-130 0 -207.5 79.5t-77.5 219.5q0 113 45.5 210t132 157t194.5 60q85 0 149.5 -35.5t99.5 -101.5q18 11 25.5 38.5t14.5 81.5zM361 102
q103 0 172 94.5t69 220.5q0 95 -46.5 143.5t-129.5 48.5q-101 0 -168.5 -96t-67.5 -219q0 -94 45.5 -143t125.5 -49z" />
    <glyph glyph-name="uni1EDD" unicode="&#x1edd;" horiz-adv-x="636" 
d="M375 556h-111l-94 145l122 -1zM553 565h104l-12 -91q-22 -161 -138 -174v-6q0 -131 -69 -216.5t-192 -85.5q-95 0 -150 54.5t-55 151.5q0 123 71 210.5t188 87.5q74 0 125.5 -33t70.5 -94q22 6 31 35t17 88zM249 92q65 0 106 55.5t41 136.5q0 62 -31 87t-72 25
q-62 0 -102 -56t-40 -129q0 -52 26.5 -85.5t71.5 -33.5z" />
    <glyph glyph-name="uni1EDE" unicode="&#x1ede;" horiz-adv-x="810" 
d="M492 889q-40 0 -71 -33l-38 46q48 46 115 46q41 0 63 -20t22 -53q-2 -67 -89 -85l-13 -26l-39 2q-16 16 -15 33q2 14 44 35t42 41q0 14 -21 14zM737 774h104l-12 -91q-19 -143 -115 -170q11 -44 11 -93q0 -115 -44 -211.5t-130 -156.5t-199 -60q-130 0 -207.5 79.5
t-77.5 219.5q0 113 45.5 210t132 157t194.5 60q85 0 149.5 -35.5t99.5 -101.5q18 11 25.5 38.5t14.5 81.5zM361 102q103 0 172 94.5t69 220.5q0 95 -46.5 143.5t-129.5 48.5q-101 0 -168.5 -96t-67.5 -219q0 -94 45.5 -143t125.5 -49z" />
    <glyph glyph-name="uni1EDF" unicode="&#x1edf;" horiz-adv-x="636" 
d="M338 658q-40 0 -71 -33l-38 46q48 46 115 46q41 0 63 -20t22 -53q-2 -67 -89 -85l-13 -26l-39 2q-16 16 -15 33q2 14 44 35t42 41q0 14 -21 14zM553 565h104l-12 -91q-22 -161 -138 -174v-6q0 -131 -69 -216.5t-192 -85.5q-95 0 -150 54.5t-55 151.5q0 123 71 210.5
t188 87.5q74 0 125.5 -33t70.5 -94q22 6 31 35t17 88zM249 92q65 0 106 55.5t41 136.5q0 62 -31 87t-72 25q-62 0 -102 -56t-40 -129q0 -52 26.5 -85.5t71.5 -33.5z" />
    <glyph glyph-name="uni1EE0" unicode="&#x1ee0;" horiz-adv-x="810" 
d="M429 839q-36 0 -60 -54l-68 35q45 107 118 107q14 0 26 -3.5t17.5 -6.5t17 -11t12.5 -9q33 -23 47 -23q37 0 60 53l68 -26q-20 -55 -50.5 -85.5t-65.5 -30.5q-10 0 -19.5 2t-18.5 6.5t-14 7.5t-13.5 8.5t-10.5 7.5q-29 22 -46 22zM737 774h104l-12 -91
q-19 -143 -115 -170q11 -44 11 -93q0 -115 -44 -211.5t-130 -156.5t-199 -60q-130 0 -207.5 79.5t-77.5 219.5q0 113 45.5 210t132 157t194.5 60q85 0 149.5 -35.5t99.5 -101.5q18 11 25.5 38.5t14.5 81.5zM361 102q103 0 172 94.5t69 220.5q0 95 -46.5 143.5t-129.5 48.5
q-101 0 -168.5 -96t-67.5 -219q0 -94 45.5 -143t125.5 -49z" />
    <glyph glyph-name="uni1EE1" unicode="&#x1ee1;" horiz-adv-x="636" 
d="M275 608q-36 0 -60 -54l-68 35q45 107 118 107q14 0 26 -3.5t17.5 -6.5t17 -11t12.5 -9q33 -23 47 -23q37 0 60 53l68 -26q-20 -55 -50.5 -85.5t-65.5 -30.5q-10 0 -19.5 2t-18.5 6.5t-14 7.5t-13.5 8.5t-10.5 7.5q-29 22 -46 22zM553 565h104l-12 -91
q-22 -161 -138 -174v-6q0 -131 -69 -216.5t-192 -85.5q-95 0 -150 54.5t-55 151.5q0 123 71 210.5t188 87.5q74 0 125.5 -33t70.5 -94q22 6 31 35t17 88zM249 92q65 0 106 55.5t41 136.5q0 62 -31 87t-72 25q-62 0 -102 -56t-40 -129q0 -52 26.5 -85.5t71.5 -33.5z" />
    <glyph glyph-name="uni1EE2" unicode="&#x1ee2;" horiz-adv-x="810" 
d="M737 774h104l-12 -91q-19 -143 -115 -170q11 -44 11 -93q0 -115 -44 -211.5t-130 -156.5t-199 -60q-130 0 -207.5 79.5t-77.5 219.5q0 113 45.5 210t132 157t194.5 60q85 0 149.5 -35.5t99.5 -101.5q18 11 25.5 38.5t14.5 81.5zM361 102q103 0 172 94.5t69 220.5
q0 95 -46.5 143.5t-129.5 48.5q-101 0 -168.5 -96t-67.5 -219q0 -94 45.5 -143t125.5 -49zM332 -99q31 0 51 -20.5t20 -50.5q0 -32 -21 -53t-53 -21q-31 0 -51.5 20t-20.5 51q0 32 21.5 53t53.5 21z" />
    <glyph glyph-name="uni1EE3" unicode="&#x1ee3;" horiz-adv-x="636" 
d="M553 565h104l-12 -91q-22 -161 -138 -174v-6q0 -131 -69 -216.5t-192 -85.5q-95 0 -150 54.5t-55 151.5q0 123 71 210.5t188 87.5q74 0 125.5 -33t70.5 -94q22 6 31 35t17 88zM249 92q65 0 106 55.5t41 136.5q0 62 -31 87t-72 25q-62 0 -102 -56t-40 -129
q0 -52 26.5 -85.5t71.5 -33.5zM223 -99q31 0 51 -20.5t20 -50.5q0 -32 -21 -53t-53 -21q-31 0 -51.5 20t-20.5 51q0 32 21.5 53t53.5 21z" />
    <glyph glyph-name="uni1EE4" unicode="&#x1ee4;" horiz-adv-x="680" 
d="M605 294q-19 -155 -91 -228.5t-202 -73.5q-115 0 -171.5 66.5t-56.5 184.5q0 32 4 60l50 407h118l-50 -407q-4 -25 -4 -55q0 -144 115 -144q147 0 170 190l51 416h118zM289 -244q-31 0 -51.5 20t-20.5 51q0 32 21.5 53t53.5 21q31 0 51 -20.5t20 -50.5q0 -32 -21 -53
t-53 -21z" />
    <glyph glyph-name="uni1EE5" unicode="&#x1ee5;" horiz-adv-x="542" 
d="M396 488h110l-60 -488h-110l11 87h-2q-63 -95 -161 -95q-77 0 -109.5 47t-19.5 149l37 300h109l-34 -290q-7 -59 5 -82.5t46 -23.5q42 0 90 55t62 130zM225 -99q31 0 51 -20.5t20 -50.5q0 -32 -21 -53t-53 -21q-31 0 -51.5 20t-20.5 51q0 32 21.5 53t53.5 21z" />
    <glyph glyph-name="uni1EE6" unicode="&#x1ee6;" horiz-adv-x="680" 
d="M361 856l-38 46q48 46 115 46q41 0 63 -20t22 -53q-2 -67 -89 -85l-13 -26l-39 2q-16 16 -15 33q2 14 44 35t42 41q0 14 -21 14q-40 0 -71 -33zM605 294q-19 -155 -91 -228.5t-202 -73.5q-115 0 -171.5 66.5t-56.5 184.5q0 32 4 60l50 407h118l-50 -407q-4 -25 -4 -55
q0 -144 115 -144q147 0 170 190l51 416h118z" />
    <glyph glyph-name="uni1EE7" unicode="&#x1ee7;" horiz-adv-x="542" 
d="M331 658q-40 0 -71 -33l-38 46q48 46 115 46q41 0 63 -20t22 -53q-2 -67 -89 -85l-13 -26l-39 2q-16 16 -15 33q2 14 44 35t42 41q0 14 -21 14zM396 488h110l-60 -488h-110l11 87h-2q-63 -95 -161 -95q-77 0 -109.5 47t-19.5 149l37 300h109l-34 -290q-7 -59 5 -82.5
t46 -23.5q42 0 90 55t62 130z" />
    <glyph glyph-name="uni1EE8" unicode="&#x1ee8;" horiz-adv-x="766" 
d="M587 932l-129 -145h-111l119 144zM723 774h104l-12 -91q-12 -88 -52.5 -131.5t-104.5 -43.5q-11 0 -26 3l-27 -217q-19 -155 -91 -228.5t-202 -73.5q-115 0 -171.5 66.5t-56.5 184.5q0 32 4 60l50 407h118l-50 -407q-4 -25 -4 -55q0 -144 115 -144q147 0 170 190l51 416
h118l-16 -132q5 -2 14 -2q16 0 26.5 8.5t17 29.5t9.5 37t7 50z" />
    <glyph glyph-name="uni1EE9" unicode="&#x1ee9;" horiz-adv-x="646" 
d="M488 701l-129 -145h-111l119 144zM569 565h104l-12 -91q-12 -88 -52.5 -131.5t-104.5 -43.5q-13 0 -21 2l-37 -301h-110l11 87h-2q-63 -95 -161 -95q-77 0 -109.5 47t-19.5 149l37 300h109l-34 -290q-7 -59 5 -82.5t46 -23.5q42 0 90 55t62 130l26 211h110l-15 -120
q3 -1 9 -1q16 0 26.5 8.5t17 29.5t9.5 37t7 50z" />
    <glyph glyph-name="uni1EEA" unicode="&#x1eea;" horiz-adv-x="766" 
d="M445 787h-111l-94 145l122 -1zM723 774h104l-12 -91q-12 -88 -52.5 -131.5t-104.5 -43.5q-11 0 -26 3l-27 -217q-19 -155 -91 -228.5t-202 -73.5q-115 0 -171.5 66.5t-56.5 184.5q0 32 4 60l50 407h118l-50 -407q-4 -25 -4 -55q0 -144 115 -144q147 0 170 190l51 416h118
l-16 -132q5 -2 14 -2q16 0 26.5 8.5t17 29.5t9.5 37t7 50z" />
    <glyph glyph-name="uni1EEB" unicode="&#x1eeb;" horiz-adv-x="646" 
d="M373 556h-111l-94 145l122 -1zM569 565h104l-12 -91q-12 -88 -52.5 -131.5t-104.5 -43.5q-13 0 -21 2l-37 -301h-110l11 87h-2q-63 -95 -161 -95q-77 0 -109.5 47t-19.5 149l37 300h109l-34 -290q-7 -59 5 -82.5t46 -23.5q42 0 90 55t62 130l26 211h110l-15 -120
q3 -1 9 -1q16 0 26.5 8.5t17 29.5t9.5 37t7 50z" />
    <glyph glyph-name="uni1EEC" unicode="&#x1eec;" horiz-adv-x="766" 
d="M432 889q-40 0 -71 -33l-38 46q48 46 115 46q41 0 63 -20t22 -53q-2 -67 -89 -85l-13 -26l-39 2q-16 16 -15 33q2 14 44 35t42 41q0 14 -21 14zM723 774h104l-12 -91q-12 -88 -52.5 -131.5t-104.5 -43.5q-11 0 -26 3l-27 -217q-19 -155 -91 -228.5t-202 -73.5
q-115 0 -171.5 66.5t-56.5 184.5q0 32 4 60l50 407h118l-50 -407q-4 -25 -4 -55q0 -144 115 -144q147 0 170 190l51 416h118l-16 -132q5 -2 14 -2q16 0 26.5 8.5t17 29.5t9.5 37t7 50z" />
    <glyph glyph-name="uni1EED" unicode="&#x1eed;" horiz-adv-x="646" 
d="M331 658q-40 0 -71 -33l-38 46q48 46 115 46q41 0 63 -20t22 -53q-2 -67 -89 -85l-13 -26l-39 2q-16 16 -15 33q2 14 44 35t42 41q0 14 -21 14zM569 565h104l-12 -91q-12 -88 -52.5 -131.5t-104.5 -43.5q-13 0 -21 2l-37 -301h-110l11 87h-2q-63 -95 -161 -95
q-77 0 -109.5 47t-19.5 149l37 300h109l-34 -290q-7 -59 5 -82.5t46 -23.5q42 0 90 55t62 130l26 211h110l-15 -120q3 -1 9 -1q16 0 26.5 8.5t17 29.5t9.5 37t7 50z" />
    <glyph glyph-name="uni1EEE" unicode="&#x1eee;" horiz-adv-x="766" 
d="M369 839q-36 0 -60 -54l-68 35q45 107 118 107q14 0 26 -3.5t17.5 -6.5t17 -11t12.5 -9q33 -23 47 -23q37 0 60 53l68 -26q-20 -55 -50.5 -85.5t-65.5 -30.5q-10 0 -19.5 2t-18.5 6.5t-14 7.5t-13.5 8.5t-10.5 7.5q-29 22 -46 22zM723 774h104l-12 -91
q-12 -88 -52.5 -131.5t-104.5 -43.5q-11 0 -26 3l-27 -217q-19 -155 -91 -228.5t-202 -73.5q-115 0 -171.5 66.5t-56.5 184.5q0 32 4 60l50 407h118l-50 -407q-4 -25 -4 -55q0 -144 115 -144q147 0 170 190l51 416h118l-16 -132q5 -2 14 -2q16 0 26.5 8.5t17 29.5t9.5 37
t7 50z" />
    <glyph glyph-name="uni1EEF" unicode="&#x1eef;" horiz-adv-x="646" 
d="M268 608q-36 0 -60 -54l-68 35q45 107 118 107q14 0 26 -3.5t17.5 -6.5t17 -11t12.5 -9q33 -23 47 -23q37 0 60 53l68 -26q-20 -55 -50.5 -85.5t-65.5 -30.5q-10 0 -19.5 2t-18.5 6.5t-14 7.5t-13.5 8.5t-10.5 7.5q-29 22 -46 22zM569 565h104l-12 -91
q-12 -88 -52.5 -131.5t-104.5 -43.5q-13 0 -21 2l-37 -301h-110l11 87h-2q-63 -95 -161 -95q-77 0 -109.5 47t-19.5 149l37 300h109l-34 -290q-7 -59 5 -82.5t46 -23.5q42 0 90 55t62 130l26 211h110l-15 -120q3 -1 9 -1q16 0 26.5 8.5t17 29.5t9.5 37t7 50z" />
    <glyph glyph-name="uni1EF0" unicode="&#x1ef0;" horiz-adv-x="766" 
d="M723 774h104l-12 -91q-12 -88 -52.5 -131.5t-104.5 -43.5q-11 0 -26 3l-27 -217q-19 -155 -91 -228.5t-202 -73.5q-115 0 -171.5 66.5t-56.5 184.5q0 32 4 60l50 407h118l-50 -407q-4 -25 -4 -55q0 -144 115 -144q147 0 170 190l51 416h118l-16 -132q5 -2 14 -2
q16 0 26.5 8.5t17 29.5t9.5 37t7 50zM292 -99q31 0 51 -20.5t20 -50.5q0 -32 -21 -53t-53 -21q-31 0 -51.5 20t-20.5 51q0 32 21.5 53t53.5 21z" />
    <glyph glyph-name="uni1EF1" unicode="&#x1ef1;" horiz-adv-x="646" 
d="M569 565h104l-12 -91q-12 -88 -52.5 -131.5t-104.5 -43.5q-13 0 -21 2l-37 -301h-110l11 87h-2q-63 -95 -161 -95q-77 0 -109.5 47t-19.5 149l37 300h109l-34 -290q-7 -59 5 -82.5t46 -23.5q42 0 90 55t62 130l26 211h110l-15 -120q3 -1 9 -1q16 0 26.5 8.5t17 29.5
t9.5 37t7 50zM225 -99q31 0 51 -20.5t20 -50.5q0 -32 -21 -53t-53 -21q-31 0 -51.5 20t-20.5 51q0 32 21.5 53t53.5 21z" />
    <glyph glyph-name="Ygrave" unicode="&#x1ef2;" horiz-adv-x="581" 
d="M403 787h-111l-94 145l122 -1zM485 710h140l-267 -396l-40 -314h-118l39 314l-166 396h129l106 -283h3z" />
    <glyph glyph-name="ygrave" unicode="&#x1ef3;" horiz-adv-x="545" 
d="M371 556h-111l-94 145l122 -1zM401 488h108l-52 -427q-9 -78 -34.5 -133t-64 -83t-78.5 -39.5t-89 -11.5q-95 0 -169 48l36 95q67 -43 133 -43q67 0 106 36.5t52 138.5l2 18h-2q-64 -95 -165 -95q-77 0 -109.5 47t-19.5 149l37 300h109l-34 -290q-7 -58 5 -81.5t46 -24.5
q47 0 98 59t60 139z" />
    <glyph glyph-name="uni1EF4" unicode="&#x1ef4;" horiz-adv-x="581" 
d="M485 710h140l-267 -396l-40 -314h-118l39 314l-166 396h129l106 -283h3zM243 -99q31 0 51 -20.5t20 -50.5q0 -32 -21 -53t-53 -21q-31 0 -51.5 20t-20.5 51q0 32 21.5 53t53.5 21z" />
    <glyph glyph-name="uni1EF5" unicode="&#x1ef5;" horiz-adv-x="545" 
d="M401 488h108l-52 -427q-9 -78 -34.5 -133t-64 -83t-78.5 -39.5t-89 -11.5q-95 0 -169 48l36 95q67 -43 133 -43q67 0 106 36.5t52 138.5l2 18h-2q-64 -95 -165 -95q-77 0 -109.5 47t-19.5 149l37 300h109l-34 -290q-7 -58 5 -81.5t46 -24.5q47 0 98 59t60 139zM213 -244
q31 0 51 -20.5t20 -50.5q0 -32 -21 -53t-53 -21q-31 0 -51.5 20t-20.5 51q0 32 21.5 53t53.5 21z" />
    <glyph glyph-name="uni1EF6" unicode="&#x1ef6;" horiz-adv-x="581" 
d="M373 889q-40 0 -71 -33l-38 46q48 46 115 46q41 0 63 -20t22 -53q-2 -67 -89 -85l-13 -26l-39 2q-16 16 -15 33q2 14 44 35t42 41q0 14 -21 14zM485 710h140l-267 -396l-40 -314h-118l39 314l-166 396h129l106 -283h3z" />
    <glyph glyph-name="uni1EF7" unicode="&#x1ef7;" horiz-adv-x="545" 
d="M333 658q-40 0 -71 -33l-38 46q48 46 115 46q41 0 63 -20t22 -53q-2 -67 -89 -85l-13 -26l-39 2q-16 16 -15 33q2 14 44 35t42 41q0 14 -21 14zM401 488h108l-52 -427q-9 -78 -34.5 -133t-64 -83t-78.5 -39.5t-89 -11.5q-95 0 -169 48l36 95q67 -43 133 -43
q67 0 106 36.5t52 138.5l2 18h-2q-64 -95 -165 -95q-77 0 -109.5 47t-19.5 149l37 300h109l-34 -290q-7 -58 5 -81.5t46 -24.5q47 0 98 59t60 139z" />
    <glyph glyph-name="uni1EF8" unicode="&#x1ef8;" horiz-adv-x="581" 
d="M310 839q-36 0 -60 -54l-68 35q45 107 118 107q14 0 26 -3.5t17.5 -6.5t17 -11t12.5 -9q33 -23 47 -23q37 0 60 53l68 -26q-20 -55 -50.5 -85.5t-65.5 -30.5q-10 0 -19.5 2t-18.5 6.5t-14 7.5t-13.5 8.5t-10.5 7.5q-29 22 -46 22zM485 710h140l-267 -396l-40 -314h-118
l39 314l-166 396h129l106 -283h3z" />
    <glyph glyph-name="uni1EF9" unicode="&#x1ef9;" horiz-adv-x="545" 
d="M270 608q-36 0 -60 -54l-68 35q45 107 118 107q14 0 26 -3.5t17.5 -6.5t17 -11t12.5 -9q33 -23 47 -23q37 0 60 53l68 -26q-20 -55 -50.5 -85.5t-65.5 -30.5q-10 0 -19.5 2t-18.5 6.5t-14 7.5t-13.5 8.5t-10.5 7.5q-29 22 -46 22zM401 488h108l-52 -427
q-9 -78 -34.5 -133t-64 -83t-78.5 -39.5t-89 -11.5q-95 0 -169 48l36 95q67 -43 133 -43q67 0 106 36.5t52 138.5l2 18h-2q-64 -95 -165 -95q-77 0 -109.5 47t-19.5 149l37 300h109l-34 -290q-7 -58 5 -81.5t46 -24.5q47 0 98 59t60 139z" />
    <glyph glyph-name="uni2002" unicode="&#x2002;" horiz-adv-x="467" 
 />
    <glyph glyph-name="uni2003" unicode="&#x2003;" horiz-adv-x="934" 
 />
    <glyph glyph-name="uni2009" unicode="&#x2009;" horiz-adv-x="25" 
 />
    <glyph glyph-name="endash" unicode="&#x2013;" horiz-adv-x="579" 
d="M523 249h-466l11 98h468z" />
    <glyph glyph-name="emdash" unicode="&#x2014;" horiz-adv-x="1045" 
d="M990 249h-933l11 98h934z" />
    <glyph glyph-name="uni2015" unicode="&#x2015;" horiz-adv-x="1205" 
d="M1149 249h-1093l12 98h1094z" />
    <glyph glyph-name="quoteleft" unicode="&#x2018;" horiz-adv-x="210" 
d="M174 457h-117l89 252h87z" />
    <glyph glyph-name="quoteright" unicode="&#x2019;" horiz-adv-x="211" 
d="M120 710h117l-89 -252h-87z" />
    <glyph glyph-name="quotesinglbase" unicode="&#x201a;" horiz-adv-x="235" 
d="M43 120h116l-94 -252h-81z" />
    <glyph glyph-name="quotedblleft" unicode="&#x201c;" horiz-adv-x="376" 
d="M174 457h-117l89 252h87zM339 457h-117l89 252h87z" />
    <glyph glyph-name="quotedblright" unicode="&#x201d;" horiz-adv-x="377" 
d="M120 710h117l-89 -252h-87zM285 710h117l-89 -252h-87z" />
    <glyph glyph-name="quotedblbase" unicode="&#x201e;" horiz-adv-x="401" 
d="M50 174h117l-89 -252h-87zM215 174h117l-89 -252h-87z" />
    <glyph glyph-name="dagger" unicode="&#x2020;" horiz-adv-x="379" 
d="M356 526l-84 5h-17l-14 -110l-11 -129l-40 -57l-27 57l20 129l12 110h-17l-86 -5l9 67l84 -4h16l10 97h67l-15 -97h16l86 4z" />
    <glyph glyph-name="daggerdbl" unicode="&#x2021;" horiz-adv-x="380" 
d="M172 372l15 91l8 68h-17l-86 -4l9 65l84 -4h17l8 98h68l-16 -98h17l86 4l-9 -65l-85 4h-16l-9 -68l-7 -91l-16 -91l-8 -71h17l86 4l-8 -66l-85 3h-17l-7 -96h-67l14 96h-17l-85 -4l8 66l84 -3h18l9 71z" />
    <glyph glyph-name="bullet" unicode="&#x2022;" horiz-adv-x="433" 
d="M228 425q46 0 77 -30.5t31 -76.5q0 -49 -32.5 -81t-80.5 -32q-46 0 -77 31t-31 78t32 79t81 32z" />
    <glyph glyph-name="ellipsis" unicode="&#x2026;" horiz-adv-x="1000" 
d="M147 138q31 0 51.5 -20.5t20.5 -51.5q0 -32 -21.5 -53t-53.5 -21q-31 0 -51 20.5t-20 50.5q0 32 21 53.5t53 21.5zM480 138q31 0 51.5 -20.5t20.5 -51.5q0 -32 -21.5 -53t-53.5 -21q-31 0 -51 20.5t-20 50.5q0 32 21 53.5t53 21.5zM814 138q31 0 51.5 -20.5t20.5 -51.5
q0 -32 -21.5 -53t-53.5 -21q-31 0 -51 20.5t-20 50.5q0 32 21 53.5t53 21.5z" />
    <glyph glyph-name="perthousand" unicode="&#x2030;" horiz-adv-x="1443" 
d="M744 686l-370 -707l-87 40l369 708zM286 716q80 0 132 -50.5t52 -131.5q0 -94 -60 -154t-146 -60q-78 0 -130 52t-52 132q0 90 59 151t145 61zM283 630q-44 0 -75.5 -35.5t-31.5 -89.5q0 -44 25.5 -71.5t65.5 -27.5q46 0 77 34t31 91q0 44 -26 71.5t-66 27.5zM769 388
q80 0 132.5 -51t52.5 -131q0 -94 -60 -154t-147 -60q-79 0 -130.5 52t-51.5 132q0 90 59 151t145 61zM1204 388q79 0 131.5 -51t52.5 -131q0 -94 -59.5 -154t-146.5 -60q-78 0 -130 52t-52 132q0 90 59 151t145 61zM766 302q-44 0 -75.5 -35.5t-31.5 -89.5q0 -44 26 -71.5
t65 -27.5q46 0 77.5 34t31.5 91q0 44 -26.5 71.5t-66.5 27.5zM1201 302q-44 0 -75.5 -35.5t-31.5 -89.5q0 -44 25.5 -71.5t65.5 -27.5q46 0 77.5 34t31.5 91q0 44 -26.5 71.5t-66.5 27.5z" />
    <glyph glyph-name="guilsinglleft" unicode="&#x2039;" horiz-adv-x="296" 
d="M237 33h-105l-85 213l139 217h105l-137 -217z" />
    <glyph glyph-name="guilsinglright" unicode="&#x203a;" horiz-adv-x="291" 
d="M6 33l136 213l-84 217h105l86 -217l-137 -213h-106z" />
    <glyph glyph-name="fraction" unicode="&#x2044;" horiz-adv-x="183" 
d="M350 686l-370 -707l-86 40l369 708z" />
    <glyph glyph-name="uni2070" unicode="&#x2070;" horiz-adv-x="383" 
 />
    <glyph glyph-name="dong" unicode="&#x20ab;" horiz-adv-x="551" 
d="M601 637l-10 -75h-53l-69 -562h-110l12 92h-3q-68 -100 -160 -100q-83 0 -125.5 55.5t-42.5 142.5q0 121 67.5 213.5t172.5 92.5q84 0 133 -49h2l14 115h-98l9 75h98l12 99h110l-12 -99h53zM229 89q56 0 107 67.5t64 175.5v-2l3 23q-40 43 -115 43q-61 0 -99 -64
t-38 -144q0 -46 20 -72.5t58 -26.5zM19 -159l12 100h427l-12 -100h-427z" />
    <glyph glyph-name="Euro" unicode="&#x20ac;" horiz-adv-x="551" 
d="M325 99q63 0 114 41l61 -89q-81 -58 -180 -58t-167.5 62t-81.5 179h-60l9 69h49q1 31 6 61h-48l8 69h57q35 109 115 174.5t189 65.5q98 0 168 -60l-80 -80q-36 35 -88 35q-60 0 -105.5 -36.5t-72.5 -98.5h211l-8 -69h-225q-5 -27 -7 -61h225l-9 -69h-214
q10 -65 45.5 -100t88.5 -35z" />
    <glyph glyph-name="uni20BA" unicode="&#x20ba;" horiz-adv-x="587" 
d="M468 252l93 -38q-57 -117 -127.5 -165.5t-168.5 -48.5h-174l24 198l-70 -33l-24 71l105 49l8 67l-71 -33l-22 71l104 48l30 249h118l-23 -190l126 59l23 -71l-160 -75l-8 -67l126 58l23 -70l-160 -75l-19 -158h43q72 0 117.5 34.5t86.5 119.5z" />
    <glyph glyph-name="uni2113" unicode="&#x2113;" horiz-adv-x="463" 
d="M405 119l36 -25q-65 -102 -174 -102q-78 0 -120 39t-50 109q-29 -24 -55 -43l-22 31q9 8 35.5 29t39.5 32l2 264q1 118 45.5 172t119.5 54q56 0 84.5 -40t28.5 -106q0 -144 -184 -318v-21q0 -82 28.5 -115t69.5 -33q62 0 116 73zM272 622q-34 0 -58 -39t-23 -125v-188
q143 145 143 257q0 95 -62 95z" />
    <glyph glyph-name="uni2116" unicode="&#x2116;" horiz-adv-x="990" 
d="M830 412q-57 0 -90.5 32t-33.5 92q0 73 42 125.5t117 52.5q54 0 88.5 -30.5t34.5 -91.5q0 -73 -41.5 -126.5t-116.5 -53.5zM570 710h118l-88 -710h-129l-228 504h-2l-61 -504h-118l87 710h125l231 -513h1zM860 642q-29 0 -50 -30t-21 -68q0 -26 12.5 -43t31.5 -17
q29 0 50.5 30t21.5 72q0 30 -14 43t-31 13zM687 290l6 73h258l-7 -73h-257z" />
    <glyph glyph-name="trademark" unicode="&#x2122;" horiz-adv-x="635" 
d="M81 710h223l-8 -63h-76l-32 -260h-70l32 260h-77zM570 710h74l-40 -323h-69l24 193l-74 -131h-46l-43 133l-24 -195h-69l39 323h73l55 -178z" />
    <glyph glyph-name="uni2126" unicode="&#x2126;" horiz-adv-x="712" 
d="M527 107v-1h104l-13 -106h-250l13 106q173 126 173 328q0 79 -40.5 126t-109.5 47q-94 0 -151.5 -79t-57.5 -188q0 -134 102 -234l-13 -106h-251l13 106h117v1q-90 96 -90 237q0 159 94.5 266.5t241.5 107.5q120 0 194.5 -80t74.5 -202q0 -97 -40.5 -182.5t-110.5 -146.5
z" />
    <glyph glyph-name="estimated" unicode="&#x212e;" horiz-adv-x="801" 
d="M224 302v-211q65 -68 177 -68q131 0 209 84h55q-46 -54 -117 -85.5t-148 -31.5q-146 0 -244.5 93.5t-98.5 227.5q0 137 100 229t243 92q146 0 244.5 -93.5t98.5 -227.5v-9h-519zM575 534q-68 64 -174 64q-110 0 -177 -68l-1 -190h352v194z" />
    <glyph glyph-name="partialdiff" unicode="&#x2202;" horiz-adv-x="548" 
d="M327 694q53 0 90.5 -24.5t57 -67t27.5 -89t8 -101.5q0 -81 -16 -153.5t-48 -133.5t-86 -97t-124 -36q-83 0 -136 52.5t-53 137.5q0 113 64 186.5t162 73.5q75 0 120 -52l2 1v13q2 186 -102 186q-67 0 -133 -34l-18 94q87 44 185 44zM247 102q48 0 81.5 46.5t50.5 122.5
q-34 70 -95 70q-57 0 -88 -38.5t-31 -95.5q0 -47 20.5 -76t61.5 -29z" />
    <glyph glyph-name="emptyset" unicode="&#x2205;" horiz-adv-x="723" 
d="M604 510q65 -84 65 -192q0 -127 -90 -219t-219 -92q-107 0 -192 67l-48 -48l-47 47l48 48q-69 87 -69 197q0 127 90 218.5t219 91.5q112 0 196 -71l44 44l47 -47zM142 317q0 -73 43 -132l308 308q-58 45 -132 45q-92 0 -155.5 -65t-63.5 -156zM360 97q92 0 155.5 65
t63.5 156q0 69 -40 127l-307 -307q57 -41 128 -41z" />
    <glyph glyph-name="uni2206" unicode="&#x2206;" horiz-adv-x="617" 
d="M427 710l132 -619l-12 -91h-537l11 91l283 619h123zM151 106h283l-84 458h-1z" />
    <glyph glyph-name="product" unicode="&#x220f;" horiz-adv-x="672" 
d="M148 710h490l-99 -814h-118l86 708h-254l-86 -708h-118z" />
    <glyph glyph-name="summation" unicode="&#x2211;" horiz-adv-x="574" 
d="M580 710l-13 -106h-314l142 -288l-210 -290h311l-13 -106h-468l9 84l237 312l-158 308l9 86h468z" />
    <glyph glyph-name="minus" unicode="&#x2212;" horiz-adv-x="532" 
d="M478 227h-427l12 100h427z" />
    <glyph glyph-name="radical" unicode="&#x221a;" horiz-adv-x="653" 
d="M701 822h86l-452 -822h-77l-90 500h-103l12 96h197l69 -434h2z" />
    <glyph glyph-name="infinity" unicode="&#x221e;" horiz-adv-x="724" 
d="M531 445q60 0 98 -42t38 -106q0 -76 -49 -131.5t-119 -55.5q-86 0 -140 97q-81 -97 -159 -97q-60 0 -97.5 41.5t-37.5 105.5q0 76 49 132t118 56q85 0 139 -98q85 98 160 98zM209 196q47 0 105 85q-19 38 -36 57.5t-40 19.5q-37 0 -60.5 -30.5t-23.5 -69.5
q0 -29 15 -45.5t40 -16.5zM496 196q32 0 56 28.5t24 71.5q0 28 -14.5 45t-37.5 17q-49 0 -107 -85q37 -77 79 -77z" />
    <glyph glyph-name="integral" unicode="&#x222b;" horiz-adv-x="294" 
d="M320 611h-30q-46 0 -58.5 -18t-23.5 -91l-81 -532q-9 -65 -43.5 -101t-84.5 -39q-30 -3 -76 3l12 84h8q47 0 59.5 19t23.5 89l80 532q11 67 46 103.5t84 38.5q25 1 46 -1.5t34 -5.5t16 -3z" />
    <glyph glyph-name="uni2236" unicode="&#x2236;" horiz-adv-x="276" 
d="M172 553q31 0 51.5 -20.5t20.5 -51.5q0 -32 -21.5 -53t-53.5 -21q-31 0 -51 20.5t-20 50.5q0 32 21 53.5t53 21.5zM126 196q31 0 51.5 -20.5t20.5 -51.5q0 -32 -21.5 -53t-53.5 -21q-31 0 -51 20.5t-20 50.5q0 32 21 53.5t53 21.5z" />
    <glyph glyph-name="approxequal" unicode="&#x2248;" horiz-adv-x="551" 
d="M382 412q51 0 101 46l28 -81q-54 -63 -120 -63q-32 0 -87.5 24.5t-89.5 24.5q-53 0 -112 -41l-27 80q16 18 55 38.5t77 20.5q39 0 93 -24.5t82 -24.5zM355 191q49 0 101 46l27 -81q-53 -62 -119 -62q-32 0 -87.5 24.5t-88.5 24.5q-58 0 -113 -41l-27 79q16 18 55 39
t76 21q39 0 93.5 -25t82.5 -25z" />
    <glyph glyph-name="notequal" unicode="&#x2260;" horiz-adv-x="555" 
d="M511 341h-171l-69 -128h221l-12 -100h-264l-61 -113l-72 29l46 84h-76l12 100h118l70 128h-169l12 100h211l66 121l71 -30l-49 -91h128z" />
    <glyph glyph-name="lessequal" unicode="&#x2264;" horiz-adv-x="549" 
d="M483 266l-12 -108l-393 201l9 82l443 205l-13 -110l-283 -135zM33 0l12 101h418l-12 -101h-418z" />
    <glyph glyph-name="greaterequal" unicode="&#x2265;" horiz-adv-x="555" 
d="M79 267l284 135l-250 135l13 110l393 -205l-9 -82l-443 -201zM465 0h-418l12 100h418z" />
    <glyph glyph-name="uni2713" unicode="&#x2713;" horiz-adv-x="585" 
d="M599 740l-383 -625l-193 200l65 63l111 -116l322 526z" />
    <glyph glyph-name="uni2715" unicode="&#x2715;" horiz-adv-x="366" 
d="M282 117l-98 98l-99 -98l-62 62l99 99l-99 98l61 61l98 -98l99 99l62 -62l-99 -100l99 -99z" />
    <glyph glyph-name="Q.alt" horiz-adv-x="766" 
d="M725 420q0 -115 -45 -213t-127 -154l114 -114l-84 -87l-147 149q-39 -9 -84 -9q-130 0 -207.5 79.5t-77.5 219.5q0 113 45.5 209.5t131.5 156.5t195 60q130 0 208 -79t78 -218zM190 294q0 -94 45.5 -143t125.5 -49q103 0 172 94.5t69 220.5q0 95 -46.5 143t-129.5 48
q-101 0 -168.5 -95.5t-67.5 -218.5z" />
    <glyph glyph-name="i.loclTRK" horiz-adv-x="258" 
d="M183 707q31 0 51.5 -20t20.5 -51q0 -32 -21.5 -53t-53.5 -21q-31 0 -51 20.5t-20 50.5q0 32 21 53t53 21zM104 488h110l-60 -488h-110z" />
    <glyph glyph-name="f.calt" horiz-adv-x="313" 
d="M311 641q-12 3 -20 3q-23 0 -37 -16t-20 -60l-9 -80h97l-11 -93h-99l-48 -395h-109l48 395h-46l11 93h47l12 101q10 77 47 116t98 39q41 0 67 -10z" />
    <glyph glyph-name="germandbls.calt" horiz-adv-x="731" 
d="M525 405q10 -5 37.5 -21t38 -22.5t32 -21t30.5 -25.5t21 -27.5t16.5 -35t4.5 -40.5q0 -103 -66 -161.5t-158 -58.5q-64 0 -121.5 25.5t-93.5 66.5l64 103q21 -43 60.5 -65.5t83.5 -22.5q45 0 76 30t31 72q0 16 -4 27.5t-18 23.5t-22.5 18t-36.5 21t-40 22q-23 14 -84 45
l150 238v2q-86 11 -136 11q-77 0 -117.5 -31t-49.5 -105l-59 -473h-117l59 479q30 239 285 239q115 0 305 -47l-171 -265v-1z" />
    <glyph glyph-name="bullet.case" horiz-adv-x="425" 
d="M228 448q46 0 77 -30.5t31 -76.5q0 -49 -32.5 -81t-80.5 -32q-46 0 -77 31t-31 78t32 79t81 32z" />
    <glyph glyph-name="exclamdown.case" horiz-adv-x="271" 
d="M155 392q-31 0 -51.5 20.5t-20.5 51.5q0 32 21.5 53t53.5 21q31 0 51 -20.5t20 -50.5q0 -32 -21 -53.5t-53 -21.5zM183 307l-42 -513h-121l83 513h80z" />
    <glyph glyph-name="questiondown.case" horiz-adv-x="437" 
d="M270 392q-31 0 -51.5 20.5t-20.5 51.5q0 32 21.5 53t53.5 21q31 0 51 -20.5t20 -50.5q0 -32 -21 -53.5t-53 -21.5zM301 -48q-43 -57 -98 -57q-32 0 -50 20t-18 56q0 39 18.5 69.5t55.5 70.5q2 2 17 17.5t17.5 18.5t14 16.5t14.5 18.5t11 16.5t10.5 19.5t6 19t4.5 22l5 48
h-101l-9 -47q-3 -17 -17 -37t-26.5 -33.5t-40.5 -39.5q-107 -101 -107 -205q0 -77 47.5 -118t116.5 -41q59 0 113.5 25t88.5 69z" />
    <glyph glyph-name="braceleft.case" horiz-adv-x="317" 
d="M299 778h67l-9 -76h-23q-27 0 -42.5 -21t-18.5 -47l-25 -195q-5 -44 -19 -67.5t-41 -34.5v-2q25 -11 33 -32.5t1 -73.5l-22 -183q-4 -37 5 -53.5t36 -16.5h27l-10 -76h-63q-45 0 -72 34.5t-20 88.5l24 196q2 20 2 36.5t-16 27t-50 11.5l7 85q34 1 54 15t24.5 28t7.5 36
l25 201q6 52 38 85.5t80 33.5z" />
    <glyph glyph-name="braceright.case" horiz-adv-x="316" 
d="M218 454q-1 -18 -2 -34t15.5 -28t50.5 -13l-7 -85q-35 -1 -54.5 -14t-24.5 -27t-8 -39l-23 -195q-7 -55 -40 -87t-78 -32h-68l10 76h23q30 0 43.5 18.5t18.5 56.5l22 183q6 53 19 72.5t43 30.5v2q-46 21 -35 105l23 194q7 64 -42 64h-26l9 76h63q48 0 73.5 -36t19.5 -88z
" />
    <glyph glyph-name="bracketleft.case" horiz-adv-x="292" 
d="M217 691l-87 -709h112l-10 -85h-210l108 879h210l-10 -85h-113z" />
    <glyph glyph-name="bracketright.case" horiz-adv-x="338" 
d="M237 692h-116l10 85h214l-108 -879h-214l11 85h116z" />
    <glyph glyph-name="parenleft.case" horiz-adv-x="273" 
d="M167 220q0 -154 47 -289l-90 -42q-60 138 -60 316q0 159 45.5 313.5t128.5 269.5l77 -34q-71 -113 -109.5 -253.5t-38.5 -280.5z" />
    <glyph glyph-name="parenright.case" horiz-adv-x="273" 
d="M238 475q0 -331 -173 -582l-77 34q71 118 108.5 258t37.5 277q0 158 -47 288l88 42q63 -129 63 -317z" />
    <glyph glyph-name="emdash.case" horiz-adv-x="1027" 
d="M983 275h-933l11 98h934z" />
    <glyph glyph-name="endash.case" horiz-adv-x="561" 
d="M516 275h-466l11 98h468z" />
    <glyph glyph-name="uni2015.case" horiz-adv-x="1188" 
d="M1143 275h-1093l12 98h1094z" />
    <glyph glyph-name="hyphen.case" horiz-adv-x="356" 
d="M313 281h-262l12 102h262z" />
    <glyph glyph-name="guillemotleft.case" horiz-adv-x="479" 
d="M242 77h-106l-84 213l138 217h105l-136 -217zM430 77h-105l-85 213l139 217h105l-137 -217z" />
    <glyph glyph-name="guillemotright.case" horiz-adv-x="481" 
d="M14 77l136 213l-84 217h105l86 -217l-137 -213h-106zM205 77l135 213l-84 217h105l86 -217l-137 -213h-105z" />
    <glyph glyph-name="CR" horiz-adv-x="224" 
 />
    <glyph glyph-name="plus.case" horiz-adv-x="537" 
d="M485 277h-163l-22 -185h-101l22 185h-162l12 100h163l22 186h102l-23 -186h163z" />
    <glyph glyph-name="at.case" horiz-adv-x="896" 
d="M667 540l-32 -263q-5 -40 2.5 -58.5t38.5 -18.5q30 0 53 30.5t33.5 69t10.5 71.5q0 122 -76.5 202.5t-204.5 80.5q-74 0 -135 -21.5t-102 -57t-69 -82.5t-40.5 -95t-12.5 -97q0 -131 81.5 -211.5t199.5 -80.5q111 0 211 51l37 -60q-110 -72 -248 -72q-161 0 -263 101
t-102 272q0 56 14.5 113t48.5 115t83.5 102.5t126.5 72.5t170 28q168 0 267 -100.5t99 -259.5q0 -30 -5.5 -62t-21 -68t-39 -64t-62.5 -46t-88 -18q-46 0 -78.5 24.5t-41.5 68.5h-2q-55 -82 -145 -82q-61 0 -101.5 44.5t-40.5 123.5q0 107 61 180t149 73q70 0 108 -38h2
l4 32h110zM407 224q43 0 83 48.5t48 116.5l4 27q-38 30 -85 30q-46 0 -78.5 -44.5t-32.5 -98.5q0 -40 18 -59.5t43 -19.5z" />
    <glyph glyph-name="breve.short" horiz-adv-x="385" 
d="M233 533q-56 0 -89 39t-28 107h81q-4 -32 6 -50.5t33 -18.5q24 0 39 19.5t16 49.5h85q-11 -67 -49 -106.5t-94 -39.5z" />
    <glyph glyph-name="dieresis.short" horiz-adv-x="471" 
d="M191 689q30 0 50.5 -20t20.5 -51q0 -32 -21 -53t-53 -21q-31 0 -51.5 20.5t-20.5 50.5q0 32 21.5 53t53.5 21zM375 689q31 0 51 -20t20 -51q0 -32 -21 -53t-53 -21q-31 0 -51.5 20.5t-20.5 50.5q0 32 21.5 53t53.5 21z" />
    <glyph glyph-name="grave.short" horiz-adv-x="424" 
d="M276 682l50 -144h-113l-59 145z" />
    <glyph glyph-name="tilde.short" horiz-adv-x="426" 
d="M87 571q42 107 110 107q13 0 24.5 -3.5t16.5 -6.5t16 -11t12 -9q31 -23 43 -23q34 0 57 53l63 -26q-41 -116 -108 -116q-8 0 -16 2t-13.5 4t-13 6t-10.5 6.5t-10 7.5t-8 6q-28 22 -43 22q-32 0 -57 -54z" />
    <glyph glyph-name="NULL" horiz-adv-x="0" 
 />
    <glyph glyph-name="KB" horiz-adv-x="928" 
d="M450 305q51 -6 86.5 -13.5t79.5 -24t67.5 -45.5t23.5 -69q0 -67 -62 -110.5t-172 -43.5q-94 0 -160 36.5t-94 94.5l21 9q71 -94 200 -94q53 0 87.5 25t34.5 76q0 43 -43.5 86t-117.5 71q-14 -51 -19 -74q42 -7 71 -17l-5 -36h-248l-1 34q49 34 98 50l73 382l-65 19l-2 30
q47 29 117 29l70 -35l-63 -194l-66 -189l10 -2q35 131 90.5 187.5t130.5 56.5q56 0 89 -24t33 -74q0 -60 -49 -98t-146 -38q-37 0 -69 4v-9zM542 504q-26 0 -63.5 -42.5t-68.5 -131.5q90 3 131.5 40.5t41.5 83.5q0 21 -11 35.5t-30 14.5zM89 -107l-12 -39h-6l-8 29l-8 -29
h-6l-12 39h6l9 -28l8 28h6l8 -28l9 28h6zM146 -107l-12 -39h-7l-7 29l-9 -29h-6l-12 39h7l8 -28l8 28h7l7 -28l9 28h7zM202 -107l-12 -39h-6l-8 29l-9 -29h-5l-13 39h7l9 -28l7 28h7l8 -28l8 28h7zM229 -130l-4 -5v-11h-7v39h7v-19l15 19h8l-15 -18l16 -21h-9zM270 -107
q19 0 19 -19q0 -20 -19 -20q-20 0 -20 20q0 19 20 19zM310 -123q12 -4 12 -12q0 -11 -13 -11q-10 0 -15 6l4 5q4 -5 11 -5q6 0 6 4t-7 7q-12 4 -12 11q0 11 12 11q8 0 13 -5l-4 -5q-4 4 -9 4t-5 -4q0 -3 7 -6zM343 -113v-33h-7v33h-11v6h29v-6h-11zM379 -138h-16l-3 -8h-7
l15 39h6l15 -39h-7zM407 -123q12 -3 12 -12q0 -11 -13 -11q-9 0 -14 6l4 5q4 -5 10 -5t6 4t-7 7q-12 4 -12 11q0 11 12 11q8 0 13 -5l-4 -5q-4 4 -9 4t-5 -4q0 -3 7 -6zM447 -125q8 -2 8 -10q0 -11 -13 -11h-16v39h14q13 0 13 -10q0 -7 -6 -8zM483 -138h-15l-3 -8h-7l14 39
h7l14 -39h-7zM520 -146l-9 14h-5v-14h-7v39h15q13 0 13 -13q0 -9 -9 -11l10 -15h-8zM548 -113v-33h-6v33h-11v6h29v-6h-12zM579 -123q12 -4 12 -12q0 -11 -13 -11q-10 0 -15 6l5 5q2 -5 10 -5q6 0 6 4t-7 7q-12 4 -12 11q0 11 12 11q8 0 13 -5l-4 -5q-4 4 -9 4t-5 -4
q0 -3 7 -6zM616 -107q8 0 14 -5.5t6 -13.5q0 -20 -20 -20q-19 0 -19 20q0 19 19 19zM654 -130l-4 -5v-11h-7v39h7v-19l15 19h8l-14 -18l15 -21h-8zM702 -138h-16l-3 -8h-7l14 39h7l14 -39h-6zM730 -123q12 -3 12 -12q0 -11 -13 -11q-9 0 -14 6l4 5q4 -5 10 -5t6 4t-7 7
q-12 4 -12 11q0 11 12 11q8 0 13 -5l-4 -5q-4 4 -9 4t-5 -4q0 -3 7 -6zM779 -140q7 0 10 5l5 -4q-5 -7 -15 -7q-20 0 -20 19q0 20 20 20q9 0 15 -7l-5 -4q-3 5 -10 5q-13 0 -13 -14q0 -13 13 -13zM818 -107q20 0 20 -19q0 -20 -20 -20q-19 0 -19 20q0 19 19 19zM884 -107
v-39h-6v26l-11 -19h-4l-11 19v-26h-6v39h6l13 -23l13 23h6zM270 -140q12 0 12 14q0 13 -12 13q-13 0 -13 -13q0 -14 13 -14zM433 -124h6q7 0 7 6q0 5 -8 5h-5v-11zM506 -126h6q8 0 8 6q0 7 -7 7h-7v-13zM616 -140q13 0 13 14q0 13 -13 13q-12 0 -12 -13q0 -14 12 -14z
M818 -140q13 0 13 14q0 13 -13 13q-12 0 -12 -13q0 -14 12 -14zM376 -132l-5 17l-6 -17h11zM481 -132l-5 17l-6 -17h11zM700 -132l-6 17l-6 -17h12zM440 -140q8 0 8 5q0 6 -8 6h-7v-11h7zM210 -143q0 -3 -3 -3q-4 0 -4 3q0 5 4 5q3 0 3 -5zM755 -143q0 -3 -4 -3t-4 3
q0 5 4 5t4 -5z" />
    <glyph glyph-name="jacute" horiz-adv-x="240" 
d="M220 700l121 1l-129 -145h-111zM-73 -96q19 -15 44 -15q24 0 37.5 21t18.5 69l63 509h110l-65 -524q-20 -169 -147 -169q-51 0 -89 23z" />
    <glyph glyph-name="Jacute" horiz-adv-x="485" 
d="M477 931l121 1l-129 -145h-111zM95 166q37 -62 83 -62q91 0 111 159l55 447h119l-56 -453q-16 -131 -71 -198t-158 -67q-49 0 -93.5 24t-71.5 68z" />
    </font>
</defs>
</svg>
